<svg xmlns="http://www.w3.org/2000/svg" xmlns:xlink="http://www.w3.org/1999/xlink" width="1310" height="2020">
  <defs>
    <radialGradient id="ball" fx="75%" fy="25%">
      <stop offset="0%" stop-color="#fff"/>
      <stop offset="100%" stop-color="gray"/>
    </radialGradient>
    <radialGradient xlink:href="#ball" id="actinide">
      <stop offset="0%" stop-color="#fff"/>
      <stop offset="100%" stop-color="#add5ff"/>
    </radialGradient>
    <radialGradient xlink:href="#ball" id="nonmetal">
      <stop offset="0%" stop-color="#fff"/>
      <stop offset="100%" stop-color="#a0ffa0"/>
    </radialGradient>
    <radialGradient xlink:href="#ball" id="noblegas">
      <stop offset="0%" stop-color="#fff"/>
      <stop offset="100%" stop-color="#c0ffff"/>
    </radialGradient>
    <radialGradient xlink:href="#ball" id="alkali">
      <stop offset="0%" stop-color="#fff"/>
      <stop offset="100%" stop-color="#f66"/>
    </radialGradient>
    <radialGradient xlink:href="#ball" id="alkaline">
      <stop offset="0%" stop-color="#fff"/>
      <stop offset="100%" stop-color="#ffdead"/>
    </radialGradient>
    <radialGradient xlink:href="#ball" id="metalloid">
      <stop offset="0%" stop-color="#fff"/>
      <stop offset="100%" stop-color="#cc9"/>
    </radialGradient>
    <radialGradient xlink:href="#ball" id="halogen">
      <stop offset="0%" stop-color="#fff"/>
      <stop offset="100%" stop-color="#ff9"/>
    </radialGradient>
    <radialGradient xlink:href="#ball" id="poormetal">
      <stop offset="0%" stop-color="#fff"/>
      <stop offset="100%" stop-color="#ccc"/>
    </radialGradient>
    <radialGradient xlink:href="#ball" id="lanthanide">
      <stop offset="0%" stop-color="#fff"/>
      <stop offset="100%" stop-color="#ffbfff"/>
    </radialGradient>
    <radialGradient xlink:href="#ball" id="transition">
      <stop offset="0%" stop-color="#fff"/>
      <stop offset="100%" stop-color="#ffc0c0"/>
    </radialGradient>
    <marker id="Arrow2Mend" orient="auto" overflow="visible" refX="0" refY="0">
      <path id="path4011" fill-rule="evenodd" stroke-linejoin="round" stroke-width=".625" d="M8.719 4.034-2.207.016 8.719-4.002c-1.746 2.372-1.736 5.618 0 8.036z" font-size="12" transform="scale(-1)"/>
    </marker>
    <style>
      tspan{font-size:25px}.symbol{font-size:90px;font-weight:700;stroke:none}.halflife,.su,.symbol,tspan{font-family:DejaVu Sans Condensed,sans-serif}.su{font-size:32px;text-anchor:end;letter-spacing:-3px}.halflife{text-anchor:middle;font-size:30px}circle{stroke-width:3.5;stroke:#000}.noblegas{fill:url(#noblegas)}.alkaline{fill:url(#alkaline)}.metalloid{fill:url(#metalloid)}.poormetal{fill:url(#poormetal)}.actinide{fill:url(#actinide)}.ab{font-family:Liberation Sans,sans-serif;font-style:italic;font-size:40px}.background0{stroke:none;fill:#fff}.background1{stroke:none;fill:#f5f5f5}.SideKey,.key{font-family:DejaVu Sans Light,sans-serif}.SideKey{fill:#555;font-size:40px;text-anchor:end}.key{font-size:25px}
    </style>
  </defs>
  <path d="M10 10h1290v200H10z" class="background0"/>
  <path d="M10 210h1290v200H10z" class="background1"/>
  <path d="M10 410h1290v200H10z" class="background0"/>
  <path d="M10 610h1290v200H10z" class="background1"/>
  <path d="M10 810h1290v200H10z" class="background0"/>
  <path d="M10 1010h1290v200H10z" class="background1"/>
  <path d="M10 1210h1290v200H10z" class="background0"/>
  <path d="M10 1410h1290v200H10z" class="background1"/>
  <path d="M10 1610h1290v200H10z" class="background0"/>
  <path d="M10 1810h1290v200H10z" class="background1"/>
  <text x="1290" y="200" class="SideKey">Thorium</text>
  <text x="1290" y="400" class="SideKey">Actinium</text>
  <text x="1290" y="600" class="SideKey">Radium</text>
  <text x="1290" y="800" class="SideKey">Francium</text>
  <text x="1290" y="1000" class="SideKey">Radon</text>
  <text x="1290" y="1200" class="SideKey">Astatine</text>
  <text x="1290" y="1400" class="SideKey">Polonium</text>
  <text x="1290" y="1600" class="SideKey">Bismuth</text>
  <text x="1290" y="1800" class="SideKey">Lead</text>
  <text x="1290" y="2000" class="SideKey">Thallium</text>
  <path fill="#fff" stroke="#000" stroke-width="2" d="M10 1680h340v340H10z"/>
  <path d="M20 1690h40v40H20z" class="actinide"/>
  <text x="65" y="50" class="key" transform="translate(0 1670)">Actinides</text>
  <path fill="url(#alkali)" d="M20 60h40v40H20z" transform="translate(0 1670)"/>
  <text x="65" y="90" class="key" transform="translate(0 1670)">Alkali Metals</text>
  <path d="M20 1770h40v40H20z" class="alkaline"/>
  <text x="65" y="130" class="key" transform="translate(0 1670)">Alkaline Earth Metals</text>
  <path fill="url(#halogen)" d="M20 140h40v40H20z" transform="translate(0 1670)"/>
  <text x="65" y="170" class="key" transform="translate(0 1670)">Halogens</text>
  <path d="M20 1850h40v40H20z" class="metalloid"/>
  <text x="65" y="210" class="key" transform="translate(0 1670)">Metalloids</text>
  <path d="M20 1890h40v40H20z" class="noblegas"/>
  <text x="65" y="250" class="key" transform="translate(0 1670)">Noble Gases</text>
  <path d="M20 1930h40v40H20z" class="poormetal"/>
  <text x="65" y="290" class="key" transform="translate(0 1670)">Post Transition Metals</text>
  <path fill="url(#transition)" d="M20 300h40v40H20z" transform="translate(0 1670)"/>
  <text x="65" y="330" class="key" transform="translate(0 1670)">Transition Metals</text>
  <circle cx="110" cy="110" r="100" stroke="#000" stroke-width="3.5" class="actinide"/>
  <text>
	<tspan x="80" y="115" class="su">90</tspan><tspan x="80" class="su" dy="-42">232</tspan><tspan x="80" class="symbol" dy="42">Th</tspan><tspan x="110" class="halflife" dy="1.4em">1.41e+10</tspan><tspan x="110" class="halflife" dy="1em">Years</tspan>
</text>
  <path d="M110 210v195"/>
  <text x="115" y="310" class="ab">α</text>
  <circle cx="110" cy="510" r="100" stroke="#000" stroke-width="3.5" class="alkaline"/>
  <text>
	<tspan x="80" y="515" class="su">88</tspan><tspan x="80" class="su" dy="-42">228</tspan><tspan x="80" class="symbol" dy="42">Ra</tspan><tspan x="110" class="halflife" dy="1.4em">5.7</tspan><tspan x="110" class="halflife" dy="1em">Years</tspan>
</text>
  <path d="m181 439 55-55"/>
  <text x="200" y="450" class="ab">β⁻</text>
  <circle cx="310" cy="310" r="100" stroke="#000" stroke-width="3.5" class="actinide"/>
  <text>
	<tspan x="280" y="315" class="su">89</tspan><tspan x="280" class="su" dy="-42">228</tspan><tspan x="280" class="symbol" dy="42">Ac</tspan><tspan x="310" class="halflife" dy="1.4em">6.1</tspan><tspan x="310" class="halflife" dy="1em">Hours</tspan>
</text>
  <path d="m381 239 55-55"/>
  <text x="400" y="250" class="ab">β⁻</text>
  <circle cx="510" cy="110" r="100" stroke="#000" stroke-width="3.5" class="actinide"/>
  <text>
	<tspan x="480" y="115" class="su">90</tspan><tspan x="480" class="su" dy="-42">228</tspan><tspan x="480" class="symbol" dy="42">Th</tspan><tspan x="510" class="halflife" dy="1.4em">1.9</tspan><tspan x="510" class="halflife" dy="1em">Years</tspan>
</text>
  <path d="M510 210v195"/>
  <text x="515" y="310" class="ab">α</text>
  <circle cx="510" cy="510" r="100" stroke="#000" stroke-width="3.5" class="alkaline"/>
  <text>
	<tspan x="480" y="515" class="su">88</tspan><tspan x="480" class="su" dy="-42">224</tspan><tspan x="480" class="symbol" dy="42">Ra</tspan><tspan x="510" class="halflife" dy="1.4em">3.6</tspan><tspan x="510" class="halflife" dy="1em">Days</tspan>
</text>
  <path d="M510 610v195"/>
  <text x="515" y="710" class="ab">α</text>
  <circle cx="510" cy="910" r="100" stroke="#000" stroke-width="3.5" class="noblegas"/>
  <text>
	<tspan x="480" y="915" class="su">86</tspan><tspan x="480" class="su" dy="-42">220</tspan><tspan x="480" class="symbol" dy="42">Rn</tspan><tspan x="510" class="halflife" dy="1.4em">55</tspan><tspan x="510" class="halflife" dy="1em">Seconds</tspan>
</text>
  <path d="M510 1010v195"/>
  <text x="515" y="1110" class="ab">α</text>
  <circle cx="510" cy="1310" r="100" stroke="#000" stroke-width="3.5" class="metalloid"/>
  <text>
	<tspan x="480" y="1315" class="su">84</tspan><tspan x="480" class="su" dy="-42">216</tspan><tspan x="480" class="symbol" dy="42">Po</tspan><tspan x="510" class="halflife" dy="1.4em">0.14</tspan><tspan x="510" class="halflife" dy="1em">Seconds</tspan>
</text>
  <path d="M510 1410v195"/>
  <text x="515" y="1510" class="ab">α</text>
  <circle cx="510" cy="1710" r="100" stroke="#000" stroke-width="3.5" class="poormetal"/>
  <text>
	<tspan x="480" y="1715" class="su">82</tspan><tspan x="480" class="su" dy="-42">212</tspan><tspan x="480" class="symbol" dy="42">Pb</tspan><tspan x="510" class="halflife" dy="1.4em">10.6</tspan><tspan x="510" class="halflife" dy="1em">Hours</tspan>
</text>
  <path d="m581 1639 55-55"/>
  <text x="600" y="1650" class="ab">β⁻</text>
  <circle cx="710" cy="1510" r="100" stroke="#000" stroke-width="3.5" class="poormetal"/>
  <text>
	<tspan x="680" y="1515" class="su">83</tspan><tspan x="680" class="su" dy="-42">212</tspan><tspan x="680" class="symbol" dy="42">Bi</tspan><tspan x="710" class="halflife" dy="1.4em">61</tspan><tspan x="710" class="halflife" dy="1em">Minutes</tspan>
</text>
  <path d="M710 1610v195"/>
  <text x="715" y="1710" class="ab">α</text>
  <circle cx="710" cy="1910" r="100" stroke="#000" stroke-width="3.5" class="poormetal"/>
  <text>
	<tspan x="680" y="1915" class="su">81</tspan><tspan x="680" class="su" dy="-42">208</tspan><tspan x="680" class="symbol" dy="42">Tl</tspan><tspan x="710" class="halflife" dy="1.4em">3.1</tspan><tspan x="710" class="halflife" dy="1em">Minutes</tspan>
</text>
  <path d="m781 1839 55-55"/>
  <text x="800" y="1850" class="ab">β⁻</text>
  <circle cx="910" cy="1710" r="100" stroke="#000" stroke-width="3.5" class="poormetal"/>
  <text>
	<tspan x="880" y="1715" class="su">82</tspan><tspan x="880" class="su" dy="-42">208</tspan><tspan x="880" class="symbol" dy="42">Pb</tspan><tspan x="910" class="halflife" dy="1.4em">Stable</tspan>
</text>
  <path d="m781 1439 55-55"/>
  <text x="800" y="1450" class="ab">β⁻</text>
  <circle cx="910" cy="1310" r="100" stroke="#000" stroke-width="3.5" class="metalloid"/>
  <text>
	<tspan x="880" y="1315" class="su">84</tspan><tspan x="880" class="su" dy="-42">212</tspan><tspan x="880" class="symbol" dy="42">Po</tspan><tspan x="910" class="halflife" dy="1.4em">3e-07</tspan><tspan x="910" class="halflife" dy="1em">Seconds</tspan>
</text>
  <path d="M910 1410v195"/>
  <text x="915" y="1510" class="ab">α</text>
</svg>
