<svg width="1310" height="2620" version="1.1" xmlns="http://www.w3.org/2000/svg" xmlns:xlink="http://www.w3.org/1999/xlink">
<defs>
  <style type="text/css"><![CDATA[
  
  tspan {font-family: DejaVu Sans Condensed, sans-serif; font-size:25px}
  .symbol {font-family: DejaVu Sans Condensed, sans-serif; font-size:90px; font-weight:bold; stroke: none}
  .su {font-size: 32px; font-family: DejaVu Sans Condensed, sans-serif; text-anchor:end; letter-spacing:-3px}
  .halflife {font-size: 32px; font-family: DejaVu Sans Condensed, sans-serif; text-anchor:middle; font-size: 30px}
  
  circle {stroke-width:3.5; stroke:black}
  .polyatomicnonmetal {fill: url(#polyatomicnonmetal)}
  .noblegas {fill: url(#noblegas)}
  .alkali {fill:url(#alkali)}
  .alkaline {fill:url(#alkaline)}
  .metalloid {fill:url(#metalloid)}
  .diatomicnonmetal {fill: url(#diatomicnonmetal)}
  .posttransitionmetal {fill:url(#posttransitionmetal)}
  .lanthanide {fill:url(#lanthanide)}
  .actinide {fill: url(#actinide)}
  .transition {fill: url(#transition)}
  line {marker-end:url(#Arrow2Mend); stroke-width:3.5; stroke:black}
  .ab {font-family: Liberation Sans, sans-serif; font-style:italic; font-size:40px}
  .background0 {stroke: none; fill: #ffffff}
  .background1 {stroke: none; fill: #f5f5f5}
  .SideKey {fill: #000000; font-family: DejaVu Sans, sans-serif; font-size: 40px; text-anchor: end}
  .key {font-family: DejaVu Sans, sans-serif; font-size: 25px}
  ]]></style>
  <marker refX="0" refY="0" orient="auto" id="Arrow2Mend" style="overflow:visible"> 
    <path d="M 8.7185878,4.0337352 -2.2072895,0.01601326 8.7185884,-4.0017078 c -1.7454984,2.3720609 -1.7354408,5.6174519 -6e-7,8.035443 z" transform="scale(-1,-1)" id="path4011" style="font-size:12px;fill-rule:evenodd;stroke-width:0.625;stroke-linejoin:round"/> 
  </marker> 
  <radialGradient id="ball" fx="75%" fy="25%">
    <stop offset="0%" stop-color="white"/>
    <stop offset="100%" stop-color="grey"/>
  </radialGradient>
  <radialGradient id="actinide" xlink:href="#ball">
    <stop offset="0%" stop-color="white"/>
    <stop offset="100%" stop-color="#ff99cc"/>
  </radialGradient>
  <radialGradient id="polyatomicnonmetal" xlink:href="#ball">
    <stop offset="0%" stop-color="white"/>
    <stop offset="100%" stop-color="#a0ffa0"/>
  </radialGradient>
  <radialGradient id="noblegas" xlink:href="#ball">
    <stop offset="0%" stop-color="white"/>
    <stop offset="100%" stop-color="#c0ffff"/>
  </radialGradient>
  <radialGradient id="alkali" xlink:href="#ball">
    <stop offset="0%" stop-color="white"/>
    <stop offset="100%" stop-color="#ff6666"/>
  </radialGradient>
  <radialGradient id="alkaline" xlink:href="#ball">
    <stop offset="0%" stop-color="white"/>
    <stop offset="100%" stop-color="#ffdead"/>
  </radialGradient>
  <radialGradient id="metalloid" xlink:href="#ball">
    <stop offset="0%" stop-color="white"/>
    <stop offset="100%" stop-color="#cccc99"/>
  </radialGradient>
  <radialGradient id="diatomicnonmetal" xlink:href="#ball">
    <stop offset="0%" stop-color="white"/>
    <stop offset="100%" stop-color="#e7ff8f"/>
  </radialGradient>
  <radialGradient id="posttransitionmetal" xlink:href="#ball">
    <stop offset="0%" stop-color="white"/>
    <stop offset="100%" stop-color="#cccccc"/>
  </radialGradient>
  <radialGradient id="lanthanide" xlink:href="#ball">
    <stop offset="0%" stop-color="white"/>
    <stop offset="100%" stop-color="#ffbfff"/>
  </radialGradient>
  <radialGradient id="transition" xlink:href="#ball">
    <stop offset="0%" stop-color="white"/>
    <stop offset="100%" stop-color="#ffc0c0"/>
  </radialGradient>
  
  
</defs>

<rect x="10" y="10" width="1290" height="200" class="background0"/>
<rect x="10" y="210" width="1290" height="200" class="background1"/>
<rect x="10" y="410" width="1290" height="200" class="background0"/>
<rect x="10" y="610" width="1290" height="200" class="background1"/>
<rect x="10" y="810" width="1290" height="200" class="background0"/>
<rect x="10" y="1010" width="1290" height="200" class="background1"/>
<rect x="10" y="1210" width="1290" height="200" class="background0"/>
<rect x="10" y="1410" width="1290" height="200" class="background1"/>
<rect x="10" y="1610" width="1290" height="200" class="background0"/>
<rect x="10" y="1810" width="1290" height="200" class="background1"/>
<rect x="10" y="2010" width="1290" height="200" class="background0"/>
<rect x="10" y="2210" width="1290" height="200" class="background1"/>
<rect x="10" y="2410" width="1290" height="200" class="background0"/>
<text x="1290" y="200" class="SideKey">Neptunium</text><text x="1290" y="400" class="SideKey">Uranium</text><text x="1290" y="600" class="SideKey">Protactinium</text><text x="1290" y="800" class="SideKey">Thorium</text><text x="1290" y="1000" class="SideKey">Actinium</text><text x="1290" y="1200" class="SideKey">Radium</text><text x="1290" y="1400" class="SideKey">Francium</text><text x="1290" y="1600" class="SideKey">Radon</text><text x="1290" y="1800" class="SideKey">Astatine</text><text x="1290" y="2000" class="SideKey">Polonium</text><text x="1290" y="2200" class="SideKey">Bismuth</text><text x="1290" y="2400" class="SideKey">Lead</text><text x="1290" y="2600" class="SideKey">Thallium</text><g transform="translate(0,2270)">
<rect x="10" y="90" width="340" height="340" style="fill: white; stroke: black; stroke-width: 2px"/>
<rect x="20" y="100" width="40" height="40" class="actinide"/>
<text x="65" y="130" class="key">Actinide</text>
<rect x="20" y="150" width="40" height="40" class="alkali"/>
<text x="65" y="180" class="key">Alkali metal</text>
<rect x="20" y="200" width="40" height="40" class="alkaline"/>
<text x="65" y="230" class="key">Alkaline earth metal</text>
<rect x="20" y="250" width="40" height="40" class="metalloid"/>
<text x="65" y="280" class="key">Metalloid</text>
<rect x="20" y="300" width="40" height="40" class="posttransitionmetal"/>
<text x="65" y="330" class="key">Post-transition metal</text>
</g>
<circle style="stroke: black; stroke-width: 3.5" cx="110" cy="110" r="100" class="actinide"/>
<text>
	<tspan x="80" y="115" class="su">93</tspan><tspan x="80" dy="-42" class="su">237</tspan><tspan x="80" dy="42" class="symbol">Np</tspan><tspan x="110" dy="1.4em" class="halflife">2.144e+06</tspan><tspan x="110" dy="1em" class="halflife">Years</tspan>
</text>
<line x1="110" y1="210" x2="110" y2="405"/>
<text x="115" y="310" class="ab">α</text>
<circle style="stroke: black; stroke-width: 3.5" cx="110" cy="510" r="100" class="actinide"/>
<text>
	<tspan x="80" y="515" class="su">91</tspan><tspan x="80" dy="-42" class="su">233</tspan><tspan x="80" dy="42" class="symbol">Pa</tspan><tspan x="110" dy="1.4em" class="halflife">26.967</tspan><tspan x="110" dy="1em" class="halflife">Days</tspan>
</text>
<line x1="181" y1="439" x2="236" y2="384"/>
<text x="200" y="450" class="ab">β⁻</text>
<circle style="stroke: black; stroke-width: 3.5" cx="310" cy="310" r="100" class="actinide"/>
<text>
	<tspan x="280" y="315" class="su">92</tspan><tspan x="280" dy="-42" class="su">233</tspan><tspan x="280" dy="42" class="symbol">U</tspan><tspan x="310" dy="1.4em" class="halflife">159200</tspan><tspan x="310" dy="1em" class="halflife">Years</tspan>
</text>
<line x1="310" y1="410" x2="310" y2="605"/>
<text x="315" y="510" class="ab">α</text>
<circle style="stroke: black; stroke-width: 3.5" cx="310" cy="710" r="100" class="actinide"/>
<text>
	<tspan x="280" y="715" class="su">90</tspan><tspan x="280" dy="-42" class="su">229</tspan><tspan x="280" dy="42" class="symbol">Th</tspan><tspan x="310" dy="1.4em" class="halflife">7340</tspan><tspan x="310" dy="1em" class="halflife">Years</tspan>
</text>
<line x1="310" y1="810" x2="310" y2="1005"/>
<text x="315" y="910" class="ab">α</text>
<circle style="stroke: black; stroke-width: 3.5" cx="310" cy="1110" r="100" class="alkaline"/>
<text>
	<tspan x="280" y="1115" class="su">88</tspan><tspan x="280" dy="-42" class="su">225</tspan><tspan x="280" dy="42" class="symbol">Ra</tspan><tspan x="310" dy="1.4em" class="halflife">14.9</tspan><tspan x="310" dy="1em" class="halflife">Days</tspan>
</text>
<line x1="381" y1="1039" x2="436" y2="984"/>
<text x="400" y="1050" class="ab">β⁻</text>
<circle style="stroke: black; stroke-width: 3.5" cx="510" cy="910" r="100" class="actinide"/>
<text>
	<tspan x="480" y="915" class="su">89</tspan><tspan x="480" dy="-42" class="su">225</tspan><tspan x="480" dy="42" class="symbol">Ac</tspan><tspan x="510" dy="1.4em" class="halflife">10</tspan><tspan x="510" dy="1em" class="halflife">Days</tspan>
</text>
<line x1="510" y1="1010" x2="510" y2="1205"/>
<text x="515" y="1110" class="ab">α</text>
<circle style="stroke: black; stroke-width: 3.5" cx="510" cy="1310" r="100" class="alkali"/>
<text>
	<tspan x="480" y="1315" class="su">87</tspan><tspan x="480" dy="-42" class="su">221</tspan><tspan x="480" dy="42" class="symbol">Fr</tspan><tspan x="510" dy="1.4em" class="halflife">4.9</tspan><tspan x="510" dy="1em" class="halflife">Minutes</tspan>
</text>
<line x1="510" y1="1410" x2="510" y2="1605"/>
<text x="515" y="1510" class="ab">α</text>
<circle style="stroke: black; stroke-width: 3.5" cx="510" cy="1710" r="100" class="metalloid"/>
<text>
	<tspan x="480" y="1715" class="su">85</tspan><tspan x="480" dy="-42" class="su">217</tspan><tspan x="480" dy="42" class="symbol">At</tspan><tspan x="510" dy="1.4em" class="halflife">0.0323</tspan><tspan x="510" dy="1em" class="halflife">Seconds</tspan>
</text>
<line x1="510" y1="1810" x2="510" y2="2005"/>
<text x="515" y="1910" class="ab">α</text>
<circle style="stroke: black; stroke-width: 3.5" cx="510" cy="2110" r="100" class="posttransitionmetal"/>
<text>
	<tspan x="480" y="2115" class="su">83</tspan><tspan x="480" dy="-42" class="su">213</tspan><tspan x="480" dy="42" class="symbol">Bi</tspan><tspan x="510" dy="1.4em" class="halflife">45.59</tspan><tspan x="510" dy="1em" class="halflife">Minutes</tspan>
</text>
<line x1="510" y1="2210" x2="510" y2="2405"/>
<text x="515" y="2310" class="ab">α</text>
<circle style="stroke: black; stroke-width: 3.5" cx="510" cy="2510" r="100" class="posttransitionmetal"/>
<text>
	<tspan x="480" y="2515" class="su">81</tspan><tspan x="480" dy="-42" class="su">209</tspan><tspan x="480" dy="42" class="symbol">Tl</tspan><tspan x="510" dy="1.4em" class="halflife">2.161</tspan><tspan x="510" dy="1em" class="halflife">Minutes</tspan>
</text>
<line x1="581" y1="2439" x2="636" y2="2384"/>
<text x="600" y="2450" class="ab">β⁻</text>
<circle style="stroke: black; stroke-width: 3.5" cx="710" cy="2310" r="100" class="posttransitionmetal"/>
<text>
	<tspan x="680" y="2315" class="su">82</tspan><tspan x="680" dy="-42" class="su">209</tspan><tspan x="680" dy="42" class="symbol">Pb</tspan><tspan x="710" dy="1.4em" class="halflife">3.253</tspan><tspan x="710" dy="1em" class="halflife">Hours</tspan>
</text>
<line x1="781" y1="2239" x2="836" y2="2184"/>
<text x="800" y="2250" class="ab">β⁻</text>
<circle style="stroke: black; stroke-width: 3.5" cx="910" cy="2110" r="100" class="posttransitionmetal"/>
<text>
	<tspan x="880" y="2115" class="su">83</tspan><tspan x="880" dy="-42" class="su">209</tspan><tspan x="880" dy="42" class="symbol">Bi</tspan><tspan x="910" dy="1.4em" class="halflife">1.9e+19</tspan><tspan x="910" dy="1em" class="halflife">Years</tspan>
</text>
<line x1="910" y1="2210" x2="910" y2="2405"/>
<text x="915" y="2310" class="ab">α</text>
<circle style="stroke: black; stroke-width: 3.5" cx="910" cy="2510" r="100" class="posttransitionmetal"/>
<text>
	<tspan x="880" y="2515" class="su">81</tspan><tspan x="880" dy="-42" class="su">205</tspan><tspan x="880" dy="42" class="symbol">Tl</tspan><tspan x="910" dy="1.4em" class="halflife">Stable</tspan>
</text>
<line x1="581" y1="2039" x2="636" y2="1984"/>
<text x="600" y="2050" class="ab">β⁻</text>
<circle style="stroke: black; stroke-width: 3.5" cx="710" cy="1910" r="100" class="posttransitionmetal"/>
<text>
	<tspan x="680" y="1915" class="su">84</tspan><tspan x="680" dy="-42" class="su">213</tspan><tspan x="680" dy="42" class="symbol">Po</tspan><tspan x="710" dy="1.4em" class="halflife">4.2e-06</tspan><tspan x="710" dy="1em" class="halflife">Seconds</tspan>
</text>
<line x1="710" y1="2010" x2="710" y2="2205"/>
<text x="715" y="2110" class="ab">α</text>
</svg>