<svg xmlns="http://www.w3.org/2000/svg" xmlns:xlink="http://www.w3.org/1999/xlink" width="1650" height="780" version="1.0">
  <defs>
    <path id="g" fill="#c2c2c2" fill-rule="evenodd" stroke="#000" stroke-dasharray="none" stroke-dashoffset="0" stroke-linecap="round" stroke-linejoin="round" stroke-miterlimit="4" stroke-width="3.112" d="M382.5 454a22.143 8.929 0 1 1-44.286 0 22.143 8.929 0 1 1 44.286 0z" opacity="1"/>
  </defs>
  <defs>
    <linearGradient id="c">
      <stop offset="0" stop-color="#c7e5ef"/>
      <stop offset="1" stop-color="#18bff3"/>
    </linearGradient>
    <linearGradient id="b">
      <stop offset="0" stop-color="#c39a30"/>
      <stop offset="1" stop-color="#908032"/>
    </linearGradient>
    <linearGradient id="a">
      <stop offset="0" stop-color="#ce519f" stop-opacity="0"/>
      <stop offset=".08" stop-color="#ce519f"/>
      <stop offset=".261" stop-color="#2a3382"/>
      <stop offset=".436" stop-color="#66cbd7"/>
      <stop offset=".598" stop-color="#1ab24e"/>
      <stop offset=".755" stop-color="#f8ea29"/>
      <stop offset=".913" stop-color="#e3281f"/>
      <stop offset="1" stop-color="#e3281f" stop-opacity="0"/>
    </linearGradient>
    <linearGradient xlink:href="#a" id="e" x1="778.643" x2="821.714" y1="1488.398" y2="1488.398" gradientTransform="translate(-18 -354)" gradientUnits="userSpaceOnUse"/>
    <linearGradient xlink:href="#b" id="f" x1="536.987" x2="536.987" y1="1478.844" y2="1752.584" gradientTransform="translate(-18 -354)" gradientUnits="userSpaceOnUse"/>
    <linearGradient xlink:href="#c" id="d" x1="533.221" x2="533.221" y1="479.934" y2="1005.436" gradientTransform="matrix(.95427 0 0 1 232.66 402.434)" gradientUnits="userSpaceOnUse"/>
  </defs>
  <g transform="translate(-117.857 -756.434)">
    <path fill="none" fill-rule="evenodd" stroke="#000" stroke-linejoin="round" stroke-width="2" d="M286.722 1406.255h-18.039m18.039-278.571h-18.039m18.039 139.286h-18.039"/>
    <path fill="url(#d)" fill-rule="evenodd" stroke="none" stroke-linecap="round" stroke-linejoin="round" stroke-width="2" d="M284.21 883.367h1467.519v523.478H284.21z"/>
    <path fill="url(#e)" fill-rule="evenodd" stroke="none" stroke-linejoin="round" stroke-width="2" d="M762.179 883.22h40.535v450.892c-2.024 1.986-4.583-.69-6.607 10.893-2.37 21.401-9.568 53.385-24.643 35.179-7.184-6.46-3.909-50.275-5.178-77.858-.494-44.533.335-90.125-4.643-131.071l.536-288.036z"/>
    <path fill="none" fill-rule="evenodd" stroke="#000" stroke-linecap="round" stroke-linejoin="round" stroke-width="2" d="M284.21 883.367h1467.519v523.478H284.21z"/>
    <path fill="#fff" fill-rule="evenodd" stroke="#000" stroke-linecap="round" stroke-linejoin="round" stroke-width="2" d="m420.096 896.872 31.833-13.29 6.43 13.29-2.25 1.287-6.11.428"/>
    <path fill="#c2c2c2" fill-rule="evenodd" stroke="#000" stroke-linecap="round" stroke-linejoin="round" stroke-width="2" d="m526.42 812.627 37.943-7.503-8.789 7.503-31.511 3.001 2.358-3.001z"/>
    <path fill="#c2c2c2" fill-rule="evenodd" stroke="#000" stroke-linecap="round" stroke-linejoin="round" stroke-width="2" d="m554.717 813.056-33.87 2.143-6.002 7.289 35.37-3.859 4.502-5.573z"/>
    <path fill="#c2c2c2" fill-rule="evenodd" stroke="#000" stroke-linecap="round" stroke-linejoin="round" stroke-width="2" d="m548.071 819.915-9.432 6.646-33.226 1.715 10.075-6.431 32.583-1.93z"/>
    <path fill="#c2c2c2" fill-rule="evenodd" stroke="#000" stroke-linecap="round" stroke-linejoin="round" stroke-width="2" d="m538.854 826.56-7.289 7.504-27.867.643.429-6.431 34.727-1.715z"/>
    <path fill="#d6d6d6" fill-rule="evenodd" stroke="#000" stroke-linejoin="round" stroke-width="2" d="m1037.175 884.233 1.01 19.445-7.324 1.516-7.07-20.708 13.384-.253z"/>
    <path fill="#fff" fill-rule="evenodd" stroke="#000" stroke-linejoin="round" stroke-width="2" d="M1081.286 892.148c-3.208 9.254-11.917 15.207-24.643 18.75-5.597-.326-12.328-1.946-21.25-6.072l.536-11.964c15.27-.44 39.206-12.434 45.357-.714z"/>
    <path fill="#fff" fill-rule="evenodd" stroke="#000" stroke-linejoin="round" stroke-width="2" d="m1074.55 877.162 4.799 12.88-11.617 11.363-18.94 4.041-13.638-13.384-.505-5.051 39.901-9.85z"/>
    <path fill="#fff" fill-rule="evenodd" stroke="#000" stroke-linecap="round" stroke-linejoin="round" stroke-width="2" d="M1339.715 1383.753c13.823 6.922 30.716 14.771 33.588 22.981h17.425c4.126-10.584 20.254-16.17 31.315-23.738l-82.328.757z"/>
    <path fill="#ededed" fill-rule="evenodd" stroke="#000" stroke-linecap="round" stroke-linejoin="round" stroke-width="1.047" d="M1240.972 959.601a35.103 10.607 0 1 1-70.205 0 35.103 10.607 0 1 1 70.205 0z" transform="matrix(1.7518 0 0 2.08333 -730.93 -630.948)"/>
    <path fill="none" fill-rule="evenodd" stroke="#000" stroke-linecap="round" stroke-linejoin="round" stroke-width="2" d="m1333.907 1382.238 50.823-63.071 44.384 62.566m-44.447-61.619.695 25.506"/>
    <path fill-rule="evenodd" stroke="none" stroke-linecap="round" stroke-linejoin="round" stroke-width="2" d="M1388.384 1320.676a3.22 3.22 0 1 1-6.44 0 3.22 3.22 0 1 1 6.44 0zm-2.58 47.291a3.724 3.031 0 1 1-7.449 0 3.724 3.031 0 1 1 7.45 0z"/>
    <path fill="url(#f)" fill-rule="evenodd" stroke="#000" stroke-linecap="round" stroke-linejoin="round" stroke-width="2" d="m1751.352 1128.69-1.667-.558-191.22-.515c-6.479-.14-19.771 18.27-20.894 42.268a3457.829 3457.829 0 0 1-15.535 234.792l-260.536 1.031c-11.163-13.37-17.17-31.703-24.286-48.969-7.86-15.721-2.933-80.927-3.571-86.597-4.07-35.5-9.716-39.142-21.429.515-6.86 17.69-11.31 3.531-12.284-19.6-1.082-25.72 1.63-62.595-.573-80.4-4.408-33.22-27.91-8.425-35 50.516-1.997 15.244-7.057 21.51-7.857 0-1.631-51.639-11.465-93.814-32.143-93.814l-130.714-.515c-15.4 0-18.59 3.65-25.679 26.976-4.398 14.473-12.762 47.993-14.143 60.652-1.135 11.694-4.245 21.404-5.892 3.093-1.302-16.053-.338-33.362-3.75-48.196-2.404-17.048-4.56-14.989-5.536 2.32l-6.072 127.319c-.07 66.679-19.043 63.876-32.678 59.793-2.98-57.903-1.488-116.838-2.322-174.741.308-8.724-3.093-31.636-8.035-.516-3.049 32.99-5.457 65.98-11.607 98.969-2.002 10.414-5.74 27.923-6.786 3.608-.48-33.677-3.047-67.354-5.357-101.03-1.383-18.487-4.703-9.72-6.429-4.124-1.996 9.918-4.037 19.728-4.643 32.99l-4.643 136.34c-2.26-57.505-3.78-114.762-4.642-172.938-.615-17.678-4.629-20.328-6.429-1.031-3.262 54.295-4.978 108.59-10.357 162.886l-7.679-55.412c-3.567 24.411-12.345 115.857-16.607 65.721-1.369-19.147-5.052-25.66-11.786 15.464-3.266 30.24-26.09 25.967-25.714-3.866.576-51.934-1.674-112.618-1.735-144.596-.134-70.523-23.174-90.88-38.622-89.424l-359.643.773h-82.624v278.608h1467.12V1128.69z"/>
    <path fill="none" fill-rule="evenodd" stroke="#000" stroke-linejoin="round" stroke-width="2" d="M410.797 1425.608v-19.591m99.373 19.591v-19.591m99.753 19.591v-19.591m100.005 19.591v-19.591m99.374 19.591v-19.591m99.878 19.591v-19.591m99.248 19.591v-19.591m99.879 19.591v-19.591m99.753 19.591v-19.591m99.626 19.591v-19.591m99.626 19.591v-19.591m99.5 19.591v-19.591m99.626 19.591v-19.591m99.879 19.591v-19.591"/>
    <path fill="#fff" fill-rule="evenodd" stroke="#000" stroke-linejoin="round" stroke-width="2" d="m1067.536 853.04 14.464 4.108 3.036 9.821-22.143 18.929-34.286 1.964-5.178-12.678 16.428-26.786 27.679 4.643z"/>
    <path fill="#d6d6d6" fill-rule="evenodd" stroke="#000" stroke-linejoin="round" stroke-width="2" d="m1029.679 872.684 3.262 9.495-4.155 5.683-4.643-8.035 5.536-7.143z"/>
    <path fill="#fff" fill-rule="evenodd" stroke="#000" stroke-linejoin="round" stroke-width="2" d="m1055.862 784.228 4.799 35.103 5.555 6.566 2.526 28.536c1.622 15.142-26.8 23.886-37.376 11.112l-7.07-29.042c.947-4.113 3.26-7.545 1.767-12.88l-8.839-40.658 38.638 1.263z"/>
    <path fill="#fff" fill-rule="evenodd" stroke="#000" stroke-linejoin="round" stroke-width="2" d="m1012.357 781.077 20 85-2.5 9.642-2.5 5.357 7.5 26.786.357 6.429-8.214-10.357-33.571-123.215 18.928.357z"/>
    <path fill="none" fill-rule="evenodd" stroke="#000" stroke-linejoin="round" stroke-width="2" d="m1046.013 887.516 2.273 16.415m17.93-2.526-3.788-16.414m21.536-16.414 3.75 19.107-7.143 4.464-5.357-16.964m-27.143 29.643-10.714.892m6.25-.357-7.5-6.071"/>
    <path fill="#d6d6d6" fill-rule="evenodd" stroke="#000" stroke-linecap="round" stroke-linejoin="round" stroke-width="2" d="m997.536 801.255 8.928 5.357 20.715 87.322.892 9.643-6.607-12.68-23.928-89.642z"/>
    <path fill="#fff" fill-rule="evenodd" stroke="#000" stroke-linecap="round" stroke-linejoin="round" stroke-width="2" d="m993.786 779.827 8.214 9.642h4.643l5.178-8.214-1.25-7.678-5.892-.358-10.893 6.607z"/>
    <path fill="none" fill-rule="evenodd" stroke="#000" stroke-linejoin="round" stroke-width="2" d="m1036.417 787.258 15.657 83.59"/>
    <path fill="#c2c2c2" fill-rule="evenodd" stroke="#000" stroke-linecap="round" stroke-linejoin="round" stroke-width="3.025" d="M905.714 382.214a24.286 11.786 0 1 1-48.571 0 24.286 11.786 0 1 1 48.571 0z" transform="matrix(.80889 .0765 -.05065 .53549 343.11 511.026)"/>
    <path fill="none" fill-rule="evenodd" stroke="#000" stroke-linejoin="round" stroke-width="2" d="m1007 788.577 22.143 88.214"/>
    <path fill="#c2c2c2" fill-rule="evenodd" stroke="#000" stroke-linecap="round" stroke-linejoin="round" stroke-width="2" d="m528.993 834.707-8.789 7.502-17.15-6.216 23.367-5.36 2.572 4.074z"/>
    <path fill="#fff" fill-rule="evenodd" stroke="#000" stroke-linejoin="round" stroke-width="2" d="m520.214 841.077-26.785-14.643-15.715.714c-.72-4.088.331-10.654-2.5-11.786l2.857-3.214.358-5.714-6.429-3.929-1.071 8.929c-3.81-2.328-7.62-1.269-11.429-.357l-21.786 11.428c-4.333 2.381-6.5 4.048-6.071 6.429-2.143-1.2-4.286-1.749-6.429.357l-6.428 8.571 3.571-.357-.357 23.929 8.214.714c2.524 1.37 6.225 5.68 9.643 9.286l-1.428-3.929 29.285 15 12.5 5v2.857L487 893.22l3.929-1.428 6.785 6.428L512 896.434l-3.214 5.357c1.079 3.6 3.687 3.53 7.143 1.428l4.285-4.643 6.786-1.071.714-6.428 1.429-2.143 4.821.178.536-5.893 7.5-7.143-1.786-6.785-2.5 1.785v-7.142l7.857-2.143-10.357-10.357-2.143 7.5-12.857-17.857z"/>
    <path fill="#fff" fill-rule="evenodd" stroke="#000" stroke-linecap="round" stroke-linejoin="round" stroke-width="2" d="m530.75 845.72 2.054 12.767c-7.23 8.166-20.005 8.64-27.947-.535l1.786-12.411 24.107.178z"/>
    <path fill="#fff" fill-rule="evenodd" stroke="#000" stroke-linejoin="round" stroke-width="2" d="M500.036 827.327c1.477 5.797 4.182 11.724-3.036 16.607-15.338 2.004-21.523-1.712-25.536-6.786 1.036-5.987 2.24-10.134 3.75-10.893l24.822 1.072z"/>
    <path fill="none" fill-rule="evenodd" stroke="#000" stroke-linejoin="round" stroke-width="2" d="M470.929 812.148c5.218 5.256 2.923 11.922.714 18.571l-20.357 14.107"/>
    <path fill="none" fill-rule="evenodd" stroke="#000" stroke-linejoin="round" stroke-width="2" d="M436.107 823.755c7.005-.98 15.995-6.264 17.679 4.286.391 5.535-.456 11.071-1.965 16.607l-6.607-.179c-.805-12.045-6.051-12.298-11.071-6.964l-2.857-.357v-8.036m-8.661 8.304h8.84l-.894 24.553m41.161-24.821c-1.705 2.591-1.173 6.692-1.25 10.446m27.232-3.571c1.751 8.452-.423 13.867-11.25 12.59"/>
    <use xlink:href="#g" fill-rule="evenodd" stroke-linecap="round" stroke-linejoin="round" stroke-width="3.112" transform="matrix(.53629 0 0 .77 325.44 496.229)"/>
    <use xlink:href="#g" fill-rule="evenodd" stroke-linecap="round" stroke-linejoin="round" stroke-width="3.112" transform="matrix(.53629 0 0 .77 294.19 477.121)"/>
    <path fill="#fff" fill-rule="evenodd" stroke="#000" stroke-linejoin="round" stroke-width="2" d="m462.714 838.22-1.428 5.892"/>
    <path fill="none" fill-rule="evenodd" stroke="#000" stroke-linejoin="round" stroke-width="2" d="m495.393 860.898-5.714 4.107-33.215-18.75 6.965-2.678 31.964 17.32zm-38.929-14.108-1.785 19.287 33.214 17.32 1.607-18.035m-13.929-7.5-3.392 16.607m32.142-18.035-3.035-.893v19.464l5.178 6.072 6.607-4.465-.535-4.285 4.285-4.465-.178-3.035"/>
    <path fill="none" fill-rule="evenodd" stroke="#000" stroke-linejoin="round" stroke-width="2" d="m516.821 867.684 5 2.857-.178 5.893-8.036.893m-6.786 4.285-1.071 9.465-8.214 3.392v-15.357l3.571-4.643m-2.143 1.429-.357-6.786H494.5l-1.964 1.965-.179 3.75 4.464 3.928 2.143-2.857zm-9.821-.178 2.857-.18 5.179 16.608-.358 4.643"/>
    <path fill="none" fill-rule="evenodd" stroke="#000" stroke-linejoin="round" stroke-width="2" d="m537.536 863.755-24.107 20.714-6.072-3.571m6.072 3.75-.536 11.428 25.178-24.821m-17.678 18.75 4.107 7.5m11.964-23.571 2.857 4.464"/>
    <path fill="#fff" fill-rule="evenodd" stroke="#000" stroke-linejoin="round" stroke-width="2" d="m376.643 866.077 55-3.036 4.286 4.821-59.286-1.785z"/>
    <path fill="#fff" fill-rule="evenodd" stroke="#000" stroke-linejoin="round" stroke-width="2.699" d="M232.143 460.16a9.554 5.268 0 1 1-19.107 0 9.554 5.268 0 1 1 19.107 0z" transform="matrix(.77235 -.29657 .30036 .59562 74.189 653.457)"/>
    <path fill="none" fill-rule="evenodd" stroke="#000" stroke-linecap="round" stroke-linejoin="round" stroke-width="2" d="m383.875 861.344-3.304-5.446m61.786-19.821-6.071 5.714-3.929-3.572m3.839 4.108 8.84 7.678-.268-5.536"/>
    <path fill="none" fill-rule="evenodd" stroke="#000" stroke-linecap="round" stroke-linejoin="round" stroke-width="2" d="m445.393 849.737.09 9.375-9.912-16.428M432 845.809l3.125.089 3.125 21.696m3.929 1.608-.09-10 17.054 11.07-.804 7.054m-3.482-16.606-8.928-1.876m86.548.766-1.641 9.092m-50.382 11.238-.379 7.702m7.072 5.43.757-8.84c2.833-1.99 3.062 2.385 2.904 7.703m-21.465-17.677-1.263 8.207"/>
    <path fill="#c2c2c2" fill-rule="evenodd" stroke="#000" stroke-linecap="round" stroke-linejoin="round" stroke-width="2" d="m349.892 947.115 16.289-13.132 42.805 2.147-13.89 15.152-45.204-4.167zm106.431-49.385-40.943-.429-12.433 8.039 42.444 1.393 10.932-9.003zm-56.163 9.217-15.22 12.97 42.551 1.286 15.542-13.827-42.873-.429zm-15.434 13.291-18.007 12.647 42.444 3.109 17.15-14.363-41.587-1.393z"/>
    <path fill-rule="evenodd" stroke="#000" stroke-linecap="round" stroke-linejoin="round" stroke-width="2" d="m451.286 883.26 10.718-9.11 4.93 1.929-14.148 8.575"/>
    <path fill="none" fill-rule="evenodd" stroke="#000" stroke-linecap="round" stroke-linejoin="round" stroke-width="2" d="m494.91 862.467 6.216 4.394m21.114 5.359h4.395"/>
    <switch stroke="none" font-family="Sans" font-size="22" font-weight="400" style="text-align:start;line-height:129.99999522999999613%;-inkscape-font-specification:Sans">
      <text xml:space="preserve" x="311.327" y="998.695" style="text-align:start;line-height:129.99999522999999613%;-inkscape-font-specification:Sans" systemLanguage="fr"><tspan x="311.327" y="998.695">Rayons gamma, rayons X et rayons UV</tspan><tspan x="311.327" y="1027.295">bloqués par l&apos;atmosphère supérieure</tspan><tspan x="311.327" y="1055.895">(observation préférée depuis l&apos;espace)</tspan></text>
      <text xml:space="preserve" x="311.327" y="998.695" style="text-align:start;line-height:129.99999522999999613%;-inkscape-font-specification:Sans" systemLanguage="es"><tspan x="311.327" y="998.695">Rayos gamma, rayos X y ultravioleta</tspan><tspan x="311.327" y="1027.295">luz absorbida por la atmósfera superior</tspan><tspan x="311.327" y="1055.895">(mejor observadas desde el espacio)</tspan></text>
      <text xml:space="preserve" x="311.327" y="998.695" style="text-align:start;line-height:129.99999522999999613%;-inkscape-font-specification:Sans" systemLanguage="sl"><tspan x="311.327" y="998.695">Gama, rentgensko in ultravijolično </tspan><tspan x="311.327" y="1027.295">sevanje atmosfera ne prepušča</tspan><tspan x="311.327" y="1055.895">(najbolje opazujemo iz vesolja).</tspan></text>
      <text xml:space="preserve" x="311.327" y="998.695" style="text-align:start;line-height:129.99999522999999613%;-inkscape-font-specification:Sans" systemLanguage="uk"><tspan x="311.327" y="998.695">Гамма- та рентгенівські промені, уль-</tspan><tspan x="311.327" y="1027.295">трафіолет блокуються верхніми шара-</tspan><tspan x="311.327" y="1055.895">ми атмосфери (але видимі у космосі).</tspan></text>
      <text xml:space="preserve" x="311.327" y="998.695" style="text-align:start;line-height:129.99999522999999613%;-inkscape-font-specification:Sans" systemLanguage="ca"><tspan x="311.327" y="998.695">Raigs gamma, raigs X i llum ultraviolada </tspan><tspan x="311.327" y="1027.295">bloquejats per l&apos;atmosfera superior </tspan><tspan x="311.327" y="1055.895">(millor observat des de l&apos;espai)</tspan></text>
      <text xml:space="preserve" x="311.327" y="998.695" style="text-align:start;line-height:129.99999522999999613%;-inkscape-font-specification:Sans" systemLanguage="ml"><tspan x="311.327" y="998.695">ഗാമതരംഗം, എക്സ്-തരംഗം, അൾട്രാവയലറ്റ് തരംഗം</tspan><tspan x="311.327" y="1027.295">എന്നിവ അന്തരീക്ഷം തടയും.</tspan><tspan x="311.327" y="1055.895">(ബഹിരാകാശത്തുനിന്ന് നല്ല രീതിയിൽ നിരീക്ഷിക്കാം.)</tspan></text>
      <text xml:space="preserve" x="311.327" y="998.695" style="text-align:start;line-height:129.99999522999999613%;-inkscape-font-specification:Sans"><tspan x="311.327" y="998.695">Gamma rays, X-rays and ultraviolet</tspan><tspan x="311.327" y="1027.295">light blocked by the upper atmosphere</tspan><tspan x="311.327" y="1055.895">(best observed from space).</tspan></text>
    </switch>
    <switch stroke="none" font-family="Sans" font-size="22" font-weight="400" style="text-align:start;line-height:129.99999522999999613%;-inkscape-font-specification:Sans">
      <text xml:space="preserve" x="813.398" y="960.471" style="text-align:start;line-height:129.99999522999999613%;-inkscape-font-specification:Sans" systemLanguage="fr"><tspan x="813.398" y="960.471">Lumière visible</tspan><tspan x="813.398" y="989.071">depuis la Terre</tspan><tspan x="813.398" y="1017.671">partiellement </tspan><tspan x="813.398" y="1046.271">altérée par</tspan><tspan x="813.398" y="1074.871">l&apos;atmosphère</tspan><tspan x="813.398" y="1103.471"> </tspan></text>
      <text xml:space="preserve" x="813.398" y="960.471" style="text-align:start;line-height:129.99999522999999613%;-inkscape-font-specification:Sans" systemLanguage="es"><tspan x="813.398" y="960.471">Luz Visible</tspan><tspan x="813.398" y="989.071">observable</tspan><tspan x="813.398" y="1017.671">desde la Tierra,</tspan><tspan x="813.398" y="1046.271">con un poco</tspan><tspan x="813.398" y="1074.871">de dispersión</tspan><tspan x="813.398" y="1103.471">atmosférica</tspan></text>
      <text xml:space="preserve" x="813.398" y="960.471" style="text-align:start;line-height:129.99999522999999613%;-inkscape-font-specification:Sans" systemLanguage="sl"><tspan x="813.398" y="960.471">Vidno svetlobo</tspan><tspan x="813.398" y="989.071">opazujemo</tspan><tspan x="813.398" y="1017.671">z Zemlje,</tspan><tspan x="813.398" y="1046.271">atmosfera</tspan><tspan x="813.398" y="1074.871">slike delno</tspan><tspan x="813.398" y="1103.471">popači.</tspan></text>
      <text xml:space="preserve" x="813.398" y="960.471" style="text-align:start;line-height:129.99999522999999613%;-inkscape-font-specification:Sans" systemLanguage="uk"><tspan x="813.398" y="960.471">Видиме світло</tspan><tspan x="813.398" y="989.071">спостерігаєть-</tspan><tspan x="813.398" y="1017.671">ся з Землі</tspan><tspan x="813.398" y="1046.271">з деяким</tspan><tspan x="813.398" y="1074.871">викривленням</tspan><tspan x="813.398" y="1103.471">атмосферою.</tspan></text>
      <text xml:space="preserve" x="813.398" y="960.471" style="text-align:start;line-height:129.99999522999999613%;-inkscape-font-specification:Sans" systemLanguage="ca"><tspan x="813.398" y="960.471">Llum visible</tspan><tspan x="813.398" y="989.071">observable des</tspan><tspan x="813.398" y="1017.671">de la Terra </tspan><tspan x="813.398" y="1046.271">amb certa</tspan><tspan x="813.398" y="1074.871">distorsió</tspan><tspan x="813.398" y="1103.471">atmosfèrica</tspan></text>
      <text xml:space="preserve" x="813.398" y="960.471" style="text-align:start;line-height:129.99999522999999613%;-inkscape-font-specification:Sans" systemLanguage="ml"><tspan x="813.398" y="960.471">ദൃശ്യപ്രകാശം</tspan><tspan x="813.398" y="989.071">ഭൂമിയിൽനിന്ന്</tspan><tspan x="813.398" y="1017.671">നിരീക്ഷിക്കാം.</tspan><tspan x="813.398" y="1046.271"> </tspan><tspan x="813.398" y="1074.871"> </tspan><tspan x="813.398" y="1103.471"> </tspan></text>
      <text xml:space="preserve" x="813.398" y="960.471" style="text-align:start;line-height:129.99999522999999613%;-inkscape-font-specification:Sans"><tspan x="813.398" y="960.471">Visible light</tspan><tspan x="813.398" y="989.071">observable</tspan><tspan x="813.398" y="1017.671">from Earth,</tspan><tspan x="813.398" y="1046.271">with some</tspan><tspan x="813.398" y="1074.871">atmospheric</tspan><tspan x="813.398" y="1103.471">distortion.</tspan></text>
    </switch>
    <switch stroke="none" font-family="Sans" font-size="22" font-weight="400" style="text-align:start;line-height:129.99999522999999613%;-inkscape-font-specification:Sans">
      <text xml:space="preserve" x="989.229" y="942.282" style="text-align:start;line-height:129.99999522999999613%;-inkscape-font-specification:Sans" systemLanguage="fr"><tspan x="989.229" y="942.282">Plus grande part du</tspan><tspan x="989.229" y="970.882">spectre infrarouge</tspan><tspan x="989.229" y="999.482">absorbée par les</tspan><tspan x="989.229" y="1028.082">gaz atmosphériques</tspan><tspan x="989.229" y="1056.682">(observation</tspan><tspan x="989.229" y="1085.282">préférée</tspan><tspan x="989.229" y="1113.882">depuis l&apos;espace)</tspan></text>
      <text xml:space="preserve" x="989.229" y="942.282" style="text-align:start;line-height:129.99999522999999613%;-inkscape-font-specification:Sans" systemLanguage="es"><tspan x="989.229" y="942.282">Mayoría del</tspan><tspan x="989.229" y="970.882">espectro infrarrojo</tspan><tspan x="989.229" y="999.482">absorbido por</tspan><tspan x="989.229" y="1028.082">gases atmosféricos</tspan><tspan x="989.229" y="1056.682">(mejor observadas</tspan><tspan x="989.229" y="1085.282">desde el espacio)</tspan><tspan x="989.229" y="1113.882">from space).</tspan></text>
      <text xml:space="preserve" x="989.229" y="942.282" style="text-align:start;line-height:129.99999522999999613%;-inkscape-font-specification:Sans" systemLanguage="sl"><tspan x="989.229" y="942.282">Večino</tspan><tspan x="989.229" y="970.882">infrardečega spektra</tspan><tspan x="989.229" y="999.482">absorbirajo</tspan><tspan x="989.229" y="1028.082">plini v </tspan><tspan x="989.229" y="1056.682">atmosferi</tspan><tspan x="989.229" y="1085.282">(najbolje opazujemo</tspan><tspan x="989.229" y="1113.882">iz vesolja).</tspan></text>
      <text xml:space="preserve" x="989.229" y="942.282" style="text-align:start;line-height:129.99999522999999613%;-inkscape-font-specification:Sans" systemLanguage="uk"><tspan x="989.229" y="942.282">Більша частина</tspan><tspan x="989.229" y="970.882">інфрачервоного</tspan><tspan x="989.229" y="999.482">спектру поглина-</tspan><tspan x="989.229" y="1028.082">ється атмосферними</tspan><tspan x="989.229" y="1056.682">газами (але видима</tspan><tspan x="989.229" y="1085.282">у космосі).</tspan><tspan x="989.229" y="1113.882"> </tspan></text>
      <text xml:space="preserve" x="989.229" y="942.282" style="text-align:start;line-height:129.99999522999999613%;-inkscape-font-specification:Sans" systemLanguage="ca"><tspan x="989.229" y="942.282">La major part</tspan><tspan x="989.229" y="970.882">de l&apos;espectre</tspan><tspan x="989.229" y="999.482">absorbit pels</tspan><tspan x="989.229" y="1028.082">gasos atmosfèrics </tspan><tspan x="989.229" y="1056.682">(millor observat</tspan><tspan x="989.229" y="1085.282">des de l&apos;espai)</tspan><tspan x="989.229" y="1113.882"> </tspan></text>
      <text xml:space="preserve" x="989.229" y="942.282" style="text-align:start;line-height:129.99999522999999613%;-inkscape-font-specification:Sans" systemLanguage="ml"><tspan x="989.229" y="942.282">ഇൻഫ്രാറെഡ്</tspan><tspan x="989.229" y="970.882">തരംഗങ്ങൾ</tspan><tspan x="989.229" y="999.482">ഭൂമിയുടെ അന്തരീക്ഷം</tspan><tspan x="989.229" y="1028.082">ആഗിരണം ചെയ്യും. </tspan><tspan x="989.229" y="1056.682">ബഹിരാകാശത്തുനിന്ന്</tspan><tspan x="989.229" y="1085.282">നിരീക്ഷിക്കാം</tspan><tspan x="989.229" y="1113.882"> </tspan></text>
      <text xml:space="preserve" x="989.229" y="942.282" style="text-align:start;line-height:129.99999522999999613%;-inkscape-font-specification:Sans"><tspan x="989.229" y="942.282">Most of the</tspan><tspan x="989.229" y="970.882">infrared spectrum</tspan><tspan x="989.229" y="999.482">absorbed by</tspan><tspan x="989.229" y="1028.082">atmospheric</tspan><tspan x="989.229" y="1056.682">gases (best</tspan><tspan x="989.229" y="1085.282">observed</tspan><tspan x="989.229" y="1113.882">from space).</tspan></text>
    </switch>
    <switch stroke="none" font-family="Sans" font-size="22" font-weight="400" style="text-align:start;line-height:129.99999522999999613%;-inkscape-font-specification:Sans">
      <text xml:space="preserve" x="1241.339" y="979.873" style="text-align:start;line-height:129.99999522999999613%;-inkscape-font-specification:Sans" systemLanguage="fr"><tspan x="1241.339" y="979.873">Ondes radio observables</tspan><tspan x="1241.339" y="1008.473">depuis la Terre</tspan></text>
      <text xml:space="preserve" x="1241.339" y="979.873" style="text-align:start;line-height:129.99999522999999613%;-inkscape-font-specification:Sans" systemLanguage="es"><tspan x="1241.339" y="979.873">Ondas de radio</tspan><tspan x="1241.339" y="1008.473">observables desde la Tierra</tspan></text>
      <text xml:space="preserve" x="1241.339" y="979.873" style="text-align:start;line-height:129.99999522999999613%;-inkscape-font-specification:Sans" systemLanguage="sl"><tspan x="1241.339" y="979.873">Radijsko sevanje </tspan><tspan x="1241.339" y="1008.473">opazujemo z Zemlje.</tspan></text>
      <text xml:space="preserve" x="1241.339" y="979.873" style="text-align:start;line-height:129.99999522999999613%;-inkscape-font-specification:Sans" systemLanguage="uk"><tspan x="1241.339" y="979.873">Радіохвилі спосте-</tspan><tspan x="1241.339" y="1008.473">рігаються із Землі.</tspan></text>
      <text xml:space="preserve" x="1241.339" y="979.873" style="text-align:start;line-height:129.99999522999999613%;-inkscape-font-specification:Sans" systemLanguage="ca"><tspan x="1241.339" y="979.873">Ones de ràdio observables</tspan><tspan x="1241.339" y="1008.473">des de la Terra</tspan></text>
      <text xml:space="preserve" x="1241.339" y="979.873" style="text-align:start;line-height:129.99999522999999613%;-inkscape-font-specification:Sans" systemLanguage="ml"><tspan x="1241.339" y="979.873">റേഡിയോ തംരംഗങ്ങൾ</tspan><tspan x="1241.339" y="1008.473">ഭൂമിയിൽനിന്ന് നിരീക്ഷിക്കാം</tspan></text>
      <text xml:space="preserve" x="1241.339" y="979.873" style="text-align:start;line-height:129.99999522999999613%;-inkscape-font-specification:Sans"><tspan x="1241.339" y="979.873">Radio waves observable</tspan><tspan x="1241.339" y="1008.473">from Earth.</tspan></text>
    </switch>
    <switch stroke="none" font-family="Sans" font-size="22" font-weight="400" style="text-align:start;line-height:129.99999522999999613%;-inkscape-font-specification:Sans">
      <text xml:space="preserve" x="1555.41" y="959.258" style="text-align:start;line-height:129.99999522999999613%;-inkscape-font-specification:Sans" systemLanguage="fr"><tspan x="1555.41" y="959.258">Ondes longues</tspan><tspan x="1555.41" y="987.858">ondes radio</tspan><tspan x="1555.41" y="1016.458">bloquées</tspan></text>
      <text xml:space="preserve" x="1555.41" y="959.258" style="text-align:start;line-height:129.99999522999999613%;-inkscape-font-specification:Sans" systemLanguage="es"><tspan x="1555.41" y="959.258">Ondas de</tspan><tspan x="1555.41" y="987.858">radio largas</tspan><tspan x="1555.41" y="1016.458">bloqueadas</tspan></text>
      <text xml:space="preserve" x="1555.41" y="959.258" style="text-align:start;line-height:129.99999522999999613%;-inkscape-font-specification:Sans" systemLanguage="sl"><tspan x="1555.41" y="959.258">Atmosfera ne</tspan><tspan x="1555.41" y="987.858">prepušča daljših</tspan><tspan x="1555.41" y="1016.458">radijskih valov.</tspan></text>
      <text xml:space="preserve" x="1555.41" y="959.258" style="text-align:start;line-height:129.99999522999999613%;-inkscape-font-specification:Sans" systemLanguage="uk"><tspan x="1555.41" y="959.258">Довгі радіохвилі</tspan><tspan x="1555.41" y="987.858">поглинаються.</tspan><tspan x="1555.41" y="1016.458"> </tspan></text>
      <text xml:space="preserve" x="1555.41" y="959.258" style="text-align:start;line-height:129.99999522999999613%;-inkscape-font-specification:Sans" systemLanguage="ca"><tspan x="1555.41" y="959.258">Ones de ràdio de</tspan><tspan x="1555.41" y="987.858">longitud d&apos;ona</tspan><tspan x="1555.41" y="1016.458">llarga bloquejades</tspan></text>
      <text xml:space="preserve" x="1555.41" y="959.258" style="text-align:start;line-height:129.99999522999999613%;-inkscape-font-specification:Sans" systemLanguage="ml"><tspan x="1555.41" y="959.258">തരംഗദൈർഘ്യമേറിയ</tspan><tspan x="1555.41" y="987.858">റേഡിയോതരംഗങ്ങൾ </tspan><tspan x="1555.41" y="1016.458">അന്തരീക്ഷം തടയും.</tspan></text>
      <text xml:space="preserve" x="1555.41" y="959.258" style="text-align:start;line-height:129.99999522999999613%;-inkscape-font-specification:Sans"><tspan x="1555.41" y="959.258">Long-wavelength</tspan><tspan x="1555.41" y="987.858">radio waves</tspan><tspan x="1555.41" y="1016.458">blocked.</tspan></text>
    </switch>
    <switch stroke="none" font-family="Sans" font-size="22" font-weight="400" style="text-align:end;line-height:100%;-inkscape-font-specification:Sans" text-anchor="end">
      <text xml:space="preserve" x="263.537" y="1413.699" style="text-align:end;line-height:100%;-inkscape-font-specification:Sans"><tspan x="263.537" y="1413.699">0 %</tspan></text>
    </switch>
    <switch stroke="none" font-family="Sans" font-size="22" font-weight="400" style="text-align:end;line-height:100%;-inkscape-font-specification:Sans" text-anchor="end">
      <text xml:space="preserve" x="263.537" y="1275.46" style="text-align:end;line-height:100%;-inkscape-font-specification:Sans"><tspan x="263.537" y="1275.46">50 %</tspan></text>
    </switch>
    <switch stroke="none" font-family="Sans" font-size="22" font-weight="400" style="text-align:end;line-height:100%;-inkscape-font-specification:Sans" text-anchor="end">
      <text xml:space="preserve" x="263.537" y="1136.007" style="text-align:end;line-height:100%;-inkscape-font-specification:Sans"><tspan x="263.537" y="1136.007">100 %</tspan></text>
    </switch>
    <switch stroke="none" font-family="Sans" font-size="18" font-weight="400" style="text-align:center;line-height:100%;-inkscape-font-specification:Sans" text-anchor="middle">
      <text xml:space="preserve" x="410.265" y="1445.834" style="text-align:center;line-height:100%;-inkscape-font-specification:Sans" systemLanguage="uk"><tspan x="410.265" y="1445.834">0,1 нм</tspan></text>
      <text xml:space="preserve" x="410.265" y="1445.834" style="text-align:center;line-height:100%;-inkscape-font-specification:Sans"><tspan x="410.265" y="1445.834">0.1 nm</tspan></text>
    </switch>
    <switch stroke="none" font-family="Sans" font-size="18" font-weight="400" style="text-align:center;line-height:100%;-inkscape-font-specification:Sans" text-anchor="middle">
      <text xml:space="preserve" x="508.488" y="1445.834" style="text-align:center;line-height:100%;-inkscape-font-specification:Sans" systemLanguage="uk"><tspan x="508.488" y="1445.834">1 нм</tspan></text>
      <text xml:space="preserve" x="508.488" y="1445.834" style="text-align:center;line-height:100%;-inkscape-font-specification:Sans"><tspan x="508.488" y="1445.834">1 nm</tspan></text>
    </switch>
    <switch stroke="none" font-family="Sans" font-size="18" font-weight="400" style="text-align:center;line-height:100%;-inkscape-font-specification:Sans" text-anchor="middle">
      <text xml:space="preserve" x="610.349" y="1445.834" style="text-align:center;line-height:100%;-inkscape-font-specification:Sans" systemLanguage="uk"><tspan x="610.349" y="1445.834">10 нм</tspan></text>
      <text xml:space="preserve" x="610.349" y="1445.834" style="text-align:center;line-height:100%;-inkscape-font-specification:Sans"><tspan x="610.349" y="1445.834">10 nm</tspan></text>
    </switch>
    <switch stroke="none" font-family="Sans" font-size="18" font-weight="400" style="text-align:center;line-height:100%;-inkscape-font-specification:Sans" text-anchor="middle">
      <text xml:space="preserve" x="708.572" y="1445.834" style="text-align:center;line-height:100%;-inkscape-font-specification:Sans" systemLanguage="uk"><tspan x="708.572" y="1445.834">100 нм</tspan></text>
      <text xml:space="preserve" x="708.572" y="1445.834" style="text-align:center;line-height:100%;-inkscape-font-specification:Sans"><tspan x="708.572" y="1445.834">100 nm</tspan></text>
    </switch>
    <switch stroke="none" font-family="Sans" font-size="18" font-weight="400" style="text-align:center;line-height:100%;-inkscape-font-specification:Sans" text-anchor="middle">
      <text xml:space="preserve" x="809.22" y="1445.834" style="text-align:center;line-height:100%;-inkscape-font-specification:Sans" systemLanguage="uk"><tspan x="809.22" y="1445.834">1 мкм</tspan></text>
      <text xml:space="preserve" x="809.22" y="1445.834" style="text-align:center;line-height:100%;-inkscape-font-specification:Sans"><tspan x="809.22" y="1445.834">1 µm</tspan></text>
    </switch>
    <switch stroke="none" font-family="Sans" font-size="18" font-weight="400" style="text-align:center;line-height:100%;-inkscape-font-specification:Sans" text-anchor="middle">
      <text xml:space="preserve" x="909.868" y="1445.834" style="text-align:center;line-height:100%;-inkscape-font-specification:Sans" systemLanguage="uk"><tspan x="909.868" y="1445.834">10 мкм</tspan></text>
      <text xml:space="preserve" x="909.868" y="1445.834" style="text-align:center;line-height:100%;-inkscape-font-specification:Sans"><tspan x="909.868" y="1445.834">10 µm</tspan></text>
    </switch>
    <switch stroke="none" font-family="Sans" font-size="18" font-weight="400" style="text-align:center;line-height:100%;-inkscape-font-specification:Sans" text-anchor="middle">
      <text xml:space="preserve" x="1008.698" y="1445.834" style="text-align:center;line-height:100%;-inkscape-font-specification:Sans" systemLanguage="uk"><tspan x="1008.698" y="1445.834">100 мкм</tspan></text>
      <text xml:space="preserve" x="1008.698" y="1445.834" style="text-align:center;line-height:100%;-inkscape-font-specification:Sans"><tspan x="1008.698" y="1445.834">100 µm</tspan></text>
    </switch>
    <switch stroke="none" font-family="Sans" font-size="18" font-weight="400" style="text-align:center;line-height:100%;-inkscape-font-specification:Sans" text-anchor="middle">
      <text xml:space="preserve" x="1108.133" y="1445.834" style="text-align:center;line-height:100%;-inkscape-font-specification:Sans" systemLanguage="uk"><tspan x="1108.133" y="1445.834">1 мм</tspan></text>
      <text xml:space="preserve" x="1108.133" y="1445.834" style="text-align:center;line-height:100%;-inkscape-font-specification:Sans"><tspan x="1108.133" y="1445.834">1 mm</tspan></text>
    </switch>
    <switch stroke="none" font-family="Sans" font-size="18" font-weight="400" style="text-align:center;line-height:100%;-inkscape-font-specification:Sans" text-anchor="middle">
      <text xml:space="preserve" x="1208.456" y="1445.834" style="text-align:center;line-height:100%;-inkscape-font-specification:Sans" systemLanguage="uk"><tspan x="1208.456" y="1445.834">1 см</tspan></text>
      <text xml:space="preserve" x="1208.456" y="1445.834" style="text-align:center;line-height:100%;-inkscape-font-specification:Sans"><tspan x="1208.456" y="1445.834">1 cm</tspan></text>
    </switch>
    <switch stroke="none" font-family="Sans" font-size="18" font-weight="400" style="text-align:center;line-height:100%;-inkscape-font-specification:Sans" text-anchor="middle">
      <text xml:space="preserve" x="1307.285" y="1445.834" style="text-align:center;line-height:100%;-inkscape-font-specification:Sans" systemLanguage="uk"><tspan x="1307.285" y="1445.834">10 см</tspan></text>
      <text xml:space="preserve" x="1307.285" y="1445.834" style="text-align:center;line-height:100%;-inkscape-font-specification:Sans"><tspan x="1307.285" y="1445.834">10 cm</tspan></text>
    </switch>
    <switch stroke="none" font-family="Sans" font-size="18" font-weight="400" style="text-align:center;line-height:100%;-inkscape-font-specification:Sans" text-anchor="middle">
      <text xml:space="preserve" x="1406.115" y="1445.834" style="text-align:center;line-height:100%;-inkscape-font-specification:Sans" systemLanguage="uk"><tspan x="1406.115" y="1445.834">1 м</tspan></text>
      <text xml:space="preserve" x="1406.115" y="1445.834" style="text-align:center;line-height:100%;-inkscape-font-specification:Sans"><tspan x="1406.115" y="1445.834">1 m</tspan></text>
    </switch>
    <switch stroke="none" font-family="Sans" font-size="18" font-weight="400" style="text-align:center;line-height:100%;-inkscape-font-specification:Sans" text-anchor="middle">
      <text xml:space="preserve" x="1507.369" y="1445.834" style="text-align:center;line-height:100%;-inkscape-font-specification:Sans" systemLanguage="uk"><tspan x="1507.369" y="1445.834">10 м</tspan></text>
      <text xml:space="preserve" x="1507.369" y="1445.834" style="text-align:center;line-height:100%;-inkscape-font-specification:Sans"><tspan x="1507.369" y="1445.834">10 m</tspan></text>
    </switch>
    <switch stroke="none" font-family="Sans" font-size="18" font-weight="400" style="text-align:center;line-height:100%;-inkscape-font-specification:Sans" text-anchor="middle">
      <text xml:space="preserve" x="1606.199" y="1445.834" style="text-align:center;line-height:100%;-inkscape-font-specification:Sans" systemLanguage="uk"><tspan x="1606.199" y="1445.834">100 м</tspan></text>
      <text xml:space="preserve" x="1606.199" y="1445.834" style="text-align:center;line-height:100%;-inkscape-font-specification:Sans"><tspan x="1606.199" y="1445.834">100 m</tspan></text>
    </switch>
    <switch stroke="none" font-family="Sans" font-size="18" font-weight="400" style="text-align:center;line-height:100%;-inkscape-font-specification:Sans" text-anchor="middle">
      <text xml:space="preserve" x="1706.241" y="1445.834" style="text-align:center;line-height:100%;-inkscape-font-specification:Sans" systemLanguage="uk"><tspan x="1706.241" y="1445.834">1 км</tspan></text>
      <text xml:space="preserve" x="1706.241" y="1445.834" style="text-align:center;line-height:100%;-inkscape-font-specification:Sans"><tspan x="1706.241" y="1445.834">1 km</tspan></text>
    </switch>
    <switch stroke="none" font-family="Sans" font-size="22" font-weight="400" style="text-align:start;line-height:100%;-inkscape-font-specification:Sans">
      <text xml:space="preserve" x="923.92" y="1502.037" style="text-align:start;line-height:100%;-inkscape-font-specification:Sans" systemLanguage="fr"><tspan x="923.92" y="1502.037" font-weight="700" style="-inkscape-font-specification:Sans Bold">Longueur d&apos;onde</tspan></text>
      <text xml:space="preserve" x="923.92" y="1502.037" style="text-align:start;line-height:100%;-inkscape-font-specification:Sans" systemLanguage="es"><tspan x="923.92" y="1502.037" font-weight="700" style="-inkscape-font-specification:Sans Bold">Longitud de Onda</tspan></text>
      <text xml:space="preserve" x="923.92" y="1502.037" style="text-align:start;line-height:100%;-inkscape-font-specification:Sans" systemLanguage="sl"><tspan x="923.92" y="1502.037" font-weight="700" style="-inkscape-font-specification:Sans Bold">valovna dolžina </tspan></text>
      <text xml:space="preserve" x="923.92" y="1502.037" style="text-align:start;line-height:100%;-inkscape-font-specification:Sans" systemLanguage="uk"><tspan x="923.92" y="1502.037" font-weight="700" style="-inkscape-font-specification:Sans Bold">Довжина хвилі</tspan></text>
      <text xml:space="preserve" x="923.92" y="1502.037" style="text-align:start;line-height:100%;-inkscape-font-specification:Sans" systemLanguage="ca"><tspan x="923.92" y="1502.037" font-weight="700" style="-inkscape-font-specification:Sans Bold">Longitud d&apos;ona</tspan></text>
      <text xml:space="preserve" x="923.92" y="1502.037" style="text-align:start;line-height:100%;-inkscape-font-specification:Sans" systemLanguage="ml"><tspan x="923.92" y="1502.037" font-weight="700" style="-inkscape-font-specification:Sans Bold">തരംഗദൈർഘ്യം</tspan></text>
      <text xml:space="preserve" x="923.92" y="1502.037" style="text-align:start;line-height:100%;-inkscape-font-specification:Sans"><tspan x="923.92" y="1502.037" font-weight="700" style="-inkscape-font-specification:Sans Bold">Wavelength</tspan></text>
    </switch>
    <switch stroke="none" font-family="Sans" font-size="22" font-weight="400" style="text-align:center;line-height:100%;-inkscape-font-specification:Sans" text-anchor="middle">
      <text xml:space="preserve" x="-1265.945" y="150.028" style="text-align:center;line-height:100%;-inkscape-font-specification:Sans" systemLanguage="fr" transform="rotate(-90)"><tspan x="-1265.945" y="150.028" font-weight="700" style="-inkscape-font-specification:Sans Bold">Opacité</tspan><tspan x="-1265.945" y="172.028" font-weight="700" style="-inkscape-font-specification:Sans Bold">atmosphérique</tspan></text>
      <text xml:space="preserve" x="-1265.945" y="150.028" style="text-align:center;line-height:100%;-inkscape-font-specification:Sans" systemLanguage="es" transform="rotate(-90)"><tspan x="-1265.945" y="150.028" font-weight="700" style="-inkscape-font-specification:Sans Bold">Opacidad</tspan><tspan x="-1265.945" y="172.028" font-weight="700" style="-inkscape-font-specification:Sans Bold">atmosférica</tspan></text>
      <text xml:space="preserve" x="-1265.945" y="150.028" style="text-align:center;line-height:100%;-inkscape-font-specification:Sans" systemLanguage="sl" transform="rotate(-90)"><tspan x="-1265.945" y="150.028" font-weight="700" style="-inkscape-font-specification:Sans Bold">Atmosferska</tspan><tspan x="-1265.945" y="172.028" font-weight="700" style="-inkscape-font-specification:Sans Bold">neprozornost</tspan></text>
      <text xml:space="preserve" x="-1265.945" y="150.028" style="text-align:center;line-height:100%;-inkscape-font-specification:Sans" systemLanguage="uk" transform="rotate(-90)"><tspan x="-1265.945" y="150.028" font-weight="700" style="-inkscape-font-specification:Sans Bold">Непрозорість</tspan><tspan x="-1265.945" y="172.028" font-weight="700" style="-inkscape-font-specification:Sans Bold">атмосфери</tspan></text>
      <text xml:space="preserve" x="-1265.945" y="150.028" style="text-align:center;line-height:100%;-inkscape-font-specification:Sans" systemLanguage="ca" transform="rotate(-90)"><tspan x="-1265.945" y="150.028" font-weight="700" style="-inkscape-font-specification:Sans Bold">Opacitat</tspan><tspan x="-1265.945" y="172.028" font-weight="700" style="-inkscape-font-specification:Sans Bold">atmosfèrica</tspan></text>
      <text xml:space="preserve" x="-1265.945" y="150.028" style="text-align:center;line-height:100%;-inkscape-font-specification:Sans" systemLanguage="ml" transform="rotate(-90)"><tspan x="-1265.945" y="150.028" font-weight="700" style="-inkscape-font-specification:Sans Bold">അന്തരീക്ഷം തടയുന്ന </tspan><tspan x="-1265.945" y="172.028" font-weight="700" style="-inkscape-font-specification:Sans Bold">അളവ്</tspan></text>
      <text xml:space="preserve" x="-1265.945" y="150.028" style="text-align:center;line-height:100%;-inkscape-font-specification:Sans" transform="rotate(-90)"><tspan x="-1265.945" y="150.028" font-weight="700" style="-inkscape-font-specification:Sans Bold">Atmospheric</tspan><tspan x="-1265.945" y="172.028" font-weight="700" style="-inkscape-font-specification:Sans Bold">opacity</tspan></text>
    </switch>
  </g>
</svg>
