<svg xmlns="http://www.w3.org/2000/svg" width="1509" height="1172" viewBox="0 0 1509 1172">
  <g fill="none" fill-rule="evenodd">
    <rect width="386" height="162" x="33" y="37" fill="#C3B9FF" fill-opacity=".296" stroke="#C3B9FF" stroke-width="4" rx="20"/>
    <text fill="#1E2563" font-family="Courier" font-size="30">
            <tspan x="64" y="111">Src: load-balancer</tspan>
            <tspan x="64" y="147">Dst: hello-world</tspan>
        </text>
    <path fill="#C3E0FF" fill-opacity=".5" d="M102 324c0 16.694 55.74 30.228 124.5 30.228S351 340.694 351 324v81.772C351 422.467 295.26 436 226.5 436S102 422.467 102 405.772z"/>
    <path fill="#95C6FB" d="M102 324.5c0-16.845 55.74-30.5 124.5-30.5S351 307.655 351 324.5 295.26 355 226.5 355 102 341.345 102 324.5"/>
    <path stroke="#C7E2FF" stroke-width="4" d="M351 324.18c0 16.667-55.74 30.179-124.5 30.179S102 340.847 102 324.179 157.74 294 226.5 294 351 307.512 351 324.18v81.64c0 16.668-55.74 30.18-124.5 30.18S102 422.488 102 405.82v-81.64"/>
    <path fill="#C3E0FF" fill-opacity=".5" d="M515 319c0 16.694 55.74 30.228 124.5 30.228S764 335.694 764 319v81.772C764 417.467 708.26 431 639.5 431S515 417.467 515 400.772z"/>
    <path fill="#95C6FB" d="M515 319.5c0-16.845 55.74-30.5 124.5-30.5S764 302.655 764 319.5 708.26 350 639.5 350 515 336.345 515 319.5"/>
    <path stroke="#C7E2FF" stroke-width="4" d="M764 319.18c0 16.667-55.74 30.179-124.5 30.179S515 335.847 515 319.179 570.74 289 639.5 289 764 302.512 764 319.18v81.64c0 16.668-55.74 30.18-124.5 30.18S515 417.488 515 400.82v-81.64"/>
    <path fill="#C3E0FF" fill-opacity=".5" d="M1205 319c0 16.694 55.74 30.228 124.5 30.228S1454 335.694 1454 319v81.772c0 16.695-55.74 30.228-124.5 30.228S1205 417.467 1205 400.772z"/>
    <path fill="#95C6FB" d="M1205 319.5c0-16.845 55.74-30.5 124.5-30.5s124.5 13.655 124.5 30.5-55.74 30.5-124.5 30.5-124.5-13.655-124.5-30.5"/>
    <path stroke="#C7E2FF" stroke-width="4" d="M1454 319.18c0 16.667-55.74 30.179-124.5 30.179s-124.5-13.512-124.5-30.18S1260.74 289 1329.5 289s124.5 13.512 124.5 30.18v81.64c0 16.668-55.74 30.18-124.5 30.18S1205 417.488 1205 400.82v-81.64"/>
    <path fill="#C3E0FF" fill-opacity=".5" d="M860 199c0 16.694 55.74 30.228 124.5 30.228S1109 215.694 1109 199v81.772c0 16.695-55.74 30.228-124.5 30.228S860 297.467 860 280.772z"/>
    <path fill="#95C6FB" d="M860 199.5c0-16.845 55.74-30.5 124.5-30.5s124.5 13.655 124.5 30.5-55.74 30.5-124.5 30.5S860 216.345 860 199.5"/>
    <path stroke="#C7E2FF" stroke-width="4" d="M1109 199.18c0 16.667-55.74 30.179-124.5 30.179S860 215.847 860 199.179 915.74 169 984.5 169s124.5 13.512 124.5 30.18v81.64c0 16.668-55.74 30.18-124.5 30.18S860 297.488 860 280.82v-81.64"/>
    <path fill="#C3E0FF" fill-opacity=".5" d="M515 542c0 16.694 55.74 30.228 124.5 30.228S764 558.694 764 542v81.772C764 640.467 708.26 654 639.5 654S515 640.467 515 623.772z"/>
    <path fill="#95C6FB" d="M515 542.5c0-16.845 55.74-30.5 124.5-30.5S764 525.655 764 542.5 708.26 573 639.5 573 515 559.345 515 542.5"/>
    <path stroke="#C7E2FF" stroke-width="4" d="M764 542.18c0 16.667-55.74 30.179-124.5 30.179S515 558.847 515 542.179 570.74 512 639.5 512 764 525.512 764 542.18v81.64c0 16.668-55.74 30.18-124.5 30.18S515 640.488 515 623.82v-81.64"/>
    <path fill="#C3E0FF" fill-opacity=".5" d="M1205 542c0 16.694 55.74 30.228 124.5 30.228S1454 558.694 1454 542v81.772c0 16.695-55.74 30.228-124.5 30.228S1205 640.467 1205 623.772z"/>
    <path fill="#95C6FB" d="M1205 542.5c0-16.845 55.74-30.5 124.5-30.5s124.5 13.655 124.5 30.5-55.74 30.5-124.5 30.5-124.5-13.655-124.5-30.5"/>
    <path stroke="#C7E2FF" stroke-width="4" d="M1454 542.18c0 16.667-55.74 30.179-124.5 30.179s-124.5-13.512-124.5-30.18S1260.74 512 1329.5 512s124.5 13.512 124.5 30.18v81.64c0 16.668-55.74 30.18-124.5 30.18S1205 640.488 1205 623.82v-81.64"/>
    <path fill="#C3E0FF" fill-opacity=".5" d="M1205 765c0 16.694 55.74 30.228 124.5 30.228S1454 781.694 1454 765v81.772c0 16.695-55.74 30.228-124.5 30.228S1205 863.467 1205 846.772z"/>
    <path fill="#95C6FB" d="M1205 765.5c0-16.845 55.74-30.5 124.5-30.5s124.5 13.655 124.5 30.5-55.74 30.5-124.5 30.5-124.5-13.655-124.5-30.5"/>
    <path stroke="#C7E2FF" stroke-width="4" d="M1454 765.18c0 16.667-55.74 30.179-124.5 30.179s-124.5-13.512-124.5-30.18S1260.74 735 1329.5 735s124.5 13.512 124.5 30.18v81.64c0 16.668-55.74 30.18-124.5 30.18S1205 863.488 1205 846.82v-81.64"/>
    <path fill="#C3E0FF" fill-opacity=".5" d="M860 422c0 16.694 55.74 30.228 124.5 30.228S1109 438.694 1109 422v81.772c0 16.695-55.74 30.228-124.5 30.228S860 520.467 860 503.772z"/>
    <path fill="#95C6FB" d="M860 422.5c0-16.845 55.74-30.5 124.5-30.5s124.5 13.655 124.5 30.5-55.74 30.5-124.5 30.5S860 439.345 860 422.5"/>
    <path stroke="#C7E2FF" stroke-width="4" d="M1109 422.18c0 16.667-55.74 30.179-124.5 30.179S860 438.847 860 422.179 915.74 392 984.5 392s124.5 13.512 124.5 30.18v81.64c0 16.668-55.74 30.18-124.5 30.18S860 520.488 860 503.82v-81.64"/>
    <path fill="#C3E0FF" fill-opacity=".5" d="M515 96c0 16.694 55.74 30.228 124.5 30.228S764 112.694 764 96v81.772C764 194.467 708.26 208 639.5 208S515 194.467 515 177.772z"/>
    <path fill="#95C6FB" d="M515 96.5C515 79.655 570.74 66 639.5 66S764 79.655 764 96.5 708.26 127 639.5 127 515 113.345 515 96.5"/>
    <path stroke="#C7E2FF" stroke-width="4" d="M764 96.18c0 16.667-55.74 30.179-124.5 30.179S515 112.847 515 96.179 570.74 66 639.5 66 764 79.512 764 96.18v81.64c0 16.668-55.74 30.18-124.5 30.18S515 194.488 515 177.82V96.18"/>
    <path fill="#C3E0FF" fill-opacity=".5" d="M1205 96c0 16.694 55.74 30.228 124.5 30.228S1454 112.694 1454 96v81.772c0 16.695-55.74 30.228-124.5 30.228S1205 194.467 1205 177.772z"/>
    <path fill="#95C6FB" d="M1205 96.5c0-16.845 55.74-30.5 124.5-30.5S1454 79.655 1454 96.5s-55.74 30.5-124.5 30.5S1205 113.345 1205 96.5"/>
    <path stroke="#C7E2FF" stroke-width="4" d="M1454 96.18c0 16.667-55.74 30.179-124.5 30.179S1205 112.847 1205 96.179 1260.74 66 1329.5 66 1454 79.512 1454 96.18v81.64c0 16.668-55.74 30.18-124.5 30.18S1205 194.488 1205 177.82V96.18"/>
    <circle cx="639" cy="826" r="87" fill="#1E2563"/>
    <text fill="#FFF" font-family="OpenSans-Regular, Open Sans" font-size="30">
            <tspan x="572.154" y="838">Blackhole</tspan>
        </text>
    <text fill="#1E2563" font-family="Courier" font-size="20">
            <tspan x="178.492" y="384">KUBE-FW-</tspan>
            <tspan x="130.484" y="408">33X6KPGSXBPETFQV</tspan>
        </text>
    <text fill="#1E2563" font-family="Courier" font-size="20">
            <tspan x="585.491" y="384">KUBE-SVC-</tspan>
            <tspan x="549.485" y="408">336KPGSXBPETFQV</tspan>
        </text>
    <text fill="#1E2563" font-family="Courier" font-size="20">
            <tspan x="1281.492" y="381">DNAT to:</tspan>
            <tspan x="1239.485" y="405">10.16.0.11:8080</tspan>
        </text>
    <text fill="#1E2563" font-family="Courier" font-size="20">
            <tspan x="930.491" y="260">KUBE-SEP-</tspan>
            <tspan x="882.483" y="284">ALKRUKLHE5DT3R34X</tspan>
        </text>
    <text fill="#1E2563" font-family="Courier" font-size="20">
            <tspan x="555" y="616">KUBE-MARK-DROP</tspan>
        </text>
    <text fill="#1E2563" font-family="Courier" font-size="20">
            <tspan x="1245" y="610">KUBE-MARQ-MASK</tspan>
        </text>
    <text fill="#1E2563" font-family="Courier" font-size="20">
            <tspan x="1281.492" y="826">DNAT to:</tspan>
            <tspan x="1245.486" y="850">10.16.1.8:8080</tspan>
        </text>
    <text fill="#1E2563" font-family="Courier" font-size="20">
            <tspan x="936.491" y="484">KUBE-SEP-</tspan>
            <tspan x="894.484" y="508">X7DMMHFVFOT4JLHD</tspan>
        </text>
    <text fill="#1E2563" font-family="Courier" font-size="20">
            <tspan x="555" y="169">KUBE-MARK-MASQ</tspan>
        </text>
    <text fill="#1E2563" font-family="Courier" font-size="20">
            <tspan x="1245" y="169">KUBE-MARQ-MASK</tspan>
        </text>
    <path fill="#696DC0" fill-rule="nonzero" d="m225.507 206.993 3 .014-.007 1.5-.418 93.743 8 .036-9.584 18.957-9.415-19.042 7.999.035.418-93.743zm414.99 9.004.003 1.5.212 105.878 8-.016-9.461 19.02-9.538-18.982 7.999-.016-.212-105.878-.003-1.5zm690 0 .003 1.5.212 105.878 8-.016-9.461 19.02-9.538-18.982 7.999-.016-.212-105.878-.003-1.5zm0 445 .003 1.5.212 105.878 8-.016-9.461 19.02-9.538-18.982 7.999-.016-.212-105.878-.003-1.5zm-690-222 .003 1.5.212 105.878 8-.016-9.461 19.02-9.538-18.982 7.999-.016-.212-105.878-.003-1.5zm-.002 222.998.005 1.5.186 53.799 8-.027-9.434 19.033-9.566-18.967 8-.029-.186-53.799-.005-1.5zM248.004 318.472q.977.018 1.972.025l.999.003-.002 3q-1.02 0-2.024-.013l-1-.015zm8.925-.068.097 2.999q-1.017.032-2.022.054l-1 .019-.05-3q1.473-.024 2.975-.072m-14.86-.155q.969.057 1.963.1l1 .041-.112 2.998q-1.026-.038-2.029-.09l-.995-.054zm20.815-.128.187 2.995-1.514.088-1.503.078-.142-2.997q1.475-.07 2.972-.164m-26.723-.355q.954.102 1.946.192l1.001.085-.243 2.99q-1.036-.084-2.036-.182l-.99-.102zm32.656-.1.271 2.987-1.506.132-1.499.12-.23-2.99q1.475-.114 2.964-.25m5.928-.621.353 2.979-1.501.173-1.496.161-.312-2.983q1.472-.155 2.956-.33m5.916-.781.431 2.968-1.499.214-1.496.202-.392-2.974q1.474-.195 2.956-.41m5.882-.934.51 2.956-1.492.252-1.488.241-.47-2.963q1.467-.232 2.94-.486m5.86-1.086.585 2.943-1.483.289-1.481.28-.547-2.95q1.461-.271 2.926-.562m5.84-1.238.66 2.927-1.475.327-1.475.318-.622-2.935q1.456-.309 2.913-.637m5.815-1.387.734 2.909-1.47.365-1.468.356-.697-2.918q1.45-.346 2.9-.712m5.755-1.53.807 2.89-1.458.402-1.46.393-.77-2.9q1.442-.383 2.88-.785m5.712-1.675.88 2.868-1.443.438-1.446.43-.844-2.88q1.428-.418 2.853-.856m5.68-1.825.955 2.844-1.431.475-1.433.466-.918-2.856q1.416-.455 2.828-.93m5.62-1.968 1.028 2.819-1.421.513-1.423.503-.992-2.831q1.407-.492 2.808-1.004m5.568-2.113 1.1 2.79-1.406.55-1.41.54-1.064-2.804q1.392-.528 2.78-1.076m5.522-2.265 1.175 2.76-1.389.587-1.392.576-1.139-2.776q1.377-.564 2.745-1.147m5.443-2.402 1.248 2.728-1.373.623-1.378.613-1.211-2.744q1.36-.6 2.714-1.22m5.406-2.562 1.321 2.693-1.36.662-1.363.652-1.285-2.711q1.348-.639 2.687-1.296m5.314-2.698 1.394 2.657-1.342.698-1.346.69-1.358-2.675q1.33-.675 2.652-1.37m5.233-2.839 1.467 2.617-1.322.735-1.326.725-1.43-2.637q1.31-.711 2.61-1.44m5.161-2.988 1.54 2.575-1.298.77-1.303.76-1.503-2.597q1.287-.744 2.564-1.508m5.083-3.135 1.61 2.53-1.278.808-1.285.799-1.575-2.553q1.27-.783 2.528-1.584m4.972-3.264 1.682 2.484-1.254.842-1.258.832-1.647-2.508q1.244-.816 2.477-1.65m4.89-3.412 1.751 2.436-1.228.876-1.234.868-1.716-2.46q1.219-.852 2.427-1.72m4.801-3.558 1.82 2.385-1.203.912-1.21.903-1.786-2.41q1.195-.885 2.379-1.79m4.683-3.682 1.888 2.331-1.176.946-1.182.936-1.855-2.358a208 208 0 0 0 2.325-1.855m4.584-3.823 1.954 2.276-1.149.98-1.155.97-1.921-2.304q1.141-.953 2.27-1.922m4.463-3.946 2.02 2.22-1.122 1.012-1.128 1.004-1.987-2.247q1.115-.986 2.217-1.989m4.35-4.073 2.082 2.16-1.09 1.044-1.098 1.035-2.05-2.19q1.085-1.015 2.156-2.05m4.229-4.194 2.142 2.1-1.063 1.077-1.069 1.068-2.112-2.13q1.056-1.05 2.102-2.115m4.107-4.313 2.202 2.037-1.031 1.107-1.038 1.098-2.173-2.07q1.028-1.077 2.04-2.172m3.975-4.419 2.259 1.975-1 1.135-1.006 1.126-2.23-2.007a211 211 0 0 0 1.977-2.229m3.855-4.536 2.313 1.91-.966 1.162-.974 1.154-2.286-1.943q.963-1.132 1.913-2.283m3.736-4.654 2.366 1.845-.935 1.19-.94 1.18-2.34-1.878q.93-1.16 1.85-2.337m3.583-4.724 2.415 1.78-.901 1.214-.909 1.206-2.39-1.813q.9-1.185 1.785-2.387m3.474-4.852 2.463 1.714-.868 1.239-.875 1.23-2.44-1.746q.867-1.211 1.72-2.437m3.35-4.954 2.507 1.647-.834 1.262-.842 1.254-2.485-1.68q.834-1.234 1.654-2.483m3.196-5.009 2.55 1.58-.8 1.284-.808 1.274-2.53-1.613q.8-1.255 1.588-2.525m3.085-5.125 2.59 1.514-.767 1.303-.774 1.295-2.57-1.547a232 232 0 0 0 1.521-2.565m2.934-5.169 2.628 1.448-.734 1.321-.74 1.314-2.609-1.48q.735-1.294 1.455-2.603m2.822-5.276 2.663 1.382-.7 1.338-.706 1.331-2.646-1.415q.701-1.31 1.39-2.636m2.686-5.334 2.696 1.316-.667 1.355-.673 1.347-2.68-1.349q.669-1.327 1.324-2.67m2.552-5.386 2.726 1.252-.634 1.37-.64 1.363-2.712-1.284q.636-1.344 1.26-2.701m2.43-5.458 2.755 1.189-.603 1.385-.608 1.378-2.741-1.22a259 259 0 0 0 1.197-2.732m2.298-5.495 2.78 1.126-.57 1.398-.577 1.39-2.768-1.156q.573-1.372 1.135-2.758m2.18-5.558 2.804 1.064-.54 1.41-.546 1.405-2.793-1.095q.543-1.386 1.074-2.784m2.06-5.612 2.827 1.004-.51 1.421-.514 1.415-2.817-1.034q.513-1.395 1.013-2.806m1.944-5.666 2.848.944-.48 1.432-.484 1.426-2.838-.974q.483-1.407.954-2.828m1.82-5.683 2.866.886-.45 1.442-.455 1.435-2.857-.915q.454-1.417.896-2.848m1.708-5.725 2.883.83-.421 1.45-.427 1.443-2.875-.858q.426-1.426.84-2.865m1.597-5.762 2.898.773-.392 1.458-.399 1.452-2.891-.802q.397-1.434.784-2.881m1.48-5.763 2.913.72-.366 1.464-.37 1.458-2.906-.747q.37-1.44.73-2.895m1.382-5.822 2.925.666-.338 1.47-.344 1.465-2.92-.692q.344-1.449.677-2.91m1.278-5.846 2.936.615-.312 1.476-.318 1.47-2.931-.64q.318-1.455.625-2.921m1.175-5.864 2.947.564-.287 1.481-.293 1.476-2.941-.59q.292-1.46.574-2.931m1.103-5.877 2.947.565-.278 1.46-.274 1.473-2.95-.544q.274-1.488.555-2.954m1.183-5.93 2.938.61-.3 1.46-.297 1.471-2.942-.587q.297-1.489.601-2.954m161.754-19.04 4.031 20.856-19.104-9.288 6.326-4.856-.073-.093-.93-1.167 2.345-1.872.934 1.173.104.132zm-160.485 13.18 2.926.658-.322 1.45-.32 1.464-2.932-.633q.32-1.482.648-2.939m1.378-5.883 2.915.712-.349 1.442-.345 1.456-2.92-.684q.345-1.477.7-2.926m1.488-5.836 2.9.772-.378 1.432-.373 1.448-2.907-.74q.375-1.47.758-2.912m146.42-2.577.948 1.163.95 1.173-2.334 1.885-.945-1.166-.941-1.156zm-144.798-3.257 2.88.837q-.274.947-.546 1.909l-.27.965-2.89-.803q.408-1.47.826-2.908m140.961-1.382.961 1.15.964 1.162-2.312 1.912-.958-1.154-.955-1.144zm-3.894-4.59.977 1.14.979 1.15-2.288 1.94-.973-1.142-.97-1.131zm-135.312.203 2.859.91q-.299.936-.592 1.887l-.293.955-2.87-.873q.443-1.457.896-2.88m131.352-4.743.992 1.125.995 1.137-2.26 1.972-.989-1.129-.984-1.117zm-129.44-.976 2.83.993q-.323.924-.643 1.866l-.319.946-2.845-.951q.483-1.446.977-2.854m125.403-3.515 1.01 1.11 1.013 1.123-2.231 2.005-1.005-1.114-1.002-1.1zM485.044 69.26l2.796 1.087q-.356.915-.707 1.85l-.35.938-2.814-1.039q.532-1.44 1.075-2.836m119.194-2.25 1.029 1.093 1.032 1.107-2.198 2.041-1.023-1.096-1.02-1.084zm-116.896-3.346 2.752 1.195q-.39.896-.772 1.814l-.383.922-2.775-1.139q.582-1.42 1.178-2.792m112.708-1.002 1.049 1.074 1.053 1.088-2.16 2.08-1.044-1.077-1.039-1.063zm-4.276-4.265 1.071 1.052 1.076 1.067-2.119 2.124-1.064-1.056-1.06-1.04zM489.88 58.15l2.695 1.317q-.427.875-.848 1.772l-.42.903-2.725-1.254q.642-1.395 1.298-2.738m101.522-3.922q.73.679 1.462 1.373l.735.698-2.07 2.17q-.727-.692-1.45-1.37l-.721-.675zm-98.707-1.478 2.621 1.46q-.471.848-.937 1.721l-.463.88-2.661-1.386q.713-1.367 1.44-2.675m94.222-2.587q.747.659 1.499 1.334l.752.679-2.015 2.222q-.744-.674-1.482-1.332l-.738-.653zm-91.083-2.659 2.522 1.625q-.525.813-1.041 1.658l-.515.85-2.575-1.538a91 91 0 0 1 1.609-2.595m86.495-1.27q.766.637 1.54 1.292l.772.658-1.95 2.279q-.764-.653-1.521-1.288l-.756-.63zm-82.991-3.748 2.39 1.814a72 72 0 0 0-1.157 1.567l-.571.808-2.461-1.716a76 76 0 0 1 1.799-2.473m78.256-.043q.79.61 1.585 1.239l.796.634-1.876 2.341q-.784-.627-1.561-1.236l-.777-.603zm-4.88-3.615q.813.577 1.634 1.177l.821.604-1.786 2.41a143 143 0 0 0-1.606-1.173l-.798-.57zm-69.46-1.041 2.209 2.03q-.65.706-1.29 1.451l-.637.755-2.307-1.918a63 63 0 0 1 2.024-2.318m64.421-2.356q.842.537 1.689 1.1l.849.567-1.678 2.487a121 121 0 0 0-1.654-1.096l-.822-.53zm-60.001-1.953 1.964 2.267a48 48 0 0 0-1.61 1.46l-.53.51-2.096-2.146a52 52 0 0 1 2.272-2.091m54.774-1.19q.871.49 1.75 1.007l.88.524-1.546 2.571q-.857-.516-1.706-1.004l-.848-.482zM512.63 29.73l1.637 2.514q-.897.584-1.78 1.229l-.586.436-1.811-2.392a44 44 0 0 1 2.54-1.787m44.396-.257q.905.43 1.817.891l.915.47-1.384 2.661a84 84 0 0 0-1.762-.89l-.875-.423zm-5.64-2.41q.94.354 1.89.746l.952.4-1.181 2.757q-.914-.391-1.82-.749l-.901-.348zm-33.278-.327 1.224 2.738q-.978.437-1.939.939l-.638.341-1.44-2.631q1.378-.756 2.793-1.387m27.599-1.52q1.098.298 2.209.646l.742.238-.934 2.85a57 57 0 0 0-1.872-.577l-.928-.26zm-21.676-.55.744 2.907q-1.043.267-2.067.6l-.68.23-.99-2.832a37 37 0 0 1 2.993-.904m15.58-.717a48 48 0 0 1 2.28.383l.767.154-.612 2.937a46 46 0 0 0-2.151-.397l-.71-.107zm-9.383-.318.245 2.99q-1.083.09-2.148.243l-.708.11-.492-2.959a38 38 0 0 1 3.103-.384m3.15-.13q1.155-.003 2.326.06l.783.05-.217 2.992a39 39 0 0 0-2.17-.098l-.716-.005zM659.944 334.47l.093 2.999q-1.02.031-2.046.031l-1.028-.009.05-3q1.471.025 2.93-.02m-8.783-.343q.979.105 1.951.18l.971.069-.187 2.994a68 68 0 0 1-2.035-.158l-1.022-.103zm14.635-.124.384 2.975q-1.015.131-2.037.23l-1.022.09-.239-2.99a60 60 0 0 0 2.914-.305m5.756-1.028.668 2.925q-1.002.229-2.007.425l-1.006.188-.527-2.954q1.439-.256 2.872-.584m5.664-1.573.933 2.851q-.979.32-1.959.61l-.98.28-.804-2.89q1.407-.391 2.81-.85m5.534-2.08 1.171 2.763a75 75 0 0 1-1.897.774l-.948.365-1.057-2.808q1.365-.514 2.731-1.093m5.286-2.48 1.373 2.667q-.915.47-1.829.913l-.913.436-1.275-2.715q1.32-.62 2.644-1.302m5.169-2.886 1.545 2.572q-.88.53-1.76 1.033l-.878.497-1.464-2.62q1.275-.711 2.557-1.482m4.982-3.194 1.688 2.48q-.848.577-1.691 1.13l-.843.546-1.62-2.525q1.228-.79 2.466-1.63m4.832-3.467 1.806 2.396q-.818.616-1.631 1.21l-.812.588-1.75-2.437a128 128 0 0 0 2.387-1.757m4.685-3.69 1.903 2.32q-.79.648-1.576 1.276l-.784.622-1.857-2.356q1.152-.908 2.314-1.862m4.55-3.87 1.982 2.252q-.766.675-1.528 1.33l-.76.65-1.945-2.284a179 179 0 0 0 2.25-1.948m4.35-3.948 2.048 2.193q-.745.696-1.484 1.372l-.738.673-2.015-2.222q1.087-.987 2.19-2.016m4.302-4.12 2.101 2.142q-.727.713-1.447 1.409l-.719.691-2.075-2.166q1.063-1.018 2.14-2.076m4.223-4.235 2.146 2.096q-.71.728-1.414 1.439l-.702.707-2.125-2.118q1.04-1.043 2.095-2.124m4.139-4.318 2.184 2.057q-.697.74-1.387 1.464l-.688.72-2.166-2.075q1.02-1.065 2.057-2.166m4.063-4.383 2.215 2.023q-.686.75-1.364 1.487l-.676.731-2.2-2.039q1.004-1.083 2.025-2.202m4.008-4.449 2.242 1.994q-.675.758-1.342 1.502l-.665.74-2.229-2.008q.99-1.097 1.994-2.228m3.951-4.492 2.264 1.969q-.666.765-1.325 1.517l-.656.747-2.253-1.98q.977-1.11 1.97-2.253m3.915-4.545 2.282 1.948-1.308 1.528-.648.753-2.273-1.958q.965-1.12 1.947-2.27m3.874-4.575 2.297 1.93-1.297 1.539-.641.759-2.29-1.938q.955-1.13 1.93-2.29m3.844-4.61 2.31 1.915-1.285 1.548-.636.763-2.304-1.921q.947-1.135 1.915-2.304m3.806-4.618 2.32 1.902q-.643.785-1.277 1.555l-.63.766-2.316-1.907q.94-1.14 1.903-2.316m3.794-4.652 2.33 1.89-1.27 1.561-.626.769-2.325-1.896q.934-1.145 1.891-2.324m3.772-4.665 2.337 1.882-1.263 1.566-.623.77-2.332-1.886zm3.76-4.68 2.341 1.875-1.258 1.57-.62.772-2.338-1.879zm3.742-4.684 2.346 1.87-1.255 1.573-.616.772-2.344-1.873zm3.737-4.697 2.35 1.866-1.255 1.578-.613.77-2.348-1.867zm3.74-4.714 2.352 1.863-1.255 1.583-.61.769-2.35-1.865zm3.705-4.68 2.353 1.862-1.412 1.783-.45.57-2.352-1.863zm3.704-4.682 2.353 1.86-1.618 2.046-.243.308-2.353-1.861zm3.713-4.696 2.353 1.861-1.682 2.128-.179.225-2.353-1.86c.928-1.173 1.31-1.656 1.86-2.354m3.72-4.702 2.352 1.862-1.381 1.746-.48.606-2.353-1.861zm3.714-4.689 2.35 1.864-1.232 1.555-.63.795-2.352-1.862zm3.73-4.702 2.35 1.865-1.238 1.559-.627.79-2.35-1.864zm177.342-17.168 6.447 20.24-20.06-6.986 5.698-5.549-.003-.003-1.075-1.028 2.069-2.173 1.086 1.04.073.071zm-173.608 12.472 2.347 1.869-.93 1.167-.937 1.18-2.348-1.868zm3.748-4.701 2.344 1.872-.932 1.167-.938 1.177-2.346-1.87zm3.777-4.693 2.316 1.907q-.863 1.048-1.725 2.125l-.108.135-.045.057-2.343-1.874.153-.192q.875-1.095 1.752-2.158m154.74-2.692 1.109 1.015 1.11 1.029-2.045 2.195-1.097-1.017-1.097-1.004zm-150.818-1.915 2.251 1.983q-.65.738-1.299 1.492l-.648.757-2.284-1.945q.987-1.16 1.98-2.287m146.301-2.1 1.133.989 1.135 1.003-1.993 2.242-1.121-.99-1.12-.978zm-142.21-2.38 2.178 2.065q-.678.714-1.352 1.444l-.675.734-2.215-2.023q1.03-1.128 2.065-2.22m137.586-1.526 1.159.96 1.16.973-1.936 2.292-1.145-.961-1.143-.946zm-133.331-2.786 2.092 2.15q-.705.686-1.406 1.388l-.701.706-2.137-2.106a147 147 0 0 1 2.152-2.138m128.612-.982 1.187.927 1.188.942-1.872 2.344-1.171-.929-1.17-.913zm-124.177-3.15 1.995 2.24q-.734.652-1.464 1.324l-.73.676-2.046-2.195q1.12-1.043 2.245-2.045m119.333-.486 1.216.89 1.218.907-1.801 2.399-1.199-.893-1.196-.876zm-4.826-3.385q.83.561 1.66 1.137l.832.58-1.724 2.456q-.818-.574-1.633-1.133l-.815-.554zm-109.87-.064 1.883 2.335q-.764.616-1.524 1.251l-.761.64-1.942-2.286q1.17-.992 2.343-1.94m104.783-3.24q.85.53 1.703 1.076l.853.55-1.634 2.516q-.837-.544-1.673-1.072l-.835-.523zm-99.95-.454 1.756 2.432q-.792.572-1.582 1.165l-.79.598-1.821-2.384q1.216-.93 2.437-1.811m94.724-2.654q.872.495 1.746 1.006l.875.516-1.533 2.579q-.858-.51-1.713-1.003l-.854-.488zm-89.667-.778 1.61 2.532q-.827.525-1.65 1.072l-.823.553-1.685-2.482a101 101 0 0 1 2.548-1.675m84.304-2.102q.895.453 1.792.927l.898.478-1.42 2.642q-.878-.471-1.753-.924l-.875-.448zm-79.082-.992 1.445 2.629q-.856.47-1.71.965l-.854.5-1.53-2.58a93 93 0 0 1 2.65-1.514m73.577-1.634q.917.41 1.838.839l.92.434-1.291 2.708q-.899-.427-1.794-.837l-.895-.403zm-68.124-1.123 1.259 2.723q-.885.41-1.769.843l-.882.44-1.354-2.677a86 86 0 0 1 2.746-1.33m62.488-1.207q.942.36 1.885.739l.944.385-1.147 2.773q-.919-.38-1.834-.74l-.916-.353zm-56.833-1.157 1.052 2.81a77 77 0 0 0-1.826.71l-.911.374-1.157-2.768q1.417-.592 2.842-1.126m51.062-.846q.962.302 1.927.626l.966.33-.984 2.833a96 96 0 0 0-1.872-.628l-.933-.298zm-45.246-1.076.828 2.884q-.938.268-1.874.564l-.934.302-.941-2.848a77 77 0 0 1 2.921-.902m39.352-.56q.982.238 1.966.5l.986.267-.803 2.89a88 88 0 0 0-1.904-.505l-.95-.235zm-33.378-.893.588 2.942q-.958.192-1.913.41l-.954.225-.709-2.915a74 74 0 0 1 2.988-.662m27.387-.333q.999.166 2.002.36l1.002.2-.602 2.938a82 82 0 0 0-1.933-.372l-.964-.167zm-21.379-.612.343 2.98q-.972.112-1.941.252l-.968.145-.467-2.963a73 73 0 0 1 3.033-.414m15.306-.171q1.012.09 2.026.209l1.015.124-.384 2.975a77 77 0 0 0-1.953-.226l-.973-.094zm-9.2-.274.095 2.998q-.98.03-1.957.089l-.975.064-.219-2.992a74 74 0 0 1 3.057-.16m3.069-.033q1.017.01 2.039.047l1.022.044-.15 2.997a73 73 0 0 0-1.962-.072l-.979-.017zm111.592 53.963.094 2.999q-1.02.03-2.047.031l-1.027-.009.05-3q1.47.025 2.93-.02m-8.782-.345q.979.105 1.952.182l.97.068-.188 2.994a68 68 0 0 1-2.034-.158l-1.022-.103zm14.634-.124.386 2.976a63 63 0 0 1-2.038.23l-1.022.09-.24-2.99q1.462-.117 2.914-.306m5.755-1.03.67 2.924q-1.002.23-2.007.426l-1.005.189-.53-2.953q1.44-.258 2.872-.586m5.664-1.578.935 2.85q-.978.322-1.958.611l-.98.282-.806-2.89a65 65 0 0 0 2.809-.853m5.52-2.08 1.172 2.762q-.945.402-1.892.774l-.946.365-1.06-2.807a72 72 0 0 0 2.725-1.093m5.299-2.495 1.376 2.666q-.915.472-1.828.916l-.913.438-1.278-2.714q1.32-.622 2.643-1.306m5.155-2.885 1.548 2.57q-.88.53-1.756 1.033l-.876.497-1.467-2.617q1.272-.713 2.55-1.483m4.987-3.207 1.692 2.478q-.848.579-1.691 1.132l-.843.548-1.624-2.522q1.23-.79 2.466-1.636m4.832-3.477 1.81 2.393q-.82.618-1.631 1.214l-.813.59-1.753-2.434a128 128 0 0 0 2.387-1.763m4.669-3.686 1.905 2.317q-.79.65-1.576 1.28l-.784.623-1.86-2.354q1.152-.909 2.315-1.866m4.543-3.876 1.986 2.249q-.765.675-1.525 1.331l-.758.651-1.948-2.282q1.117-.952 2.245-1.95m4.357-3.963 2.05 2.19q-.745.698-1.485 1.376l-.737.675-2.02-2.22q1.09-.99 2.192-2.021m4.287-4.118 2.104 2.139q-.725.714-1.444 1.41l-.718.692-2.078-2.163q1.061-1.02 2.136-2.078m4.214-4.237 2.149 2.093q-.71.729-1.412 1.44l-.701.708-2.128-2.115q1.039-1.044 2.092-2.126m4.138-4.329 2.187 2.054q-.696.74-1.385 1.466l-.687.72-2.169-2.072a345 345 0 0 0 2.054-2.168m4.063-4.394 2.218 2.02q-.685.752-1.362 1.488l-.676.733-2.203-2.037q1.003-1.085 2.023-2.204m3.998-4.45 2.244 1.99q-.673.76-1.34 1.505l-.664.74-2.231-2.004q.987-1.099 1.991-2.231m3.95-4.504 2.266 1.966-1.322 1.519-.656.749-2.255-1.978q.975-1.112 1.967-2.256m3.905-4.545 2.284 1.944-1.306 1.531-.648.755-2.275-1.955q.963-1.122 1.945-2.275m3.86-4.572 2.299 1.927-1.293 1.54-.64.76-2.293-1.936q.954-1.13 1.926-2.29m3.833-4.608 2.313 1.91q-.646.783-1.284 1.55l-.634.764-2.307-1.919a945 945 0 0 0 1.912-2.305m3.814-4.642 2.323 1.898-1.274 1.556-.63.768-2.318-1.905q.939-1.141 1.9-2.317m3.784-4.653 2.331 1.888-1.267 1.563-.625.77-2.328-1.893q.932-1.146 1.889-2.328m3.77-4.676 2.34 1.879-1.262 1.568-.622.772-2.335-1.883zm3.746-4.676 2.344 1.872-1.256 1.571-.619.773-2.341-1.875zm3.741-4.697 2.349 1.867-1.254 1.576-.615.773-2.347-1.87zm215.701-19.885 3.922 20.877-19.055-9.388 6.346-4.818-.727-.915-.932-1.164 2.34-1.879.937 1.172.772.971zm-211.967 15.179 2.351 1.862-1.251 1.58-.612.772-2.35-1.865zm3.726-4.712 2.354 1.86-1.252 1.585-.61.77-2.352-1.861zm3.703-4.69 2.355 1.858-1.409 1.785-.45.57-2.355-1.858zm3.688-4.678 2.356 1.858-1.613 2.046-.244.309-2.355-1.858zm188.939-3.056.954 1.159.956 1.169-2.326 1.894-.949-1.16-.947-1.15zM1129.24 88.13l2.356 1.857-1.68 2.13-.178.227-2.356-1.858zm181.349-2.97.972 1.145.973 1.155-2.298 1.929-.965-1.146-.965-1.136zm-177.644-1.728 2.356 1.858-1.38 1.748-.479.608-2.355-1.858zm173.69-2.83.992 1.129.992 1.14-2.267 1.965-.984-1.13-.982-1.12zm-169.98-1.87 2.355 1.86q-.608.767-1.23 1.558l-.63.796-2.354-1.859zm165.956-2.613 1.011 1.111 1.012 1.123-2.232 2.004-1.003-1.113-1.002-1.1zm-162.228-2.1 2.352 1.863-1.235 1.56-.626.791-2.353-1.86zm158.11-2.32 1.032 1.092 1.034 1.105-2.195 2.045-1.024-1.094-1.022-1.08zm-154.38-2.387 2.35 1.865-.927 1.169-.936 1.181-2.351-1.863zm150.182-1.94 1.054 1.07 1.057 1.084-2.153 2.089-1.046-1.072-1.043-1.06zm-146.45-2.755 2.347 1.868-.93 1.17-.937 1.177-2.348-1.866zm142.15-1.487 1.08 1.046 1.08 1.061-2.107 2.135-1.069-1.048-1.066-1.034zm-138.377-3.219 2.318 1.906a161 161 0 0 0-1.8 2.227l-.073.092-2.346-1.87.345-.432q.777-.974 1.556-1.923m133.978-.919 1.105 1.02 1.107 1.035-2.055 2.185-1.094-1.022-1.09-1.007zm-130.044-3.678 2.24 1.996q-.652.73-1.301 1.48l-.649.753-2.28-1.95a148 148 0 0 1 1.99-2.28m125.525-.355 1.133.99 1.136 1.007-1.998 2.238-1.12-.992-1.117-.977zm-4.49-3.783q.775.633 1.55 1.28l.777.652-1.935 2.293q-.765-.645-1.528-1.276l-.762-.626zm-116.896-.307 2.148 2.094q-.683.7-1.363 1.42l-.68.726-2.196-2.044q1.043-1.12 2.09-2.196m112.134-3.458q.794.607 1.592 1.23l.798.627-1.86 2.353a176 176 0 0 0-1.568-1.225l-.782-.6zm-107.776-.801 2.042 2.198q-.718.666-1.432 1.353l-.714.692-2.098-2.145q1.098-1.073 2.202-2.098m102.89-2.79q.817.577 1.637 1.172l.82.599-1.777 2.417q-.805-.593-1.608-1.167l-.802-.57zm-98.335-1.217 1.917 2.308q-.75.624-1.499 1.27l-.747.651-1.982-2.252q1.153-1.014 2.311-1.977m93.297-2.191q.841.544 1.686 1.106l.844.567-1.681 2.485q-.828-.56-1.653-1.101l-.824-.537zm-88.477-1.569 1.77 2.423q-.789.575-1.574 1.175l-.785.606-1.846-2.365a96 96 0 0 1 2.435-1.839m83.29-1.62q.866.505 1.734 1.03l.869.53-1.572 2.555q-.849-.522-1.696-1.025l-.846-.498zm-78.235-1.814 1.597 2.54q-.824.518-1.644 1.061l-.82.55-1.687-2.48q1.273-.866 2.554-1.67m72.891-1.121q.892.46 1.787.942l.896.487-1.445 2.629a113 113 0 0 0-1.743-.939l-.87-.453zm-67.609-1.93 1.399 2.653q-.861.455-1.72.936l-.857.488-1.502-2.597a78 78 0 0 1 2.68-1.48m62.102-.715q.92.408 1.84.84l.922.437-1.3 2.705q-.896-.431-1.788-.839l-.892-.402zm-56.566-1.918 1.172 2.762a68 68 0 0 0-1.788.79l-.892.416-1.289-2.71q1.395-.661 2.797-1.258m50.912-.385q.945.35 1.892.724l.948.38-1.132 2.778q-.918-.374-1.834-.724l-.914-.344zm-45.147-1.763.919 2.856q-.927.299-1.85.626l-.922.336-1.048-2.811q1.446-.54 2.901-1.007m39.329-.156q.97.28 1.943.59l.974.314-.94 2.85a81 81 0 0 0-1.877-.595l-.936-.278zm-33.387-1.449.643 2.93q-.951.21-1.898.449l-.946.247-.783-2.896a64 64 0 0 1 2.984-.73m27.432-.03q.993.205 1.99.439l.996.24-.723 2.912a73 73 0 0 0-1.914-.449l-.954-.203zm-6.065-.982q1.01.12 2.023.268l1.014.157-.48 2.961a68 68 0 0 0-1.94-.286l-.967-.12zm-15.28-.016.355 2.979q-.968.115-1.934.262l-.963.154-.5-2.958q1.516-.255 3.043-.437m9.154-.423q1.02.026 2.041.083l1.024.066-.215 2.992a63 63 0 0 0-1.952-.11l-.973-.032zm-3.082-.005.068 3q-.978.021-1.951.074l-.973.061-.211-2.992q1.53-.108 3.067-.143"/>
    <path fill="#696DC0" fill-rule="nonzero" d="m992.87 415.402-2.705 21.07-15.233-14.806 7.353-2.568-.294-.573 2.66-1.386q.25.48.492.962zm-11.278-3.586q.544.863 1.066 1.741l.515.882-2.601 1.495a71 71 0 0 0-1-1.685l-.517-.83zm-3.495-5.053q.615.816 1.208 1.647l.586.835-2.467 1.706a71 71 0 0 0-1.136-1.594l-.585-.787zm-3.894-4.74q.68.763 1.34 1.542l.651.782-2.318 1.905a73 73 0 0 0-1.263-1.496l-.649-.737zm-4.26-4.412q.74.709 1.457 1.431l.711.727-2.157 2.085a76 76 0 0 0-1.38-1.391l-.706-.686zm-4.577-4.066q.79.651 1.559 1.317l.763.67-1.992 2.243q-.73-.649-1.482-1.284l-.756-.631zm-4.85-3.72q.832.594 1.644 1.202l.807.611-1.825 2.381a86 86 0 0 0-1.57-1.175l-.8-.578zm-5.075-3.381q.87.54 1.719 1.093l.844.556-1.662 2.497a94 94 0 0 0-1.647-1.072l-.838-.526zm-5.268-3.061q.898.488 1.777.987l.875.502-1.506 2.594q-.845-.49-1.71-.97l-.867-.477zm-5.39-2.742q.922.44 1.827.89l.9.453-1.359 2.674q-.873-.444-1.763-.877l-.895-.43zm-5.555-2.477q.94.393 1.865.796l.92.406-1.22 2.74q-.897-.399-1.807-.788l-.915-.386zm-5.662-2.216q.957.35 1.898.71l.937.363-1.092 2.794q-.915-.357-1.843-.705l-.932-.345zm-5.74-1.973q.968.312 1.922.632l.95.323-.974 2.838q-.929-.319-1.871-.629l-.946-.308zm-5.796-1.746q.978.276 1.943.56l.961.287-.865 2.872q-.94-.284-1.895-.558l-.958-.273zm-5.855-1.543q.987.243 1.96.494l.972.253-.764 2.9a182 182 0 0 0-1.917-.493l-.968-.241zm-5.895-1.355 1.48.323 1.468.331-.671 2.924-1.446-.326-1.459-.318zm-5.925-1.182 1.49.281 1.476.29-.586 2.942-1.457-.285-1.469-.278zm-5.948-1.022 1.496.243 1.484.25-.508 2.957-1.465-.247-1.477-.24zm-5.977-.877 1.5.207 1.488.214-.435 2.968-1.472-.211-1.482-.204zm-5.993-.74 1.503.173 1.492.18-.368 2.978-1.476-.179-1.487-.172zm-5.995-.615 1.503.143 1.493.149-.306 2.984-1.478-.147-1.488-.142zm-6.007-.498 1.506.114 1.498.12-.248 2.99-1.484-.119-1.493-.113zm-6.01-.39 1.506.088 1.497.094-.194 2.993-1.484-.093-1.493-.087zm-6.026-.29 1.508.064 1.499.069-.144 2.996-1.487-.068-1.496-.063zm-6.021-.194 1.507.04 1.498.046-.096 2.998-1.488-.045-1.495-.04zm-6.02-.106 1.512.019 1.503.024-.053 3-1.493-.025-1.5-.018zm-5.384-.025h1.501l.874.003-.012 3q-.867-.003-1.739-.003h-1.248l.002-3zm-6.628-.017 1.495.007 1.503.004-.008 3-1.506-.004-1.498-.007zm-5.98-.04 1.495.013 1.503.01-.02 3-1.506-.01-1.497-.012zm-6.01-.065 1.495.019 1.502.017-.032 3-1.506-.017-1.498-.02zm-5.985-.092 1.493.025 1.503.024-.047 3-1.505-.024-1.497-.026zm-5.992-.122 1.493.033 1.503.032-.06 3-1.507-.032-1.497-.034zm-5.986-.152 1.493.04 1.502.04-.076 3-1.507-.04-1.497-.041zm-5.986-.186 1.491.05 1.503.047-.094 2.999-1.506-.048-1.496-.05zm-5.991-.223 1.491.06 1.503.056-.111 2.998-1.508-.057-1.496-.06zm-5.98-.26 1.49.068 1.5.067-.13 2.997-1.506-.067-1.495-.069zm-5.988-.304 1.489.08 1.5.077-.152 2.996-1.506-.078-1.494-.08zm-5.977-.35 1.487.092 1.5.09-.175 2.994-1.506-.09-1.493-.09zm-5.98-.398 1.486.104 1.499.101-.2 2.994-1.505-.102-1.493-.105zm-5.962-.453 1.486.118 1.499.116-.227 2.991-1.507-.116-1.493-.119zm-5.953-.512 1.482.134 1.496.13-.257 2.99-1.504-.132-1.49-.134zm-5.963-.578 1.481.15 1.495.147-.29 2.986-1.503-.148-1.49-.15zm-5.945-.649 1.479.169 1.492.165-.325 2.982-1.502-.166-1.489-.17zm-5.94-.728 1.476.188 1.49.186-.366 2.977-1.5-.186-1.486-.19zm-5.917-.814 1.472.211 1.487.207-.409 2.972-1.498-.209-1.484-.212zm-5.903-.91 1.467.236 1.481.232-.456 2.965-1.495-.234-1.479-.237zm-5.89-1.014 1.462.263 1.476.257-.509 2.957-1.49-.26-1.476-.265zm-5.857-1.127 1.456.292 1.47.287-.567 2.946-1.485-.29-1.471-.295zm-5.84-1.252 1.452.324 1.464.318-.628 2.934-1.481-.322-1.468-.327zm-5.807-1.383 1.442.357 1.454.35-.695 2.919-1.471-.355-1.46-.361zm-5.764-1.52 1.437.393 1.444.386-.765 2.9-1.461-.39-1.454-.397zm-5.73-1.658 1.43.428 1.431.419-.834 2.882-1.449-.425-1.446-.432zm-5.69-1.792 1.425.462 1.419.451-.902 2.861-1.434-.456-1.44-.467zm-5.659-1.914a337 337 0 0 0 1.89.653l.934.317-.961 2.842q-.938-.318-1.892-.646l-.958-.333zm-5.634-2.01q1.088.396 2.126.769l.689.246-1.01 2.826q-1.032-.369-2.107-.76l-.725-.262zm-5.613-2.072 2.368.88.44.162-1.04 2.814-2.31-.857-.505-.188zm-5.621-2.1 2.546.951.264.1-1.05 2.81c-1.373-.514-1.958-.733-2.665-.996l-.143-.054zm-5.64-2.084c.679.248 1.372.503 2.094.769l.73.27-1.04 2.813c-.738-.273-1.444-.533-2.131-.784l-.681-.25zm-5.667-2.029q.93.327 1.882.665l.958.342-1.012 2.824q-.958-.343-1.89-.673l-.93-.326zm678.174 200.151-4.547 20.75-13.871-16.089zm-9.306-1.989q.361.942.709 1.896l.343.957-2.828 1q-.33-.935-.676-1.857l-.348-.92zm-2.35-5.637q.415.92.814 1.855l.396.937-2.769 1.154q-.381-.914-.777-1.815l-.4-.898zm-2.67-5.484q.469.895.923 1.804l.45.913-2.698 1.313a99 99 0 0 0-.88-1.765l-.453-.872zm-3.002-5.321q.525.867 1.033 1.746l.505.884-2.613 1.474a96 96 0 0 0-.986-1.707l-.505-.843zm-3.33-5.123q.58.832 1.143 1.678l.558.85-2.515 1.635a93 93 0 0 0-1.09-1.64l-.558-.81zm-3.653-4.904q.633.795 1.249 1.603l.611.811-2.405 1.793a92 92 0 0 0-1.193-1.565l-.608-.772zm-3.958-4.65q.684.75 1.35 1.518l.663.77-2.285 1.945q-.637-.75-1.29-1.485l-.658-.732zm-4.248-4.385q.732.707 1.446 1.43l.71.725-2.154 2.088q-.684-.706-1.384-1.399l-.704-.689zm-4.52-4.108q.774.66 1.533 1.335l.754.678-2.018 2.22q-.726-.66-1.47-1.307l-.746-.644zm-4.756-3.812q.814.611 1.611 1.238l.794.63-1.876 2.34q-.766-.612-1.548-1.214l-.786-.598zm-4.973-3.52q.849.563 1.68 1.14l.829.58-1.733 2.45a102 102 0 0 0-1.617-1.122l-.82-.551zm-5.159-3.23q.879.517 1.742 1.047l.86.532-1.591 2.543q-.832-.52-1.68-1.03l-.852-.505zm-5.287-2.925q.904.47 1.793.952l.886.485-1.453 2.625q-.859-.475-1.733-.94l-.877-.46zm-5.467-2.674q.924.425 1.836.861l.907.44-1.317 2.695a122 122 0 0 0-1.779-.852l-.9-.417zm-5.58-2.407q.941.381 1.87.773l.927.396-1.188 2.754q-.902-.389-1.817-.767l-.918-.376zm-5.677-2.156q.957.34 1.902.691l.941.354-1.064 2.805q-.92-.35-1.85-.688l-.935-.336zm-5.756-1.92q.97.303 1.927.615l.955.315-.948 2.846q-.933-.31-1.878-.612l-.948-.3zm-5.818-1.694 1.462.404 1.45.415-.839 2.88-1.423-.407-1.437-.397zm-5.866-1.486 1.476.354 1.464.364-.736 2.908-1.44-.358-1.451-.348zm-5.898-1.288 1.483.305 1.472.316-.64 2.93-1.45-.31-1.46-.3zm-5.951-1.111 1.494.262 1.484.271-.55 2.95-1.462-.268-1.474-.258zm-5.969-.94 1.499.22 1.488.23-.466 2.963-1.468-.225-1.479-.218zm-5.997-.78 1.5.18 1.492.19-.388 2.975-1.472-.188-1.482-.178zm-5.99-.632 1.503.145 1.494.153-.314 2.983-1.477-.15-1.486-.144zm-6.024-.495 1.508.111 1.5.12-.246 2.99-1.483-.119-1.492-.11zm-6.022-.365 1.51.08 1.503.087-.182 2.994-1.486-.086-1.495-.079zm-6.022-.244 1.51.05 1.504.058-.121 2.997-1.489-.056-1.497-.05zm-6.03-.13 1.512.023 1.503.029-.065 2.999-1.49-.029-1.497-.022zm-4.392-.027h.694l.686.002-.012 3-.68-.002H1185l-1.636-.001.003-3zm-7.619-.018 1.495.006 1.502.005-.008 3-1.506-.005-1.497-.006zm-5.983-.041 1.494.012 1.503.011-.02 3-1.506-.011-1.497-.013zm-6.013-.067 1.494.019 1.503.017-.034 3-1.506-.017-1.496-.02zm-5.988-.094 1.493.026 1.503.025-.047 3-1.506-.025-1.497-.026zm-5.975-.122 1.492.034 1.503.031-.062 3-1.506-.032-1.496-.034zm-6.01-.154 1.493.042 1.502.039-.077 2.999-1.506-.04-1.496-.041zm-5.97-.186 1.492.05 1.502.048-.094 2.998-1.506-.048-1.496-.05zm-5.994-.223 1.491.059 1.502.057-.111 2.998-1.507-.057-1.496-.06zm-5.984-.261 1.49.068 1.501.067-.13 2.997-1.507-.067-1.495-.069zm-5.99-.304 1.488.08 1.5.077-.152 2.996-1.506-.078-1.494-.08zm-5.965-.349 1.488.092 1.5.089-.175 2.995-1.506-.09-1.494-.091zm-5.984-.399 1.488.104 1.5.102-.2 2.993-1.507-.102-1.494-.105zm-5.966-.452 1.487.118 1.499.115-.227 2.991-1.507-.116-1.493-.118zm-5.957-.512 1.485.133 1.497.13-.257 2.99-1.505-.131-1.492-.134zm-5.952-.576 1.481.15 1.496.147-.29 2.986-1.503-.148-1.49-.15zm-5.95-.648 1.48.168 1.492.165-.325 2.982-1.502-.166-1.488-.17zm-5.944-.728 1.475.189 1.49.184-.364 2.978-1.5-.186-1.486-.19zm-5.922-.812 1.472.21 1.486.207-.407 2.972-1.499-.208-1.483-.212zm-5.896-.906 1.468.235 1.483.231-.455 2.965-1.496-.232-1.48-.237zm-5.895-1.012 1.463.262 1.477.257-.508 2.957-1.491-.26-1.477-.264zm-5.854-1.122 1.457.29 1.471.286-.564 2.947-1.487-.29-1.472-.293zm-5.836-1.247 1.45.322 1.463.317-.627 2.933-1.48-.32-1.465-.326zm-5.806-1.378 1.443.356 1.454.35-.692 2.918-1.472-.354-1.46-.36zm-5.773-1.515 1.435.39 1.443.383-.762 2.902-1.46-.388-1.452-.395zm-5.73-1.652 1.43.426 1.432.418-.83 2.882-1.45-.422-1.447-.431zm-5.692-1.784 1.425.46 1.42.449-.898 2.862-1.435-.454-1.44-.465zm-5.663-1.906q.954.331 1.891.65l.934.316-.957 2.843q-.939-.316-1.893-.643l-.958-.331zm-5.639-2.001q1.089.394 2.127.765l.69.245-1.005 2.827c-.69-.245-1.39-.496-2.11-.755l-.724-.262zm-5.618-2.063 2.369.875.44.162-1.036 2.815c-.728-.267-1.483-.546-2.31-.852l-.505-.187zm-5.627-2.09 2.534.94.277.104-1.045 2.812-2.655-.987-.154-.057zm-5.638-2.073 2.094.764.73.269-1.035 2.815c-.738-.271-1.445-.53-2.132-.78l-.68-.248zm-5.673-2.02q.93.325 1.882.661l.957.34-1.007 2.826q-.956-.34-1.89-.669l-.928-.324z"/>
    <text fill="#415CA3" font-family="OpenSans-Regular, Open Sans" font-size="30">
            <tspan x="846.498" y="131">50%</tspan>
        </text>
    <text fill="#415CA3" font-family="OpenSans-Regular, Open Sans" font-size="30">
            <tspan x="846.498" y="348">50%</tspan>
        </text>
    <text fill="#415CA3" font-family="OpenSans-Regular, Open Sans" font-size="30">
            <tspan x="846.498" y="985">50%</tspan>
        </text>
    <text fill="#415CA3" font-family="OpenSans-Regular, Open Sans" font-size="30">
            <tspan x="1221.498" y="985">50%</tspan>
        </text>
    <path fill="#696DC0" fill-rule="nonzero" d="m1328.568 435.552 2.864.896c-2.45 7.831-9.332 12.535-20.708 15.163-8.639 1.997-17.366 2.68-37.704 3.451-16.21.615-22.54.938-31.257 1.76-19.26 1.814-34.512 5.321-47.279 11.582-15.2 7.453-26.265 18.66-33.017 34.603-3.31 7.816-6.61 18.188-10.17 31.693-4.178 15.848-5.572 22.013-16.144 70.16-7.995 36.406-13.384 59.439-19.904 83.827-15.022 56.193-31.56 100.167-52.161 134.023-24.938 40.985-55.013 65.22-91.64 70.434-59.007 8.401-97.988 19.36-122.174 33.818-21.029 12.572-31.244 27.754-34.512 48.67l7.844.479-10.636 18.388-8.33-19.542 8.114.494c3.357-21.935 14.086-37.974 35.98-51.064 24.6-14.706 63.924-25.76 123.29-34.213 35.618-5.07 64.989-28.738 89.501-69.023 20.423-33.565 36.871-77.298 51.826-133.239 6.505-24.333 11.886-47.33 19.871-83.696 10.586-48.206 11.98-54.373 16.174-70.28 3.594-13.632 6.933-24.128 10.309-32.099 7.042-16.629 18.63-28.365 34.458-36.127 13.147-6.447 28.728-10.03 48.319-11.875 8.792-.829 15.157-1.154 31.425-1.77 20.13-.764 28.76-1.44 37.142-3.376 10.445-2.414 16.45-6.518 18.52-13.137"/>
    <rect width="346" height="136" x="639" y="1003" fill="#C3B9FF" fill-opacity=".296" stroke="#C3B9FF" stroke-width="4" rx="20"/>
    <rect width="346" height="136" x="1032" y="1003" fill="#C3B9FF" fill-opacity=".296" stroke="#C3B9FF" stroke-width="4" rx="20"/>
    <text fill="#1E2563" font-family="Courier" font-size="30">
            <tspan x="670" y="1064">Src: node</tspan>
            <tspan x="670" y="1100">Dst: 10.16.0.11</tspan>
        </text>
    <text fill="#1E2563" font-family="Courier" font-size="30">
            <tspan x="1063" y="1064">Src: node</tspan>
            <tspan x="1063" y="1100">Dst: 10.16.1.8</tspan>
        </text>
    <path fill="#696DC0" fill-rule="nonzero" d="m1328.562 883.573 2.876.854c-4.382 14.761-18.907 22.075-43.149 22.075-12.815 0-19.661.214-27.941 1.155-11.211 1.275-21.033 3.75-29.705 7.819-21.215 9.954-34.457 29.002-38.123 60.126l7.89.394-10.435 18.503-8.541-19.45 8.083.403c3.752-32.253 17.632-52.266 39.852-62.692 8.998-4.222 19.128-6.774 30.64-8.083 8.425-.958 15.357-1.175 28.28-1.175 23.06 0 36.342-6.688 40.273-19.929"/>
  </g>
</svg>
