<svg xmlns="http://www.w3.org/2000/svg" xmlns:xlink="http://www.w3.org/1999/xlink" width="1310" height="2620">
  <defs>
    <radialGradient id="ball" fx="75%" fy="25%">
      <stop offset="0%" stop-color="#fff"/>
      <stop offset="100%" stop-color="gray"/>
    </radialGradient>
    <radialGradient xlink:href="#ball" id="actinide">
      <stop offset="0%" stop-color="#fff"/>
      <stop offset="100%" stop-color="#f9c"/>
    </radialGradient>
    <radialGradient xlink:href="#ball" id="polyatomicnonmetal">
      <stop offset="0%" stop-color="#fff"/>
      <stop offset="100%" stop-color="#a0ffa0"/>
    </radialGradient>
    <radialGradient xlink:href="#ball" id="noblegas">
      <stop offset="0%" stop-color="#fff"/>
      <stop offset="100%" stop-color="#c0ffff"/>
    </radialGradient>
    <radialGradient xlink:href="#ball" id="alkali">
      <stop offset="0%" stop-color="#fff"/>
      <stop offset="100%" stop-color="#f66"/>
    </radialGradient>
    <radialGradient xlink:href="#ball" id="alkaline">
      <stop offset="0%" stop-color="#fff"/>
      <stop offset="100%" stop-color="#ffdead"/>
    </radialGradient>
    <radialGradient xlink:href="#ball" id="metalloid">
      <stop offset="0%" stop-color="#fff"/>
      <stop offset="100%" stop-color="#cc9"/>
    </radialGradient>
    <radialGradient xlink:href="#ball" id="diatomicnonmetal">
      <stop offset="0%" stop-color="#fff"/>
      <stop offset="100%" stop-color="#e7ff8f"/>
    </radialGradient>
    <radialGradient xlink:href="#ball" id="posttransitionmetal">
      <stop offset="0%" stop-color="#fff"/>
      <stop offset="100%" stop-color="#ccc"/>
    </radialGradient>
    <radialGradient xlink:href="#ball" id="lanthanide">
      <stop offset="0%" stop-color="#fff"/>
      <stop offset="100%" stop-color="#ffbfff"/>
    </radialGradient>
    <radialGradient xlink:href="#ball" id="transition">
      <stop offset="0%" stop-color="#fff"/>
      <stop offset="100%" stop-color="#ffc0c0"/>
    </radialGradient>
    <marker id="Arrow2Mend" orient="auto" overflow="visible" refX="0" refY="0">
      <path id="path4011" fill-rule="evenodd" stroke-linejoin="round" stroke-width=".625" d="M8.719 4.034-2.207.016 8.719-4.002c-1.746 2.372-1.736 5.618 0 8.036" font-size="12" transform="scale(-1)"/>
    </marker>
    <style>
      tspan{font-size:25px}.symbol{font-size:90px;font-weight:700;stroke:none}.halflife,.su,.symbol,tspan{font-family:DejaVu Sans Condensed,sans-serif}.su{font-size:32px;text-anchor:end;letter-spacing:-3px}.halflife{text-anchor:middle;font-size:30px}circle{stroke-width:3.5;stroke:#000}.alkali{fill:url(#alkali)}.alkaline{fill:url(#alkaline)}.metalloid{fill:url(#metalloid)}.posttransitionmetal{fill:url(#posttransitionmetal)}.actinide{fill:url(#actinide)}.ab{font-family:Liberation Sans,sans-serif;font-style:italic;font-size:40px}.background0{stroke:none;fill:#fff}.background1{stroke:none;fill:#f5f5f5}.SideKey,.key{font-family:DejaVu Sans,sans-serif}.SideKey{fill:#000;font-size:40px;text-anchor:end}.key{font-size:25px}
    </style>
  </defs>
  <path d="M10 10h1290v200H10z" class="background0"/>
  <path d="M10 210h1290v200H10z" class="background1"/>
  <path d="M10 410h1290v200H10z" class="background0"/>
  <path d="M10 610h1290v200H10z" class="background1"/>
  <path d="M10 810h1290v200H10z" class="background0"/>
  <path d="M10 1010h1290v200H10z" class="background1"/>
  <path d="M10 1210h1290v200H10z" class="background0"/>
  <path d="M10 1410h1290v200H10z" class="background1"/>
  <path d="M10 1610h1290v200H10z" class="background0"/>
  <path d="M10 1810h1290v200H10z" class="background1"/>
  <path d="M10 2010h1290v200H10z" class="background0"/>
  <path d="M10 2210h1290v200H10z" class="background1"/>
  <path d="M10 2410h1290v200H10z" class="background0"/>
  <text x="1290" y="200" class="SideKey">Neptunium</text>
  <text x="1290" y="400" class="SideKey">Uranium</text>
  <text x="1290" y="600" class="SideKey">Protactinium</text>
  <text x="1290" y="800" class="SideKey">Thorium</text>
  <text x="1290" y="1000" class="SideKey">Actinium</text>
  <text x="1290" y="1200" class="SideKey">Radium</text>
  <text x="1290" y="1400" class="SideKey">Francium</text>
  <text x="1290" y="1600" class="SideKey">Radon</text>
  <text x="1290" y="1800" class="SideKey">Astatine</text>
  <text x="1290" y="2000" class="SideKey">Polonium</text>
  <text x="1290" y="2200" class="SideKey">Bismuth</text>
  <text x="1290" y="2400" class="SideKey">Lead</text>
  <text x="1290" y="2600" class="SideKey">Thallium</text>
  <path fill="#fff" stroke="#000" stroke-width="2" d="M10 2360h340v340H10z"/>
  <path d="M20 2370h40v40H20z" class="actinide"/>
  <text x="65" y="130" class="key" transform="translate(0 2270)">Actinide</text>
  <path d="M20 2420h40v40H20z" class="alkali"/>
  <text x="65" y="180" class="key" transform="translate(0 2270)">Alkali metal</text>
  <path d="M20 2470h40v40H20z" class="alkaline"/>
  <text x="65" y="230" class="key" transform="translate(0 2270)">Alkaline earth metal</text>
  <path d="M20 2520h40v40H20z" class="metalloid"/>
  <text x="65" y="280" class="key" transform="translate(0 2270)">Metalloid</text>
  <path d="M20 2570h40v40H20z" class="posttransitionmetal"/>
  <text x="65" y="330" class="key" transform="translate(0 2270)">Post-transition metal</text>
  <circle cx="110" cy="110" r="100" stroke="#000" stroke-width="3.5" class="actinide"/>
  <text>
	<tspan x="80" y="115" class="su">93</tspan><tspan x="80" class="su" dy="-42">237</tspan><tspan x="80" class="symbol" dy="42">Np</tspan><tspan x="110" class="halflife" dy="1.4em">2.144e+06</tspan><tspan x="110" class="halflife" dy="1em">Years</tspan>
</text>
  <path d="M110 210v195"/>
  <text x="115" y="310" class="ab">α</text>
  <circle cx="110" cy="510" r="100" stroke="#000" stroke-width="3.5" class="actinide"/>
  <text>
	<tspan x="80" y="515" class="su">91</tspan><tspan x="80" class="su" dy="-42">233</tspan><tspan x="80" class="symbol" dy="42">Pa</tspan><tspan x="110" class="halflife" dy="1.4em">26.967</tspan><tspan x="110" class="halflife" dy="1em">Days</tspan>
</text>
  <path d="m181 439 55-55"/>
  <text x="200" y="450" class="ab">β⁻</text>
  <circle cx="310" cy="310" r="100" stroke="#000" stroke-width="3.5" class="actinide"/>
  <text>
	<tspan x="280" y="315" class="su">92</tspan><tspan x="280" class="su" dy="-42">233</tspan><tspan x="280" class="symbol" dy="42">U</tspan><tspan x="310" class="halflife" dy="1.4em">159200</tspan><tspan x="310" class="halflife" dy="1em">Years</tspan>
</text>
  <path d="M310 410v195"/>
  <text x="315" y="510" class="ab">α</text>
  <circle cx="310" cy="710" r="100" stroke="#000" stroke-width="3.5" class="actinide"/>
  <text>
	<tspan x="280" y="715" class="su">90</tspan><tspan x="280" class="su" dy="-42">229</tspan><tspan x="280" class="symbol" dy="42">Th</tspan><tspan x="310" class="halflife" dy="1.4em">7340</tspan><tspan x="310" class="halflife" dy="1em">Years</tspan>
</text>
  <path d="M310 810v195"/>
  <text x="315" y="910" class="ab">α</text>
  <circle cx="310" cy="1110" r="100" stroke="#000" stroke-width="3.5" class="alkaline"/>
  <text>
	<tspan x="280" y="1115" class="su">88</tspan><tspan x="280" class="su" dy="-42">225</tspan><tspan x="280" class="symbol" dy="42">Ra</tspan><tspan x="310" class="halflife" dy="1.4em">14.9</tspan><tspan x="310" class="halflife" dy="1em">Days</tspan>
</text>
  <path d="m381 1039 55-55"/>
  <text x="400" y="1050" class="ab">β⁻</text>
  <circle cx="510" cy="910" r="100" stroke="#000" stroke-width="3.5" class="actinide"/>
  <text>
	<tspan x="480" y="915" class="su">89</tspan><tspan x="480" class="su" dy="-42">225</tspan><tspan x="480" class="symbol" dy="42">Ac</tspan><tspan x="510" class="halflife" dy="1.4em">10</tspan><tspan x="510" class="halflife" dy="1em">Days</tspan>
</text>
  <path d="M510 1010v195"/>
  <text x="515" y="1110" class="ab">α</text>
  <circle cx="510" cy="1310" r="100" stroke="#000" stroke-width="3.5" class="alkali"/>
  <text>
	<tspan x="480" y="1315" class="su">87</tspan><tspan x="480" class="su" dy="-42">221</tspan><tspan x="480" class="symbol" dy="42">Fr</tspan><tspan x="510" class="halflife" dy="1.4em">4.9</tspan><tspan x="510" class="halflife" dy="1em">Minutes</tspan>
</text>
  <path d="M510 1410v195"/>
  <text x="515" y="1510" class="ab">α</text>
  <circle cx="510" cy="1710" r="100" stroke="#000" stroke-width="3.5" class="metalloid"/>
  <text>
	<tspan x="480" y="1715" class="su">85</tspan><tspan x="480" class="su" dy="-42">217</tspan><tspan x="480" class="symbol" dy="42">At</tspan><tspan x="510" class="halflife" dy="1.4em">0.0323</tspan><tspan x="510" class="halflife" dy="1em">Seconds</tspan>
</text>
  <path d="M510 1810v195"/>
  <text x="515" y="1910" class="ab">α</text>
  <circle cx="510" cy="2110" r="100" stroke="#000" stroke-width="3.5" class="posttransitionmetal"/>
  <text>
	<tspan x="480" y="2115" class="su">83</tspan><tspan x="480" class="su" dy="-42">213</tspan><tspan x="480" class="symbol" dy="42">Bi</tspan><tspan x="510" class="halflife" dy="1.4em">45.59</tspan><tspan x="510" class="halflife" dy="1em">Minutes</tspan>
</text>
  <path d="M510 2210v195"/>
  <text x="515" y="2310" class="ab">α</text>
  <circle cx="510" cy="2510" r="100" stroke="#000" stroke-width="3.5" class="posttransitionmetal"/>
  <text>
	<tspan x="480" y="2515" class="su">81</tspan><tspan x="480" class="su" dy="-42">209</tspan><tspan x="480" class="symbol" dy="42">Tl</tspan><tspan x="510" class="halflife" dy="1.4em">2.161</tspan><tspan x="510" class="halflife" dy="1em">Minutes</tspan>
</text>
  <path d="m581 2439 55-55"/>
  <text x="600" y="2450" class="ab">β⁻</text>
  <circle cx="710" cy="2310" r="100" stroke="#000" stroke-width="3.5" class="posttransitionmetal"/>
  <text>
	<tspan x="680" y="2315" class="su">82</tspan><tspan x="680" class="su" dy="-42">209</tspan><tspan x="680" class="symbol" dy="42">Pb</tspan><tspan x="710" class="halflife" dy="1.4em">3.253</tspan><tspan x="710" class="halflife" dy="1em">Hours</tspan>
</text>
  <path d="m781 2239 55-55"/>
  <text x="800" y="2250" class="ab">β⁻</text>
  <circle cx="910" cy="2110" r="100" stroke="#000" stroke-width="3.5" class="posttransitionmetal"/>
  <text>
	<tspan x="880" y="2115" class="su">83</tspan><tspan x="880" class="su" dy="-42">209</tspan><tspan x="880" class="symbol" dy="42">Bi</tspan><tspan x="910" class="halflife" dy="1.4em">1.9e+19</tspan><tspan x="910" class="halflife" dy="1em">Years</tspan>
</text>
  <path d="M910 2210v195"/>
  <text x="915" y="2310" class="ab">α</text>
  <circle cx="910" cy="2510" r="100" stroke="#000" stroke-width="3.5" class="posttransitionmetal"/>
  <text>
	<tspan x="880" y="2515" class="su">81</tspan><tspan x="880" class="su" dy="-42">205</tspan><tspan x="880" class="symbol" dy="42">Tl</tspan><tspan x="910" class="halflife" dy="1.4em">Stable</tspan>
</text>
  <path d="m581 2039 55-55"/>
  <text x="600" y="2050" class="ab">β⁻</text>
  <circle cx="710" cy="1910" r="100" stroke="#000" stroke-width="3.5" class="posttransitionmetal"/>
  <text>
	<tspan x="680" y="1915" class="su">84</tspan><tspan x="680" class="su" dy="-42">213</tspan><tspan x="680" class="symbol" dy="42">Po</tspan><tspan x="710" class="halflife" dy="1.4em">4.2e-06</tspan><tspan x="710" class="halflife" dy="1em">Seconds</tspan>
</text>
  <path d="M710 2010v195"/>
  <text x="715" y="2110" class="ab">α</text>
</svg>
