<svg xmlns="http://www.w3.org/2000/svg" xmlns:xlink="http://www.w3.org/1999/xlink" width="490" height="690" viewBox="0 0 490 690">
  <defs>
    <path id="c" fill="#000" stroke="none" d="M3 0-9 7V-7z"/>
  </defs>
  <defs>
    <g id="h" fill="#000">
      <path stroke-width="3" marker-end="url(#a)" d="M0-25v48"/>
      <text x="-5" y="12" font-size="16" font-style="italic" text-anchor="end">α</text>
    </g>
    <g id="p" fill="#000">
      <path stroke-width="3" marker-end="url(#a)" d="M-12 8 12-8"/>
      <text x="-1" y="-2" font-size="16" font-style="italic" text-anchor="end">β<tspan dx="1" dy="-6">-</tspan>
</text>
    </g>
    <g id="g">
      <use xlink:href="#b" fill="red" color="silver"/>
      <g font-size="7pt" text-anchor="end">
        <text y="-5" transform="scale(.85 1)">234m</text>
        <text x="-1" y="4.5">91</text>
        <text y="14" text-anchor="middle">1.17 min</text>
      </g>
      <text x="12" y="4" stroke-width=".6" font-size="20" text-anchor="middle">Pa</text>
    </g>
    <g id="f">
      <use xlink:href="#b" fill="red" color="#D8D888"/>
      <g font-size="7pt" text-anchor="end">
        <text x="-4" y="-5">226</text>
        <text x="-4" y="4.5">88</text>
        <text y="14" text-anchor="middle">1 602 y</text>
      </g>
      <text x="10" y="4" stroke-width=".6" font-size="20" text-anchor="middle">Ra</text>
    </g>
    <g id="i">
      <use xlink:href="#b" fill="red" color="#E0E078"/>
      <g font-size="7pt" text-anchor="end">
        <text x="-4" y="-5">222</text>
        <text x="-4" y="4.5">86</text>
        <text y="14" text-anchor="middle">3.82 d</text>
      </g>
      <text x="10" y="4" stroke-width=".6" font-size="20" text-anchor="middle">Rn</text>
    </g>
    <g id="m">
      <use xlink:href="#b" fill="red" color="#90B4DA"/>
      <g font-size="7pt" text-anchor="end">
        <text x="-3" y="-5">218</text>
        <text x="-3" y="4.5">85</text>
        <text y="14" text-anchor="middle">1.5 s</text>
      </g>
      <text x="10" y="4" stroke-width=".6" font-size="20" text-anchor="middle">At</text>
    </g>
    <g id="l">
      <use xlink:href="#b" fill="red" color="#B4C0C0"/>
      <g font-size="7pt" text-anchor="end">
        <text x="-4" y="-5">206</text>
        <text x="-4" y="4.5">80</text>
        <text y="14" text-anchor="middle">8.32 min</text>
      </g>
      <text x="10" y="4" stroke-width=".6" font-size="20" text-anchor="middle">Hg</text>
    </g>
    <marker id="a" orient="auto" overflow="visible" refX="0" refY="0">
      <use xlink:href="#c" transform="scale(.3)"/>
    </marker>
    <path id="b" fill="currentColor" stroke="#000" stroke-width="1" d="M24.14-10 10-24.14h-20L-24.14-10v20L-10 24.14h20L24.14 10z"/>
  </defs>
  <g font-family="Liberation Sans, Helvetica, sans_serif" transform="translate(44.036 50.714)">
    <g id="d">
      <use xlink:href="#b" width="490" height="690" fill="red" color="#c8c8c8"/>
      <text x="8" y="4" stroke="#000" stroke-width=".6" font-size="18.75" text-anchor="middle">U</text>
      <text x="-2" y="4.5" font-size="8.75" text-anchor="end">92</text>
    </g>
    <g font-size="8.75">
      <text x="-2" y="-5" text-anchor="end">238</text>
      <text y="14" text-anchor="middle">4.5 Gy</text>
    </g>
  </g>
  <g font-family="Liberation Sans, Helvetica, sans_serif" transform="translate(174.036 50.714)">
    <use xlink:href="#d" width="490" height="690"/>
    <g font-size="8.75">
      <text x="-2" y="-5" text-anchor="end">234</text>
      <text y="14" text-anchor="middle">245.5 ky</text>
    </g>
  </g>
  <g font-family="Liberation Sans, Helvetica, sans_serif" transform="translate(44.036 150.714)">
    <g id="e">
      <use xlink:href="#b" width="490" height="690" fill="red" color="#c8c8c8"/>
      <text x="10" y="4" stroke="#000" stroke-width=".6" font-size="18.75" text-anchor="middle">Th</text>
      <text x="-4" y="4.5" font-size="8.75" text-anchor="end">90</text>
    </g>
    <g font-size="8.75">
      <text x="-4" y="-5" text-anchor="end">234</text>
      <text y="14" text-anchor="middle">24.1 d</text>
    </g>
  </g>
  <g font-family="Liberation Sans, Helvetica, sans_serif" transform="translate(174.036 150.714)">
    <use xlink:href="#e" width="490" height="690"/>
    <g font-size="8.75">
      <text x="-4" y="-5" text-anchor="end">230</text>
      <text y="14" text-anchor="middle">75.38 ky</text>
    </g>
  </g>
  <use xlink:href="#f" width="490" height="690" x="190" y="260" stroke="#000" font-family="Liberation Sans, Helvetica, sans_serif" transform="translate(-15.964 -9.286)"/>
  <use xlink:href="#g" width="490" height="690" x="125" y="110" stroke="#000" font-family="Liberation Sans, Helvetica, sans_serif" transform="translate(-15.964 -9.286)"/>
  <use xlink:href="#h" width="490" height="690" x="60" y="110" stroke="#000" font-family="Liberation Sans, Helvetica, sans_serif" transform="translate(-15.964 -9.286)"/>
  <use xlink:href="#h" width="490" height="690" x="190" y="110" stroke="#000" font-family="Liberation Sans, Helvetica, sans_serif" transform="translate(-15.964 -9.286)"/>
  <use xlink:href="#h" width="490" height="690" x="190" y="210" stroke="#000" font-family="Liberation Sans, Helvetica, sans_serif" transform="translate(-15.964 -9.286)"/>
  <use xlink:href="#h" width="490" height="690" x="190" y="310" stroke="#000" font-family="Liberation Sans, Helvetica, sans_serif" transform="translate(-15.964 -9.286)"/>
  <g font-family="Liberation Sans, Helvetica, sans_serif">
    <use xlink:href="#i" width="490" height="690" x="190" y="360" stroke="#000" transform="translate(-15.964 -9.286)"/>
    <g transform="translate(174.036 450.714)">
      <g id="j">
        <use xlink:href="#b" width="490" height="690" fill="red" color="#d8d8b0"/>
        <text x="10" y="4" stroke="#000" stroke-width=".6" font-size="18.75" text-anchor="middle">Po</text>
        <text x="-4" y="4.5" font-size="8.75" text-anchor="end">84</text>
      </g>
      <g font-size="8.75">
        <text x="-4" y="-5" text-anchor="end">218</text>
        <text y="14" text-anchor="middle">3.1 min</text>
      </g>
    </g>
    <g transform="translate(304.036 450.714)">
      <use xlink:href="#j" width="490" height="690"/>
      <g font-size="8.75">
        <text x="-4" y="-5" text-anchor="end">214</text>
        <text y="14" text-anchor="middle">164.3 μs</text>
      </g>
    </g>
    <g transform="translate(434.036 450.714)">
      <use xlink:href="#j" width="490" height="690"/>
      <g font-size="8.75">
        <text x="-4" y="-5" text-anchor="end">210</text>
        <text y="14" text-anchor="middle">138 d</text>
      </g>
    </g>
    <g transform="translate(174.036 550.714)">
      <g id="k">
        <use xlink:href="#b" width="490" height="690" fill="red" color="#b4b4b4"/>
        <text x="10" y="4" stroke="#000" stroke-width=".6" font-size="18.75" text-anchor="middle">Pb</text>
        <text x="-4" y="4.5" font-size="8.75" text-anchor="end">82</text>
      </g>
      <g font-size="8.75">
        <text x="-4" y="-5" text-anchor="end">214</text>
        <text y="14" text-anchor="middle">26.8 min</text>
      </g>
    </g>
    <g transform="translate(304.036 550.714)">
      <use xlink:href="#k" width="490" height="690"/>
      <g font-size="8.75">
        <text x="-4" y="-5" text-anchor="end">210</text>
        <text y="14" text-anchor="middle">22.2 y</text>
      </g>
    </g>
    <g transform="translate(434.036 550.714)">
      <use xlink:href="#k" width="490" height="690"/>
      <g font-size="8.75">
        <text x="-4" y="-5" text-anchor="end">206</text>
        <text y="14" text-anchor="middle">Stable</text>
      </g>
    </g>
    <use xlink:href="#l" width="490" height="690" x="320" y="660" stroke="#000" transform="translate(-15.964 -9.286)"/>
    <use xlink:href="#m" width="490" height="690" x="255" y="410" stroke="#000" transform="translate(-15.964 -9.286)"/>
    <g transform="translate(239.036 500.714)">
      <g id="n">
        <use xlink:href="#b" width="490" height="690" fill="red" color="#cc90a0"/>
        <text x="-4" y="4.5" font-size="8.75" text-anchor="end">83</text>
        <text x="10" y="4" stroke="#000" stroke-width=".6" font-size="18.75" text-anchor="middle">Bi</text>
      </g>
      <g font-size="8.75" text-anchor="end">
        <text x="-4" y="-5">214</text>
        <text y="14" text-anchor="middle">19.9 min</text>
      </g>
    </g>
    <g transform="translate(369.036 500.714)">
      <use xlink:href="#n" width="490" height="690"/>
      <g font-size="8.75" text-anchor="end">
        <text x="-4" y="-5">210</text>
        <text y="14" text-anchor="middle">5.01 d</text>
      </g>
    </g>
    <g transform="translate(239.036 600.714)">
      <g id="o">
        <use xlink:href="#b" width="490" height="690" fill="red" color="#c8c8c8"/>
        <text x="-3" y="4.5" font-size="8.75" text-anchor="end">81</text>
        <text x="10" y="4" stroke="#000" stroke-width=".6" font-size="18.75" text-anchor="middle">Tl</text>
      </g>
      <g font-size="8.75" text-anchor="end">
        <text x="-3" y="-5">210</text>
        <text y="14" text-anchor="middle">1.3 min</text>
      </g>
    </g>
    <g transform="translate(369.036 600.714)">
      <use xlink:href="#o" width="490" height="690"/>
      <g font-size="8.75" text-anchor="end">
        <text x="-3" y="-5">206</text>
        <text y="14" text-anchor="middle">4.2 min</text>
      </g>
    </g>
    <use xlink:href="#h" width="490" height="690" x="190" y="410" stroke="#000" transform="translate(-15.964 -9.286)"/>
    <use xlink:href="#h" width="490" height="690" x="190" y="510" stroke="#000" transform="translate(-15.964 -9.286)"/>
    <use xlink:href="#h" width="490" height="690" x="320" y="510" stroke="#000" transform="translate(-15.964 -9.286)"/>
    <use xlink:href="#h" width="490" height="690" x="320" y="610" stroke="#000" stroke-dasharray="1 1" transform="translate(-15.964 -9.286)"/>
    <use xlink:href="#h" width="490" height="690" x="450" y="510" stroke="#000" transform="translate(-15.964 -9.286)"/>
    <use xlink:href="#h" width="490" height="690" x="255" y="460" stroke="#000" transform="translate(-15.964 -9.286)"/>
    <use xlink:href="#h" width="490" height="690" x="255" y="560" stroke="#000" stroke-dasharray="1 1" transform="translate(-15.964 -9.286)"/>
    <use xlink:href="#h" width="490" height="690" x="385" y="560" stroke="#000" stroke-dasharray="1 1" transform="translate(-15.964 -9.286)"/>
    <use xlink:href="#p" width="490" height="690" x="92" y="135" stroke="#000" transform="translate(-15.964 -9.286)"/>
    <use xlink:href="#p" width="490" height="690" x="157" y="85" stroke="#000" transform="translate(-15.964 -9.286)"/>
    <use xlink:href="#p" width="490" height="690" x="222" y="535" stroke="#000" transform="translate(-15.964 -9.286)"/>
    <use xlink:href="#p" width="490" height="690" x="352" y="535" stroke="#000" transform="translate(-15.964 -9.286)"/>
    <use xlink:href="#p" width="490" height="690" x="352" y="635" stroke="#000" stroke-dasharray="1 2" transform="translate(-148.464 -210.536)"/>
    <use xlink:href="#p" width="490" height="690" x="287" y="485" stroke="#000" transform="translate(-15.964 -9.286)"/>
    <use xlink:href="#p" width="490" height="690" x="287" y="585" stroke="#000" transform="translate(-15.964 -9.286)"/>
    <use xlink:href="#p" width="490" height="690" x="417" y="485" stroke="#000" transform="translate(-15.964 -9.286)"/>
    <use xlink:href="#p" width="490" height="690" x="417" y="585" stroke="#000" transform="translate(-15.964 -9.286)"/>
    <g font-size="15">
      <text x="274.172" y="50" transform="translate(-15.964 5.714)">Uranium</text>
      <text x="274.194" y="100" transform="translate(-15.964 5.714)">Protactinium</text>
      <text x="275" y="150" transform="translate(-15.964 5.714)">Thorium</text>
      <text x="274.172" y="250" transform="translate(-15.964 5.714)">Radium</text>
      <text x="274.172" y="350" transform="translate(-15.964 5.714)">Radon</text>
      <text x="50" y="400" transform="translate(-15.964 5.714)">Astatine</text>
      <text x="48.821" y="450" transform="translate(-15.964 5.714)">Polonium</text>
      <text x="48.879" y="500" transform="translate(-15.964 5.714)">Bismuth</text>
      <text x="48.879" y="550" transform="translate(-15.964 5.714)">Lead</text>
      <text x="49.626" y="600" transform="translate(-15.964 5.714)">Thallium</text>
      <text x="48.865" y="650" transform="translate(-15.964 5.714)">Mercury</text>
    </g>
    <use xlink:href="#p" width="490" height="690" x="352" y="635" stroke="#000" transform="translate(-14.372 -9.25)"/>
  </g>
</svg>
