<svg xmlns="http://www.w3.org/2000/svg" xmlns:xlink="http://www.w3.org/1999/xlink" id="svg129" width="1390" height="1330" font-family="system-ui,sans-serif" version="1.1">
  <style id="style1" type="text/css">
    .pchar,.pmass,.pspin{font-size:24px;fill:#1a1a1a}.psymg,.psymr{text-anchor:middle}.psymr{font-size:64px;font-family:Arial}.psymg{font-size:72px;font-family:Times New Roman}.sub{font-size:48px;baseline-shift:-8px}.pname,.txcol{font-size:42px;font-weight:600;text-anchor:middle;fill:#012}.txcol{font-size:30px}.pinteract{fill-opacity:.03;fill:#e6cc01;stroke:#722;stroke-miterlimit:10;stroke-opacity:.15}.pballglow{opacity:.25;fill:#fff}.columnbox{opacity:.5;fill:#cdf}
  </style>
  <defs id="defs31">
    <linearGradient id="lgb_quark" x1="45" x2="200" y1="-15" y2="250" gradientUnits="userSpaceOnUse">
      <stop id="stop1" offset="0" stop-color="#EBF"/>
      <stop id="stop2" offset="1" stop-color="#A7D"/>
    </linearGradient>
    <linearGradient id="lgb_lepton" x1="45" x2="200" y1="-15" y2="250" gradientUnits="userSpaceOnUse">
      <stop id="stop3" offset="0" stop-color="#AE7"/>
      <stop id="stop4" offset="1" stop-color="#6C3"/>
    </linearGradient>
    <linearGradient id="lgb_gauge" x1="45" x2="200" y1="-15" y2="250" gradientUnits="userSpaceOnUse">
      <stop id="stop5" offset="0" stop-color="#F97"/>
      <stop id="stop6" offset="1" stop-color="#D54"/>
    </linearGradient>
    <linearGradient id="lgb_scalar" x1="45" x2="200" y1="-15" y2="250" gradientUnits="userSpaceOnUse">
      <stop id="stop7" offset="0" stop-color="#EEE677"/>
      <stop id="stop8" offset="1" stop-color="#EB3"/>
    </linearGradient>
    <linearGradient id="lgp_quark" x1="120" x2="165" y1="60" y2="140" gradientUnits="userSpaceOnUse">
      <stop id="stop11" offset="0" stop-color="#EBF"/>
      <stop id="stop12" offset="1" stop-color="#A7D"/>
    </linearGradient>
    <linearGradient id="lgp_lepton" x1="120" x2="165" y1="60" y2="140" gradientUnits="userSpaceOnUse">
      <stop id="stop13" offset="0" stop-color="#AE7"/>
      <stop id="stop14" offset="1" stop-color="#6C3"/>
    </linearGradient>
    <linearGradient id="lgp_gauge" x1="120" x2="165" y1="60" y2="140" gradientUnits="userSpaceOnUse">
      <stop id="stop15" offset="0" stop-color="#F97"/>
      <stop id="stop16" offset="1" stop-color="#D54"/>
    </linearGradient>
    <linearGradient id="lgp_scalar" x1="120" x2="165" y1="60" y2="140" gradientUnits="userSpaceOnUse">
      <stop id="stop17" offset="0" stop-color="#EEE677"/>
      <stop id="stop18" offset="1" stop-color="#EB3"/>
    </linearGradient>
    <g id="box">
      <rect id="rect20" width="230" height="230" x="5" y="5" fill="none" stroke-width="10" rx="25" ry="25"/>
    </g>
    <g id="ball">
      <circle id="circle20" cx="120" cy="100" r="50.4" class="pballglow"/>
      <circle id="circle21" cx="120" cy="100" r="47.7" class="pballglow"/>
      <circle id="circle22" cx="120" cy="100" r="45"/>
    </g>
    <g id="tilequ">
      <use xlink:href="#box" id="use22" stroke="url(#lgb_quark)"/>
      <use xlink:href="#ball" id="use23" fill="url(#lgp_quark)"/>
    </g>
    <g id="tilele">
      <use xlink:href="#box" id="use24" stroke="url(#lgb_lepton)"/>
      <use xlink:href="#ball" id="use25" fill="url(#lgp_lepton)"/>
    </g>
    <g id="tilegb">
      <use xlink:href="#box" id="use26" stroke="url(#lgb_gauge)"/>
      <use xlink:href="#ball" id="use27" fill="url(#lgp_gauge)"/>
    </g>
    <g id="tilesb">
      <use xlink:href="#box" id="use28" stroke="url(#lgb_scalar)"/>
      <use xlink:href="#ball" id="use29" fill="url(#lgp_scalar)"/>
    </g>
  </defs>
  <switch id="switch31" font-size="64" font-weight="700" text-anchor="middle">
    <path id="text31" d="M460.176 40.664h7.872v4.8h8.768v6.208h-8.768v19.2h11.904v6.272h-11.84q2.624 2.304 5.888 4.288 3.264 1.92 6.656 3.136-1.216 1.024-2.752 2.816-1.472 1.728-2.304 3.072-5.44-2.496-10.112-6.656v4.736h-11.712v4.16h21.056v6.272h-49.024v-6.272h20.16v-4.16H434.64V84.44q-4.672 4.096-10.24 6.592-.832-1.28-2.304-3.008-1.408-1.792-2.624-2.816 3.584-1.28 6.912-3.392 3.392-2.112 6.016-4.672h-12.352v-6.272h12.288v-19.2h-8.832v-6.208h8.832V40.6h7.68v4.864h20.16zm-20.16 11.008v2.752h20.16v-2.752zm0 8.128v2.816h20.16V59.8Zm0 8.192v2.88h20.16v-2.88zm5.952 10.432h7.808v4.032h10.304q-2.496-2.432-4.608-5.312h-18.176q-1.92 2.816-4.544 5.312h9.216zm69.936-17.536h-.448q-2.176 5.888-5.056 11.264-2.88 5.376-6.336 9.92h11.84zm8.128 0v21.184h11.52q-3.456-4.544-6.272-9.92-2.816-5.44-4.992-11.264zm-8.128-20.224h8.128V53.08h24.32v7.808H532.16q3.008 7.04 7.68 13.248 4.736 6.208 10.368 9.984-1.472 1.216-3.264 3.2-1.792 1.92-2.816 3.584-1.792-1.408-3.52-3.072-1.664-1.664-3.264-3.52v5.568h-13.312v10.88h-8.128V89.88H502.4v-5.76q-3.392 4.032-7.232 7.04-1.024-1.472-2.688-3.264-1.6-1.856-2.944-2.944 3.776-2.56 7.104-6.336 3.392-3.776 6.144-8.32 2.816-4.544 4.8-9.408h-15.808V53.08h24.128zm44.4 5.568 5.056-1.28q1.28 3.456 2.112 7.488.896 3.968 1.152 6.976l-5.44 1.344q-.064-1.984-.512-4.48-.384-2.496-1.024-5.12-.576-2.688-1.344-4.928zm27.84 16.256 6.464-1.664q1.088 4.288 2.048 9.152 1.024 4.8 1.792 9.344.832 4.48 1.216 7.744l-7.104 2.176q-.256-3.328-.96-7.936-.704-4.608-1.6-9.536-.896-4.928-1.856-9.28zm-8.832-17.984 6.016 1.28q-1.216 3.776-2.56 7.872-1.28 4.096-2.432 6.848l-4.352-1.216v2.688h8.192v7.168h-8.192v1.6q.96.96 2.24 2.432 1.344 1.472 2.624 3.008 1.344 1.536 2.368 2.816 1.024 1.28 1.472 1.856l-4.736 6.08q-.64-1.408-1.728-3.328-1.024-1.92-2.24-3.904v20.864h-7.168V80.92q-1.344 3.584-2.88 6.848-1.472 3.2-3.136 5.632-.512-1.792-1.6-4.032-1.024-2.304-1.92-3.904 1.6-1.984 3.072-4.672 1.536-2.688 2.816-5.696 1.344-3.072 2.304-5.952h-7.104v-7.168h8.448V40.728h7.168V58.84q.64-1.984 1.28-4.48.64-2.56 1.152-5.12.576-2.56.896-4.736zm16.64-2.56 7.04-1.792q.896 2.304 1.792 4.992.96 2.624 1.408 4.544l-6.08 1.728h18.048v7.168h-32.832v-7.168h13.376q-.384-1.984-1.152-4.608-.768-2.688-1.6-4.864zm-12.928 48.832h19.968q1.088-4.224 2.048-9.472.96-5.248 1.728-10.624.832-5.44 1.216-10.048l7.744 1.216q-.768 4.8-1.792 9.984-.96 5.12-2.112 10.048-1.088 4.864-2.176 8.896h10.24v7.616h-36.864Zm73.328-31.296q3.072-1.472 6.336-3.456 3.328-2.048 6.144-4.16H637.28v-7.552h40.064l1.728-.448 5.888 4.544q-4.096 3.968-9.6 8.064-5.504 4.032-11.008 7.04v4.864h24.96v7.744h-24.96v15.488q0 3.2-.896 4.992-.832 1.792-3.136 2.688-2.368.896-5.696 1.152-3.328.256-7.744.192-.32-1.664-1.344-4.032-.96-2.304-1.92-3.904 2.24.128 4.48.192t3.968.064q1.728-.064 2.432-.064 1.088-.064 1.472-.32.384-.32.384-1.152V76.12H630.88v-7.744h25.472zm71.536-14.912h28.224v7.168h-28.224zm19.584 30.272 6.336-2.176q1.472 3.2 2.752 6.848 1.344 3.648 2.368 7.104 1.024 3.456 1.408 6.144l-6.912 2.496q-.32-2.624-1.216-6.144-.896-3.52-2.112-7.232-1.216-3.776-2.624-7.04zm-19.712-1.92 6.912 1.6q-.896 3.712-2.24 7.488-1.344 3.776-2.944 7.104-1.536 3.328-3.2 5.824-.64-.576-1.792-1.344-1.088-.768-2.24-1.472-1.152-.768-1.984-1.152 2.432-3.328 4.352-8.192 1.984-4.864 3.136-9.856zm-2.816-13.056h34.752v7.168h-14.4v24.704q0 2.816-.576 4.544-.512 1.728-2.368 2.688-1.792.96-4.224 1.152-2.368.256-5.632.256-.128-1.664-.768-3.968-.64-2.24-1.408-3.904 1.92.064 3.648.064h2.432q.64 0 .832-.192.256-.192.256-.832V67.032h-12.544ZM709.072 40.6h7.616v12.672h7.488v7.104h-7.488v1.344q.704.768 1.92 2.24 1.216 1.408 2.56 3.072 1.344 1.6 2.432 2.944 1.088 1.344 1.536 1.92l-4.096 6.08q-.64-1.472-1.856-3.52-1.216-2.048-2.496-4.096v30.336h-7.616v-26.24q-1.28 3.968-2.88 7.552-1.536 3.52-3.264 6.016-.512-1.6-1.728-3.776-1.152-2.24-2.176-3.712 1.856-2.304 3.456-5.632 1.664-3.392 2.944-7.168 1.344-3.776 2.176-7.36h-7.424v-7.104h8.896zm61.104 5.696 6.912-3.136q1.472 2.368 3.072 5.184 1.6 2.752 3.008 5.44 1.408 2.624 2.24 4.672l-7.488 3.648q-.704-2.112-2.048-4.8-1.28-2.752-2.816-5.632-1.472-2.88-2.88-5.376zm.064 48.192q1.408-2.688 3.008-6.272 1.664-3.584 3.328-7.616 1.664-4.096 3.072-8.128l7.104 3.52q-1.984 5.632-4.16 11.328-2.176 5.632-4.288 10.496zM797.376 71v5.952h11.456V71Zm0-6.592h11.456v-6.144h-11.456ZM806.4 43.8l6.592-3.008q1.536 2.112 3.008 4.736 1.536 2.56 2.368 4.416l-3.392 1.792h14.016v6.528h-12.608v6.144h11.392V71h-11.392v5.952h11.328v6.592h-11.328v6.208h13.632V96.6h-32.64v4.224h-7.104V67.352q-1.088 1.472-2.24 2.816-1.152 1.344-2.304 2.56-.576-.768-1.536-1.792-.96-1.088-1.984-2.112-1.024-1.088-1.856-1.728 3.328-3.008 6.208-7.104 2.88-4.16 5.184-8.96 2.368-4.864 3.904-9.984l7.04 1.792q-.768 2.24-1.664 4.48-.832 2.24-1.792 4.416h11.52q-.832-1.856-2.048-3.968-1.216-2.176-2.304-3.968Zm-9.024 39.744v6.208h11.456v-6.208zm73.392-14.4v2.816h17.6v-2.816zm0-7.744v2.752h17.6V61.4Zm13.312-20.8h7.424v4.416h7.232v6.272h-7.232v3.648h-7.424v-3.648h-7.424v3.648h-7.296v-3.648h-7.488v-6.272h7.488V40.6h7.296v4.416h7.424zm-20.416 15.488h32.128v21.184H883.44l-.448 3.712h16v6.336h-11.2q4.416 5.248 12.928 6.976-1.216 1.088-2.624 2.944-1.344 1.92-2.112 3.392-5.44-1.472-9.152-4.544-3.712-3.008-6.144-7.424-1.984 4.16-6.272 7.168t-12.224 4.928q-.448-1.408-1.664-3.264-1.152-1.792-2.24-2.88 6.016-1.216 9.408-3.008 3.456-1.792 5.248-4.288H860.72v-6.336h14.72l.256-1.792q.192-.96.256-1.92h-12.288zm-16-15.488h7.232v11.968h5.824v7.104h-5.824v2.24q.704.896 1.792 2.56 1.152 1.664 2.368 3.52 1.28 1.856 2.24 3.392 1.024 1.536 1.408 2.24L858.16 79q-1.152-3.136-3.264-7.36v29.056h-7.232V78.744q-1.024 3.072-2.304 5.76-1.216 2.624-2.496 4.672-.576-1.664-1.664-3.904-1.088-2.304-2.048-3.84 1.792-2.304 3.392-5.632 1.6-3.328 2.88-7.104 1.344-3.776 2.24-7.424v-1.6h-6.976v-7.104h6.976zm99.44 3.712h7.04v21.76h-7.04zm11.712-2.944h7.296v27.456q0 2.624-.64 4.096-.576 1.472-2.368 2.368-1.792.768-4.288.96-2.496.192-5.888.192-.256-1.472-.96-3.392-.64-1.92-1.344-3.328 2.24.064 4.288.064t2.688-.064q.704 0 .96-.192t.256-.832zm-27.52 8.256h-5.44v6.72h5.44zm-13.824 29.824h18.56V75.48h-4.736V63.128h-5.952q-.768 3.968-3.072 7.744-2.24 3.712-7.04 6.336-.512-.768-1.472-1.792-.896-1.088-1.856-2.048-.96-1.024-1.664-1.536 3.52-1.856 5.312-4.096 1.792-2.24 2.496-4.608h-6.464v-6.784h7.232v-6.72h-5.056v-6.72h29.248v6.72h-4.544v6.72h5.952v6.784h-5.952v11.264h5.44v5.056h18.56v6.976h-18.56v5.12h24.96v7.104h-57.92v-7.104h25.088v-5.12h-18.56z" aria-label="基本粒子标准模型" letter-spacing="6"/>
  </switch>
  <g id="g31" transform="translate(-20)">
    <path id="fstrong" d="M240.8 322.6c-30.4 0-55 24.6-55 55v250c0 30.4 24.6 55 55 55h500c30.4 0 55-24.6 55-55 0-107.7 87.3-195 195-195h10c30.4 0 55-24.6 55-55s-24.6-55-55-55h-760" class="pinteract"/>
    <path id="felecmag" d="M240.8 312.6c-35.9 0-65 29.1-65 65v510c0 35.9 29.1 65 65 65h500c35.9 0 65-29.1 65-65 0-107.7 82.8-195 185-195h10c35.9 0 65-29.1 65-65s-29.1-65-65-65h-10c-102.2 0-185-82.8-185-185 0-35.9-29.1-65-65-65h-500" class="pinteract"/>
    <path id="fweak" d="M240.8 302.6c-41.4 0-75 33.6-75 75v760c0 41.4 33.6 75 75 75h760c41.4 0 75-33.6 75-75v-250c0-41.4-33.6-75-75-75h-10c-96.6 0-175-78.4-175-175v-260c0-41.4-33.6-75-75-75h-500" class="pinteract"/>
  </g>
  <g id="g36">
    <rect id="rect32" width="740" height="80" x="100" y="137.6" class="columnbox" rx="30" ry="30"/>
    <switch id="switch32" class="txcol" transform="translate(470 166)">
      <path id="text32" d="M-161.37-.44h22.77v2.91h-22.77zm2.01 9.75h18.39v2.88h-18.39zm-3.72 10.32h26.1v2.88h-26.1zm49.53-21.15 2.1-1.35q.87.69 1.77 1.56.9.87 1.68 1.74.78.84 1.23 1.56l-2.25 1.47q-.42-.69-1.17-1.56-.75-.87-1.65-1.77-.87-.9-1.71-1.65zm-5.28-1.35h2.85q.06 2.28.18 4.44.12 2.13.3 4.08l8.88-1.14.39 2.7-8.97 1.17q.48 3.69 1.26 6.51.78 2.79 1.86 4.41 1.11 1.62 2.52 1.8.6.03.93-1.23.33-1.26.54-3.81.42.42 1.17.9.78.45 1.17.66-.33 2.73-.9 4.26-.57 1.5-1.29 2.07-.72.57-1.53.54-2.52-.21-4.23-2.19-1.68-1.98-2.73-5.43-1.02-3.48-1.59-8.13l-6.66.87-.39-2.7 6.78-.87q-.21-2.07-.33-4.29-.12-2.25-.21-4.62zm-7.17-.18 2.7.87q-.63 1.5-1.41 3-.78 1.47-1.65 2.91v20.73h-2.91V7.9q-.87 1.11-1.8 2.1-.9.96-1.83 1.83-.15-.33-.45-.87-.3-.54-.63-1.08-.3-.54-.54-.87 1.68-1.44 3.27-3.36t2.94-4.14q1.35-2.22 2.31-4.56zm36.78-.27 2.58.48q-.24 1.11-.57 2.22-.3 1.11-.66 2.16h11.58v.54q0 .54-.03.84-.24 5.1-.48 8.64-.24 3.54-.54 5.85-.27 2.28-.63 3.57-.33 1.26-.78 1.8-.48.69-.99.96t-1.23.39q-.6.12-1.53.09-.9 0-1.89-.03-.03-.63-.24-1.44-.21-.78-.54-1.35.96.09 1.74.12h1.2q.66 0 1.14-.51.33-.39.6-1.47.27-1.08.51-3.03.27-1.98.48-5.01.24-3.03.42-7.32h-.84q-.57 2.91-1.47 5.82-.9 2.88-2.13 5.49-1.2 2.61-2.73 4.77-1.5 2.16-3.36 3.66-.39-.42-1.08-.9-.66-.48-1.26-.78 2.46-1.77 4.32-4.59 1.89-2.85 3.18-6.33 1.32-3.48 2.1-7.14h-2.01q-.66 2.55-1.74 5.13-1.08 2.55-2.46 4.74-1.38 2.19-3 3.63-.39-.42-1.02-.87-.6-.45-1.2-.75 1.56-1.23 2.88-3.12 1.35-1.89 2.4-4.17 1.05-2.28 1.74-4.59h-2.13q-.69 1.62-1.53 3.03-.81 1.41-1.77 2.55-.36-.33-1.05-.81-.66-.51-1.14-.81 1.86-2.01 3.15-5.04 1.29-3.06 2.01-6.42zm-13.14 1.71 2.4.39-.24 1.98q-.12.96-.27 1.92h1.92v-6h2.64v6h2.82v2.7h-2.82v5.58l3.18-.93.36 2.52-3.54 1.11v10.86h-2.64V14.47l-4.77 1.47-.72-2.73q1.14-.3 2.52-.66 1.41-.39 2.97-.84V5.38h-2.43q-.51 2.43-1.23 4.2-.33-.27-.99-.66-.66-.42-1.08-.63.78-1.86 1.23-4.5.45-2.67.69-5.4zm45.27 21.9 2.01-1.71q1.44.54 3.03 1.26 1.62.69 3.09 1.41 1.47.69 2.52 1.26l-1.98 1.89q-1.02-.63-2.49-1.38-1.47-.75-3.09-1.47-1.62-.72-3.09-1.26zm-1.74-8.37h2.94v2.61q0 1.14-.36 2.46-.36 1.29-1.44 2.64-1.08 1.32-3.27 2.58-2.16 1.26-5.79 2.31-.3-.48-.87-1.14-.54-.66-1.05-1.05 2.76-.69 4.56-1.47 1.83-.81 2.88-1.65 1.08-.87 1.59-1.71t.66-1.62q.15-.78.15-1.44zm-7.41-3.75h6.57l.27-2.58h-8.79v1.62q0 1.86-.12 4.08-.12 2.19-.48 4.5-.36 2.28-1.05 4.44-.66 2.16-1.77 3.96-.39-.36-1.17-.81-.78-.45-1.32-.63 1.08-1.68 1.68-3.66.63-1.98.93-4.05.33-2.1.42-4.11.09-2.01.09-3.72v-8.43q2.7-.12 5.58-.3t5.64-.45q2.76-.27 5.16-.6 2.43-.33 4.23-.75l2.22 2.25q-1.71.39-3.72.72-1.98.3-4.14.54l-.27 2.88h9.9v2.52h-10.17l-.36 2.58h8.46v10.62h-3v-7.98h-11.94v7.8h-2.85zm7.05-5.1.15-2.55q-2.28.21-4.62.36-2.31.15-4.53.24v1.95zm15.57-3.9 1.92-.48q.42 1.05.75 2.25.36 1.2.57 2.37.24 1.14.33 2.04l-2.07.51q-.03-.9-.27-2.04-.21-1.17-.54-2.37-.3-1.23-.69-2.28zm8.91-.63 2.28.54q-.36 1.14-.78 2.4-.42 1.23-.84 2.37-.39 1.14-.78 1.98l-1.74-.48q.36-.9.69-2.1.36-1.2.66-2.43.33-1.26.51-2.28zm2.43 3.42h15.3v2.67h-15.3zm1.56 4.77 2.4-.6q.51 2.07.99 4.41.48 2.31.84 4.47.39 2.13.57 3.69l-2.64.81q-.15-1.59-.48-3.78-.33-2.19-.78-4.56-.42-2.37-.9-4.44zm3.54-9.54 2.61-.66q.42 1.08.84 2.34.42 1.26.63 2.22l-2.73.78q-.15-.96-.54-2.25-.39-1.32-.81-2.43zm-16.53 9.54h4.14v-9.99h2.67v9.99h3.99v2.64h-3.99v.93q.42.45 1.02 1.17.63.72 1.26 1.5.63.75 1.14 1.38.54.63.75.93l-1.83 2.25q-.33-.72-.99-1.8-.66-1.11-1.35-2.16v10.89h-2.67V13.93q-.69 1.92-1.53 3.72-.81 1.77-1.68 3-.21-.63-.63-1.47-.42-.84-.75-1.41.78-.96 1.53-2.34.78-1.41 1.44-3 .69-1.59 1.17-3.06h-3.69zm10.26 13.83h9.48q.39-1.5.78-3.33t.75-3.78q.36-1.98.63-3.9.3-1.92.48-3.57l2.88.45q-.39 2.28-.9 4.83-.48 2.52-1.02 4.95-.54 2.4-1.08 4.35h5.28v2.79h-17.28Zm32.1-14.97q1.71-.78 3.54-1.92t3.33-2.31h-16.08v-2.79H8.61l.63-.15L11.4.07q-1.29 1.26-2.91 2.55-1.62 1.26-3.39 2.4-1.74 1.14-3.48 2.07v2.79h12.03v2.85H1.62v8.25q0 1.29-.39 1.98-.36.69-1.32 1.02-.93.36-2.46.45-1.5.09-3.63.06-.12-.6-.51-1.47-.36-.84-.72-1.44 1.74.06 3.24.09 1.5 0 1.98-.03.51-.03.66-.18.18-.15.18-.54v-8.19h-12.21V9.88h12.21zm36.78 5.01q0-3.06.78-5.67t2.1-4.77q1.35-2.19 3.06-3.9l2.28 1.08q-2.46 2.55-3.99 5.85-1.53 3.27-1.53 7.41 0 4.14 1.53 7.41 1.53 3.27 3.99 5.85l-2.28 1.08q-1.71-1.74-3.06-3.9-1.32-2.16-2.1-4.77-.78-2.64-.78-5.67zm23.52 4.65h2.85q-.45 1.98-1.35 3.51-.87 1.5-2.49 2.61-1.59 1.11-4.2 1.86-2.58.78-6.42 1.26-.12-.51-.51-1.23-.36-.72-.72-1.17 3.57-.36 5.88-.9 2.34-.57 3.72-1.38 1.41-.81 2.13-1.95.75-1.14 1.11-2.61zm1.62 5.31 1.47-1.89q1.41.33 2.97.78 1.59.45 3.18.96 1.59.48 3 .99t2.43.96l-1.56 2.16q-.96-.45-2.34-.99-1.38-.51-2.97-1.05-1.56-.54-3.15-1.02-1.59-.51-3.03-.9ZM55.38 4.15h-3.87l-.3 1.83h3.78q.15-.42.24-.87.12-.48.15-.96zm2.61 0q-.03.48-.09.93-.06.45-.15.9h4.41V4.15ZM49.2 2.23h6.24V.4h-7.23v-1.98h7.23v-1.74h2.58v1.74h4.14v-1.74h2.7v1.74h6.45v5.73h-6.45v1.83h8.28l-.03.33q0 .3-.03.54-.12 1.5-.3 2.34-.18.81-.57 1.23-.3.3-.72.45-.39.15-.84.18-.42.03-1.17.03-.72-.03-1.56-.06-.03-.39-.18-.9-.15-.54-.33-.93 1.32.15 1.89.09.24 0 .39-.03.18-.03.3-.15.09-.15.18-.42t.15-.75h-5.46v3.15h-2.7V7.93H57q-.6 1.11-1.77 2.1-1.14.96-3 1.74h17.55v8.04H66.9v-5.7H53.13v5.97H50.4v-7.65q-.57.15-1.17.33-.6.15-1.26.3-.18-.45-.6-1.11-.42-.69-.78-1.05 2.7-.57 4.38-1.32 1.71-.75 2.67-1.65h-5.37q.27-1.17.51-2.73.27-1.56.42-2.97ZM58.02.4v1.83h4.14V.4Zm6.84 0v1.83h3.84V.4ZM99-1.91l3.15 1.23q-1.14 1.95-2.46 3.99-1.32 2.01-2.43 3.42l-2.49-1.14q.75-.99 1.53-2.28.78-1.32 1.5-2.67.72-1.38 1.2-2.55ZM78.24-.59l2.58-1.11q.84 1.05 1.65 2.31.84 1.23 1.5 2.43.66 1.2 1.02 2.19l-2.82 1.26q-.3-.96-.93-2.19-.6-1.23-1.38-2.52-.78-1.29-1.62-2.37Zm10.23-2.73h3v11.4h11.88v2.85h-9.78q1.32 1.92 3.06 3.78 1.74 1.83 3.69 3.39 1.95 1.53 3.87 2.55-.54.42-1.17 1.14-.63.72-1.02 1.32-1.86-1.2-3.75-2.85-1.89-1.68-3.63-3.66-1.74-1.98-3.15-4.08v12h-3V12.61q-1.38 2.16-3.09 4.17t-3.6 3.69q-1.86 1.65-3.78 2.85-.36-.54-.99-1.26-.6-.69-1.11-1.11 1.92-1.05 3.84-2.64 1.95-1.59 3.66-3.48 1.74-1.92 3-3.9h-9.75V8.08h11.82zm30.18 8.91q1.71-.78 3.54-1.92t3.33-2.31h-16.08v-2.79h19.17l.63-.15L131.4.07q-1.29 1.26-2.91 2.55-1.62 1.26-3.39 2.4-1.74 1.14-3.48 2.07v2.79h12.03v2.85h-12.03v8.25q0 1.29-.39 1.98-.36.69-1.32 1.02-.93.36-2.46.45-1.5.09-3.63.06-.12-.6-.51-1.47-.36-.84-.72-1.44 1.74.06 3.24.09 1.5 0 1.98-.03.51-.03.66-.18.18-.15.18-.54v-8.19h-12.21V9.88h12.21zm25.92 5.01q0 3.03-.78 5.67-.75 2.61-2.1 4.77-1.35 2.16-3.06 3.9l-2.28-1.08q2.46-2.58 3.99-5.85 1.53-3.27 1.53-7.41 0-4.14-1.53-7.41-1.53-3.3-3.99-5.85l2.28-1.08q1.71 1.71 3.06 3.9 1.35 2.16 2.1 4.77.78 2.61.78 5.67z" aria-label="三代物质粒子（费米子）"/>
    </switch>
    <g id="g35" fill="#123" font-size="40" text-anchor="middle" transform="translate(120 260)">
      <text id="text33" x="100">I</text>
      <text id="text34" x="350">II</text>
      <text id="text35" x="600">III</text>
    </g>
  </g>
  <g id="g37">
    <rect id="rect36" width="500" height="80" x="860" y="137.6" class="columnbox" rx="30" ry="30"/>
    <switch id="switch36" class="txcol" transform="translate(1110 166)">
      <path id="text36" d="m-157.35-3.2 2.67.81q-.63 1.62-1.41 3.24-.75 1.62-1.62 3.18v20.46h-2.76V8.32q-.6.84-1.23 1.59-.63.75-1.29 1.44-.12-.36-.42-.9-.27-.54-.57-1.08-.3-.57-.57-.9 1.44-1.44 2.76-3.3 1.35-1.86 2.49-3.99 1.14-2.16 1.95-4.38zm6.15 21.57 2.01-1.71q.69.39 1.38.81.69.42 1.35.9 1.05-1.08 2.07-2.16 1.02-1.11 1.89-2.13H-153q.42-1.2.9-2.67.48-1.47.96-3.09h-5.1V5.68h5.85l.84-3.03h-4.98V.01h5.67l.75-3.12 2.79.39-.69 2.73h8.31v2.64h-9l-.81 3.03h11.25v2.64h-11.97l-.93 3.12h9.18l.45-.15 1.98 1.23q-1.38 1.62-3.15 3.57-1.77 1.92-3.54 3.78.96.69 1.77 1.35.81.66 1.38 1.23l-2.04 2.1q-.84-.87-2.19-1.98-1.32-1.08-2.88-2.19-1.53-1.14-3-2.01zm18.36-19.32 2.46-1.17q.69.84 1.41 1.83.72.99 1.32 1.95.63.96.96 1.74l-2.61 1.35q-.33-.78-.9-1.77-.57-.99-1.26-2.01-.69-1.05-1.38-1.92zm20.22-2.43 2.82.72q-.51.81-1.08 1.62-.54.81-1.05 1.5h3.87v7.02h-6.75v2.34h7.98l-.03.36q0 .36-.03.6-.12 2.73-.36 4.08-.24 1.32-.72 1.83-.36.39-.78.57-.39.15-.99.21-.48.06-1.29.06t-1.71-.03q-.03-.54-.24-1.2-.18-.66-.48-1.14.84.09 1.53.12h1.02q.6.03.87-.27.18-.18.3-.87.15-.69.27-2.07h-5.34v7.74h-2.82v-5.76q-1.38 1.44-3.09 2.61-1.68 1.14-3.6 2.01-.3-.42-.84-.99-.51-.57-.93-.9 2.07-.84 3.9-2.07 1.86-1.23 3.12-2.64h-5.88q.33-1.41.6-3.3.27-1.92.45-3.63h6.27V2.77h-7.35V.46h4.38q-.3-.69-.78-1.5-.45-.81-.96-1.47l2.28-.99q.66.75 1.23 1.71.6.93.84 1.62l-1.35.63h4.47q.63-.87 1.23-1.92.63-1.08 1.02-1.92zm-9.45 13.2h4.44V7.48h-4.05zm7.26-7.05v2.37h4.32V2.77Zm-12.33 5.1v10.44q.42.24.87.6.48.33 1.14.69 1.5.87 3.51 1.14 2.04.24 4.56.24 1.71 0 3.72-.09 2.04-.09 4.02-.24 1.98-.15 3.48-.33-.27.57-.54 1.5-.27.9-.33 1.53-.81.06-2.13.12-1.29.06-2.79.09-1.5.06-2.94.09t-2.58.03q-2.82 0-4.86-.33-2.01-.33-3.63-1.26-.99-.57-1.74-1.14t-1.26-.57q-.42 0-.96.57-.54.54-1.14 1.38-.57.84-1.14 1.77l-1.95-2.76q1.02-1.14 2.04-1.98 1.02-.87 1.92-1.26v-7.47h-3.75V7.87Zm38.97.24v4.59h8.22V8.11Zm0-2.61h8.22V1.06h-8.22zm0 9.78v4.62h8.22v-4.62ZM-90.9-1.64h13.8v25.8h-2.85v-1.65h-8.22v1.8h-2.73zm-8.01-1.68h2.73v6.33h4.05v2.7h-4.05v2.28q.39.39 1.02 1.11.63.72 1.29 1.53.69.81 1.23 1.47.57.66.81.96l-1.68 2.31q-.39-.78-1.14-1.89-.75-1.14-1.53-2.22v13.23h-2.73V11.2q-.81 2.31-1.83 4.41-.99 2.1-2.1 3.51-.21-.6-.66-1.35-.42-.78-.75-1.29 1.02-1.23 1.95-3 .96-1.77 1.74-3.78.81-2.04 1.29-3.99h-4.26v-2.7h4.62zM-73.5 20.8h17.01l.69-4.41h-13.59q.42-1.5.84-3.39.45-1.89.9-3.96.45-2.07.84-4.14.42-2.1.72-3.99h-6.45v-2.73h25.32V.91H-63l-.84 4.44h9.69l.51-.12 2.16.27q-.21 2.1-.54 4.74-.33 2.61-.72 5.34-.39 2.73-.81 5.22h7.2v2.76H-73.5Zm9.12-12.78q-.57 3.06-1.23 5.73h10.17l.72-5.73zm35.01-11.01 2.76.69q-.36.99-.78 1.98-.39.99-.81 1.95h12.18v2.73h-8.97v3.81h8.25v2.61h-8.25v4.02h8.67v2.67h-8.67v7.05h-2.91V4.36h-1.68q-.93 1.74-1.98 3.3-1.05 1.56-2.16 2.79-.3-.39-.99-.99-.69-.63-1.17-.96 1.35-1.38 2.55-3.21 1.23-1.86 2.22-3.99 1.02-2.13 1.74-4.29zm-7.53-.21 2.76.84q-1.29 3.27-3 6.33v20.52h-2.88V8.44q-.6.84-1.23 1.59-.63.72-1.26 1.38-.12-.36-.42-.9-.27-.57-.6-1.14-.3-.57-.57-.9 1.44-1.44 2.79-3.3 1.35-1.86 2.46-3.99 1.14-2.16 1.95-4.38zm26.34 1.95h22.35v22.2q0 1.23-.33 1.92t-1.14 1.02q-.84.33-2.22.39-1.38.09-3.48.06-.06-.54-.36-1.35-.27-.81-.57-1.38.96.06 1.89.09H7.2q.72-.03.99-.03.42 0 .6-.15.18-.18.18-.6v-5.4H1.65v8.7H-1.2v-8.7h-6.93q-.39 2.49-1.26 4.92-.87 2.4-2.55 4.26-.3-.42-1.02-1.02-.72-.57-1.2-.84 1.23-1.38 1.95-3.03.75-1.65 1.08-3.42.36-1.77.45-3.51.12-1.74.12-3.33zm2.82 2.7v4.26h6.54V1.45Zm16.71 0H1.65v4.26h7.32zm-16.71 6.9v1.23q0 .75-.03 1.56t-.09 1.68h6.66V8.35Zm16.71 0H1.65v4.47h7.32zm26.46 2.25q0-3.06.78-5.67t2.1-4.77q1.35-2.19 3.06-3.9l2.28 1.08q-2.46 2.55-3.99 5.85-1.53 3.27-1.53 7.41 0 4.14 1.53 7.41 1.53 3.27 3.99 5.85l-2.28 1.08q-1.71-1.74-3.06-3.9-1.32-2.16-2.1-4.77-.78-2.64-.78-5.67zm10.53 8.07q.78-.24 1.74-.57.96-.33 2.01-.72V9.85h-3.18V7.24h3.18V1.21h-3.48v-2.64h9.39v2.64h-3.27v6.03h2.64v2.61h-2.64v6.57l2.82-1.08.45 2.52q-2.34.93-4.74 1.86-2.37.9-4.32 1.68zM56.67.94h6.72v-4.26h2.73V.94h4.98l.45-.09 2.04.45q-.42 1.65-.96 3.36-.51 1.71-.99 2.91L69.18 7q.24-.66.51-1.56t.48-1.86h-4.05v4.77h3.96l.54-.09 1.74.66q-.72 3.03-1.95 5.46-1.2 2.43-2.85 4.32 2.79 2.19 6.51 3.21-.45.42-.99 1.17t-.84 1.32q-3.84-1.26-6.69-3.69-1.41 1.23-3.06 2.19-1.65.96-3.42 1.65-.24-.51-.69-1.2-.45-.69-.87-1.08 3.36-1.11 6.15-3.45-1.38-1.59-2.49-3.51-1.08-1.95-1.89-4.17-.09 2.13-.45 4.5t-1.17 4.62q-.78 2.25-2.19 4.05-.3-.39-.99-.99-.69-.57-1.14-.81 1.14-1.47 1.8-3.18.66-1.71.99-3.54.33-1.83.42-3.57.12-1.77.12-3.33zm6.72 2.64h-4.05v4.77h4.05zm5.64 7.29h-7.17q.69 1.71 1.59 3.24.93 1.5 2.13 2.79 1.11-1.29 1.98-2.79.87-1.5 1.47-3.24zm19.89-3.24h-6.36v4.53h6.36zm2.79 0v4.53h6.42V7.63Zm.84-5.94h-7.38q-1.38 1.74-2.97 3.33h7.44q.75-.69 1.5-1.56.75-.9 1.41-1.77zm-7.2-5.16 2.58.96q-.21.42-.48.84-.24.42-.51.84h7.5l.57-.15L96.84.37q-.75 1.14-1.74 2.37-.99 1.2-2.04 2.28h7.89v11.01h-2.82v-1.17H82.56v4.35q0 .9.27 1.38.3.48 1.11.66.84.15 2.49.15H97.5q1.47 0 2.19-.33.75-.36 1.05-1.35.33-1.02.51-2.94.54.33 1.32.63.81.27 1.41.39-.3 2.4-.9 3.75-.57 1.35-1.86 1.89-1.26.57-3.63.57H86.55q-2.55 0-4.02-.42-1.47-.39-2.1-1.44-.6-1.02-.6-2.94V7.18q-.57.48-1.14.9-.57.42-1.14.81-.12-.33-.42-.84-.27-.51-.57-1.02-.3-.51-.54-.81 1.83-1.11 3.57-2.61 1.74-1.53 3.24-3.33 1.5-1.8 2.52-3.75zm33.3 9.06q1.71-.78 3.54-1.92t3.33-2.31h-16.08v-2.79h19.17l.63-.15L131.4.07q-1.29 1.26-2.91 2.55-1.62 1.26-3.39 2.4-1.74 1.14-3.48 2.07v2.79h12.03v2.85h-12.03v8.25q0 1.29-.39 1.98-.36.69-1.32 1.02-.93.36-2.46.45-1.5.09-3.63.06-.12-.6-.51-1.47-.36-.84-.72-1.44 1.74.06 3.24.09 1.5 0 1.98-.03.51-.03.66-.18.18-.15.18-.54v-8.19h-12.21V9.88h12.21zm25.92 5.01q0 3.03-.78 5.67-.75 2.61-2.1 4.77-1.35 2.16-3.06 3.9l-2.28-1.08q2.46-2.58 3.99-5.85 1.53-3.27 1.53-7.41 0-4.14-1.53-7.41-1.53-3.3-3.99-5.85l2.28-1.08q1.71 1.71 3.06 3.9 1.35 2.16 2.1 4.77.78 2.61.78 5.67z" aria-label="传递相互作用（玻色子）"/>
    </switch>
  </g>
  <g id="g39" font-size="24" opacity=".65" text-anchor="end" transform="translate(85 315)">
    <switch id="switch37">
      <path id="text37" d="m-33.744-1.656 1.272-1.104q1.2.456 2.52 1.056 1.32.576 2.52 1.176 1.224.6 2.064 1.08l-1.272 1.224q-.816-.528-2.04-1.152Q-29.88 0-31.2-.6q-1.32-.624-2.544-1.056zm-1.248-6.696h1.848v2.184q0 .912-.264 1.968t-1.128 2.136q-.84 1.08-2.568 2.088-1.704 1.008-4.608 1.872-.168-.288-.528-.72-.336-.408-.672-.672 2.232-.576 3.672-1.248 1.464-.672 2.328-1.392.864-.72 1.272-1.416.408-.72.528-1.392.12-.672.12-1.248zm-6.024-2.688h5.352l.264-2.352h-7.464v1.704q0 1.464-.096 3.192-.096 1.728-.384 3.528-.264 1.8-.792 3.504-.528 1.68-1.416 3.096-.24-.216-.744-.504-.504-.288-.84-.408.864-1.368 1.344-2.952.504-1.584.744-3.24.264-1.656.336-3.24.072-1.608.072-2.976v-6.696q2.184-.096 4.488-.24 2.328-.144 4.56-.336 2.232-.216 4.176-.48 1.944-.288 3.36-.6l1.44 1.44q-1.392.312-3.048.552-1.656.24-3.48.432L-33.408-15h8.208v1.608h-8.376l-.336 2.352h6.888v8.4h-1.872v-6.696h-10.32v6.6h-1.8zm5.76-3.96.192-2.424q-1.92.168-3.912.312t-3.888.216V-15ZM-18-15.96v1.32h11.928v-1.32zm0-2.352v1.296h11.928v-1.296zm-1.752-1.08h15.48v5.832h-15.48zm-3 6.864h21.528v1.368h-21.528zm4.272 5.976v1.392h5.568v-1.392zm7.32 0v1.392h5.808v-1.392zm-7.32-2.4v1.344h5.568v-1.344zm7.32 0v1.344h5.808v-1.344zm-11.712 8.88h9.96v-1.392h-7.944v-1.272h7.944v-1.32h-7.272v-6.024h16.608v6.024h-7.584v1.32h8.112v1.272h-8.112v1.392h10.08V1.32h-21.792z" aria-label="质量" font-size="24" opacity=".422"/>
    </switch>
    <switch id="switch38">
      <path id="text38" d="M-37.152 30.208h-5.952v3.456h5.952zm1.896 0v3.456h6.168v-3.456zm-1.896-1.68v-3.432h-5.952v3.432zm1.896 0h6.168v-3.432h-6.168zm-9.72-5.208h7.824v-3.432h1.896v3.432h8.016v12.096h-8.016v2.592q0 1.032.312 1.368.312.312 1.392.312h5.088q.672 0 1.008-.312.36-.336.504-1.176.168-.864.24-2.424.36.24.864.48.528.216.936.336-.144 1.824-.48 2.904-.312 1.08-1.008 1.536-.672.48-1.968.48h-5.304q-1.344 0-2.112-.312-.744-.288-1.056-1.08-.312-.768-.312-2.16v-2.544h-5.952v1.488h-1.872zm29.4 3.408h14.4v1.68h-2.376V39.64q0 .816-.24 1.224-.216.432-.816.648-.6.192-1.656.24-1.032.048-2.592.048-.072-.36-.264-.864-.192-.48-.384-.84 1.224.024 2.256.024 1.032.024 1.344.024.336-.024.456-.144.144-.096.144-.384V28.408h-10.272zm-2.136-1.176 1.728.552q-.432.888-.936 1.776-.504.864-1.08 1.704v12.312h-1.776V31.864q-.576.672-1.176 1.272-.576.576-1.2 1.08-.168-.264-.552-.768-.36-.504-.624-.792 1.68-1.296 3.168-3.168 1.488-1.872 2.448-3.936zm2.424 5.088h7.632v6.792h-5.952v1.44h-1.68zm1.68 1.512v3.768h4.296v-3.768Zm4.872-12.312h1.8v1.92h5.592v1.656h-5.592v2.208h-1.8v-2.208h-6.576v2.208h-1.752v-2.208h-5.448V21.76h5.448v-1.92h1.752v1.92h6.576z" aria-label="电荷" font-size="24" opacity=".422"/>
    </switch>
    <switch id="switch39">
      <path id="text39" d="M-42.264 70.136v3.528h12.84v-3.528zm0-1.704h12.84v-3.576h-12.84zm0 6.912v3.552h12.84v-3.552zm5.184-15.552 2.088.288q-.288.768-.6 1.56-.288.792-.6 1.488h8.664v18.696h-1.896V80.6h-12.84v1.344h-1.824V63.128h6.072q.264-.792.528-1.704.264-.912.408-1.632zm17.136.696 1.632-.528q.528.792 1.032 1.728.528.936.792 1.608l-1.272.456h4.416v1.704h-5.304l-.072 3.144h4.392v.816q-.072 3-.144 5.064-.048 2.064-.144 3.384-.096 1.296-.264 2.016-.144.696-.384 1.008-.264.408-.6.576-.312.168-.792.216-.408.048-1.056.048-.648 0-1.392-.024-.024-.384-.144-.864-.096-.456-.288-.792.696.072 1.272.072.576.024.816.024.264 0 .432-.072.168-.048.288-.24.192-.288.312-1.248.144-.984.24-2.976t.168-5.328h-2.784q-.168 3.768-.864 6.696-.672 2.928-2.376 4.944-.216-.312-.6-.672-.384-.336-.72-.552 1.368-1.56 1.992-3.816.624-2.256.792-5.136.192-2.88.216-6.288h-2.592v-1.704h4.704q-.264-.696-.744-1.608-.48-.912-.96-1.656zm8.088 10.584h1.584q-.024.96-.096 1.896-.048.936-.168 1.824.408 1.584 1.008 2.568.624.96 1.392 1.512V68.768h-4.176v-1.344l-.48.6q-.24-.24-.696-.6-.432-.36-.768-.552 1.2-1.272 2.088-3.144.888-1.872 1.416-3.912l1.752.36q-.168.696-.408 1.392-.216.696-.48 1.368h8.88v1.656h-9.6q-.672 1.44-1.512 2.592h9.528l.264-.072 1.176.384q-.456 1.104-.936 2.28-.48 1.152-.936 1.968l-1.392-.528q.528-1.032 1.056-2.448h-3.144v4.224h4.584v1.584h-4.584v5.016q.48.12 1.008.168.552.048 1.104.048h2.856q.528-.024.792-.024-.168.312-.336.816-.144.504-.216.84h-3.192q-1.464 0-2.688-.312-1.224-.312-2.184-1.152-.936-.864-1.656-2.472-.312 1.296-.864 2.4-.528 1.104-1.368 1.944-.168-.264-.504-.648-.336-.36-.648-.528 1.008-1.008 1.512-2.52.528-1.512.744-3.336.216-1.824.288-3.744z" aria-label="自旋" font-size="24" opacity=".422"/>
    </switch>
  </g>
  <g id="g71">
    <switch id="switch40" fill="#c9f" font-size="54" font-weight="700" transform="rotate(-90 415 345)">
      <path id="text40" d="m-27.238-113.9 6.696 1.08q-.486 1.35-1.026 2.646-.54 1.296-1.188 2.592H2.138v5.67h-12.42q2.646 3.132 6.318 5.616 3.672 2.43 7.992 3.78-.756 1.188-1.512 3.078-.702 1.836-1.026 3.24-3.78-1.566-7.182-3.78-3.348-2.268-6.048-4.968v3.51h-20.52v-3.294q-2.376 2.214-5.292 4.212-2.862 1.944-6.264 3.672-.486-1.242-1.62-2.808-1.134-1.62-2.106-2.484 4.374-1.998 7.722-4.482 3.402-2.484 5.886-5.292h-12.15v-5.67h16.146q1.728-3.078 2.7-6.318zm-3.024 17.226h16.902q-1.08-1.242-2.052-2.538-.972-1.35-1.782-2.7h-8.856q-1.782 2.646-4.212 5.238zm-11.34 8.748h38.826v5.346h-25.056l-1.134 3.456H-5.8l-.108 1.026q-.108.972-.27 1.62-.864 4.806-1.89 7.506-.972 2.646-2.322 3.78-1.134.972-2.43 1.296-1.242.378-2.97.486-1.404.108-3.726.108t-4.968-.108q-.054-1.35-.594-2.97-.54-1.62-1.35-2.808 2.43.216 4.86.27 2.484.054 3.564.054.864 0 1.404-.054.54-.108 1.08-.432 1.188-.81 2.214-4.59h-24.516q.81-1.782 1.62-4.05.864-2.268 1.566-4.59h-6.966zm8.046 53.546v5.832h23.166v-5.832zm8.046-20.52h6.588v4.644H1.706v5.832h-20.628v4.32h15.228v17.334h-9.018v9.828q0 1.35.378 1.728.432.324 1.836.324h5.346q.918 0 1.35-.486.486-.54.702-2.106.216-1.566.324-4.752 1.08.756 2.862 1.512 1.782.702 3.132 1.026Q2.894-11.376 2.084-9 1.328-6.624-.292-5.706q-1.566.918-4.266.918h-6.912q-3.132 0-4.86-.756-1.728-.702-2.376-2.484-.648-1.782-.648-4.806v-9.936h-6.21q-.432 3.456-1.404 6.372-.918 2.862-2.862 5.184-1.89 2.322-5.292 4.104-3.348 1.836-8.64 3.078-.486-1.35-1.62-3.186-1.08-1.782-2.16-2.862 4.536-.81 7.29-1.998 2.808-1.242 4.374-2.808 1.566-1.566 2.268-3.51.702-1.998 1.026-4.374h-7.236v-17.334h14.31v-4.32h-19.98v-5.832h19.98z" aria-label="夸克" transform="rotate(90)"/>
    </switch>
    <g id="g45" transform="translate(100 275)">
      <use xlink:href="#tilequ" id="use40"/>
      <text id="text41" x="120" y="120" class="psymr">u</text>
      <text id="text42" x="15" y="40" class="pmass">≈2.16 MeV/c²</text>
      <text id="text43" x="15" y="80" class="pchar">⅔</text>
      <text id="text44" x="15" y="120" class="pspin">½</text>
      <switch id="switch45" transform="translate(120 200)">
        <path id="text45" fill="#012" d="M-3.486-34.86H.756v12.558h15.372v3.99H.756v15.834h18.27v3.99h-38.01v-3.99h15.498z" aria-label="上" class="pname" font-size="42" font-weight="600" text-anchor="middle"/>
      </switch>
    </g>
    <g id="g50" transform="translate(100 525)">
      <use xlink:href="#tilequ" id="use45"/>
      <text id="text46" x="120" y="120" class="psymr">d</text>
      <text id="text47" x="15" y="40" class="pmass">≈4.70 MeV/c²</text>
      <text id="text48" x="15" y="80" class="pchar">−⅓</text>
      <text id="text49" x="15" y="120" class="pspin">½</text>
      <switch id="switch50" transform="translate(120 200)">
        <path id="text50" fill="#012" d="M-18.732-32.382h37.506v4.032H1.26v7.182l.714-.84q1.806.882 3.864 1.974t4.074 2.268q2.058 1.176 3.822 2.31 1.764 1.134 2.982 2.1L13.86-9.702q-1.344-1.176-3.444-2.562-2.1-1.428-4.494-2.856-2.352-1.47-4.662-2.73V3.444h-4.242V-28.35h-15.75z" aria-label="下" class="pname" font-size="42" font-weight="600" text-anchor="middle"/>
      </switch>
    </g>
    <g id="g55" transform="translate(350 275)">
      <use xlink:href="#tilequ" id="use50"/>
      <text id="text51" x="120" y="120" class="psymr">c</text>
      <text id="text52" x="15" y="40" class="pmass">≈1.2730 GeV/c²</text>
      <text id="text53" x="15" y="80" class="pchar">⅔</text>
      <text id="text54" x="15" y="120" class="pspin">½</text>
      <switch id="switch55" transform="translate(120 200)">
        <path id="text55" fill="#012" d="m-12.558-13.356 3.486-1.47q1.008 1.05 1.932 2.352.966 1.26 1.386 2.31l-1.932.798h5.628v-5.964h4.032v5.964h3.738q.966-1.344 1.89-2.94.924-1.596 1.512-2.898l4.032 1.344q-.756 1.176-1.596 2.31-.798 1.134-1.596 2.184h8.61v3.486H6.342q2.52 1.806 6.006 3.108 3.528 1.26 7.35 1.89-.672.63-1.428 1.68-.756 1.092-1.218 1.932-4.41-1.008-8.358-3.024-3.948-2.058-6.72-4.998v8.778h-4.032v-8.82Q-4.872-2.478-8.82-.336q-3.948 2.142-8.148 3.234-.42-.798-1.218-1.848-.756-1.008-1.47-1.68 3.57-.714 7.014-2.058 3.444-1.386 6.006-3.192H-18.48v-3.486h8.736q-.42-.924-1.218-2.016-.756-1.092-1.596-1.974zM.966-25.284l2.352-2.478q1.47.714 3.024 1.554 1.554.84 3.108 1.806 2.352-2.184 3.822-4.872H1.47v-3.318h13.692l.714-.126 2.478.966q-.924 2.814-2.394 5.124-1.428 2.31-3.276 4.2 1.932 1.218 3.57 2.436t2.814 2.31l-2.52 2.814q-1.176-1.134-2.898-2.436-1.722-1.344-3.738-2.688-2.058 1.512-4.368 2.688Q3.276-16.17.798-15.372q-.294-.714-.882-1.68-.588-1.008-1.134-1.596 4.242-1.176 7.77-3.486-1.428-.882-2.856-1.68-1.386-.798-2.73-1.47zM-13.65-30.87l3.318.756q-.168.63-.42 1.26-.252.588-.546 1.176h2.478v-7.812h3.57v2.52H.336v3.024H-5.25v2.268h2.856l.672-.126 2.436 1.008q-1.47 3.906-4.158 6.678-2.688 2.73-6.216 4.536-3.528 1.806-7.56 2.814-.294-.714-.882-1.638-.546-.966-1.092-1.554 2.1-.42 4.074-1.05 1.974-.672 3.738-1.596-.672-.714-1.554-1.344-.84-.672-1.68-1.218l2.184-2.016q.966.546 2.016 1.344t1.806 1.554q1.302-.966 2.394-2.058 1.092-1.092 1.89-2.394h-8.61q-1.932 2.814-4.41 4.662-.294-.546-1.008-1.428-.672-.882-1.176-1.344 2.016-1.386 3.528-3.444 1.554-2.1 2.352-4.578z" aria-label="粲" class="pname" font-size="42" font-weight="600" text-anchor="middle"/>
      </switch>
    </g>
    <g id="g60" transform="translate(350 525)">
      <use xlink:href="#tilequ" id="use55"/>
      <text id="text56" x="120" y="120" class="psymr">s</text>
      <text id="text57" x="15" y="40" class="pmass">≈93.5 MeV/c²</text>
      <text id="text58" x="15" y="80" class="pchar">−⅓</text>
      <text id="text59" x="15" y="120" class="pspin">½</text>
      <switch id="switch60" transform="translate(120 200)">
        <path id="text60" fill="#012" d="M-18.9-19.026h37.926v3.57h-5.544V-.924q0 1.596-.504 2.478-.462.924-1.722 1.386-1.302.42-3.318.504-2.016.126-4.872.126-.168-.84-.588-1.932-.42-1.05-.882-1.848 1.47.042 2.856.084t2.394.042q1.05-.042 1.428-.042.672-.042.882-.21.21-.168.21-.672v-14.448H-18.9ZM-1.806-35.49H2.31q-.084 1.008-.21 1.974-.084.924-.252 1.806h15.036v3.528H.924l-.126.336q2.646.882 5.502 1.974 2.898 1.05 5.502 2.1 2.646 1.05 4.536 1.89l-2.94 2.814q-1.68-.84-4.074-1.848t-5.082-2.058q-2.646-1.05-5.208-1.932-1.848 2.226-5.334 3.654-3.444 1.428-9.324 2.226-.21-.714-.756-1.638-.546-.924-1.008-1.47 4.158-.504 6.888-1.302 2.73-.798 4.41-1.974 1.68-1.176 2.604-2.772H-16.8v-3.528h14.532q.168-.84.252-1.764.126-.966.21-2.016zm-9.198 26.208v4.956h9.87v-4.956zm-3.78-3.15h17.43v11.256h-13.65v2.73h-3.78z" aria-label="奇" class="pname" font-size="42" font-weight="600" text-anchor="middle"/>
      </switch>
    </g>
    <g id="g65" transform="translate(600 275)">
      <use xlink:href="#tilequ" id="use60"/>
      <text id="text61" x="120" y="120" class="psymr">t</text>
      <text id="text62" x="15" y="40" class="pmass">≈172.57 GeV/c²</text>
      <text id="text63" x="15" y="80" class="pchar">⅔</text>
      <text id="text64" x="15" y="120" class="pspin">½</text>
      <switch id="switch65" transform="translate(120 200)">
        <path id="text65" fill="#012" d="M6.342-20.454h3.906v8.148q0 2.016-.504 4.158-.504 2.142-1.848 4.242-1.302 2.1-3.738 3.99-2.436 1.932-6.342 3.444-.336-.672-1.092-1.596Q-3.99 1.008-4.62.378-.756-.84 1.428-2.352q2.226-1.554 3.276-3.234 1.05-1.722 1.344-3.444.294-1.764.294-3.318zM8.61-3.444l2.478-2.604q1.47.924 3.108 2.142 1.68 1.176 3.15 2.394Q18.858-.336 19.782.672l-2.688 2.94q-.882-1.008-2.352-2.268-1.428-1.218-3.066-2.478-1.596-1.302-3.066-2.31Zm-9.87-23.058h6.048q.252-.882.462-1.848.252-.966.42-1.89h-8.61v-3.444h22.428v3.444H9.912l-1.344 3.738h9.324v19.95h-3.864v-16.254H2.436v16.38H-1.26Zm-18.06-6.132h15.54v3.738h-5.124v26.334q0 1.68-.42 2.604-.378.966-1.428 1.428-1.05.504-2.73.63-1.638.168-4.074.168-.168-.84-.588-2.016-.42-1.176-.882-1.974 1.806.042 3.276.042h2.016q.546-.042.714-.21.21-.21.21-.672v-26.334h-6.51z" aria-label="顶" class="pname" font-size="42" font-weight="600" text-anchor="middle"/>
      </switch>
    </g>
    <g id="g70" transform="translate(600 525)">
      <use xlink:href="#tilequ" id="use65"/>
      <text id="text66" x="120" y="120" class="psymr">b</text>
      <text id="text67" x="15" y="40" class="pmass">≈4.183 GeV/c²</text>
      <text id="text68" x="15" y="80" class="pchar">−⅓</text>
      <text id="text69" x="15" y="120" class="pspin">½</text>
      <switch id="switch70" transform="translate(120 200)">
        <path id="text70" fill="#012" d="m.21-6.93 2.982-1.134Q3.99-6.51 4.788-4.746t1.47 3.402Q6.93.294 7.308 1.512L4.116 2.856q-.336-1.26-.966-2.94-.63-1.68-1.428-3.486Q.966-5.376.21-6.93ZM-8.82 3.15q-.168-.714-.546-1.68t-.798-1.512q.588-.252 1.176-.798.63-.546.63-1.722v-21.42q3.864-.126 7.896-.42 4.074-.294 7.728-.714 3.696-.462 6.258-1.008L16.59-23.1q-1.932.42-4.2.756-2.226.336-4.662.63.084 1.764.252 3.444.168 1.68.378 3.276h9.492v3.486H9.03q.714 3.234 1.68 5.712.966 2.436 2.058 3.78Q13.86-.672 14.91-.672q.672 0 .966-1.386.336-1.386.462-4.368.588.588 1.47 1.092.924.504 1.638.756-.252 3.066-.84 4.704-.546 1.68-1.512 2.31-.966.672-2.436.672-2.268 0-4.116-1.89Q8.736-.63 7.35-3.948q-1.386-3.318-2.268-7.56h-9.744v9.24L.966-3.906q-.042.798 0 1.806.042.966.126 1.596-2.94.924-4.788 1.512-1.806.63-2.814 1.008t-1.512.63q-.504.252-.798.504ZM4.494-14.994q-.42-2.982-.63-6.342-2.1.168-4.284.336-2.142.126-4.242.21v5.796zm-5.712-19.488 3.738-1.176q1.428 2.1 2.226 4.326h14.406v3.57h-31.374v8.4q0 2.52-.168 5.502-.126 2.982-.588 6.132-.462 3.108-1.344 6.048-.84 2.94-2.226 5.376-.546-.546-1.596-1.26t-1.722-1.008q1.302-2.268 2.058-4.914.756-2.646 1.092-5.418.378-2.772.462-5.46.126-2.688.126-4.998v-11.97H.378q-.294-.84-.714-1.638-.42-.84-.882-1.512z" aria-label="底" class="pname" font-size="42" font-weight="600" text-anchor="middle"/>
      </switch>
    </g>
  </g>
  <g id="g102">
    <switch id="switch71" fill="#5c2" font-size="54" font-weight="700" transform="rotate(-90 670 600)">
      <path id="text71" d="M-45.058-84.74q-.162-.594-.486-1.566-.324-1.026-.756-2.106-.378-1.08-.702-1.836.864-.27 1.458-1.35.648-1.08 1.35-2.916.324-.864.972-2.808.648-1.998 1.35-4.644h-4.914v-6.048h6.318q.324-1.458.54-2.916.27-1.512.486-2.97l6.156 1.134q-.216 1.188-.486 2.376l-.54 2.376h8.37v6.048h-10.044q-.864 2.808-1.836 5.508-.918 2.7-1.89 5.076h3.078v-7.776h5.94v7.776h4.266v5.832h-4.266v5.184l4.482-.702.324 5.616-4.806.864v11.124h-5.94v-10.044l-9.558 1.728-1.296-6.21q2.214-.27 4.968-.648 2.808-.432 5.886-.864v-6.048h-4.212q-1.296 0-2.592.216t-1.62.594zm21.006-26.46H-4.72l1.188-.27 4.536 2.268Q-.4-105.8-2.452-102.83q-1.998 2.916-4.536 5.4 2.808 1.35 5.454 2.754t4.32 2.592l-3.888 5.13q-1.728-1.35-4.698-3.078-2.97-1.728-5.994-3.294-2.646 1.944-5.562 3.51-2.916 1.566-5.94 2.808-.594-1.242-1.782-2.808-1.188-1.62-2.214-2.646 5.508-1.89 10.422-5.238 4.968-3.402 8.154-7.668h-15.336zm0 25.002H.626v5.886H-8.23v9.936H2.948v5.994h-29.7v-5.994h11.988v-9.936h-9.288zm-1.026 47.228q2.592-1.242 5.346-2.916 2.808-1.728 5.184-3.51H-41.17v-6.372h33.804l1.458-.378 4.968 3.834q-3.456 3.348-8.1 6.804-4.644 3.402-9.288 5.94v4.104h21.06v6.534h-21.06v13.068q0 2.7-.756 4.212-.702 1.512-2.646 2.268-1.998.756-4.806.972-2.808.216-6.534.162-.27-1.404-1.134-3.402-.81-1.944-1.62-3.294 1.89.108 3.78.162 1.89.054 3.348.054 1.458-.054 2.052-.054.918-.054 1.242-.27.324-.27.324-.972V-24.93H-46.57v-6.534h21.492z" aria-label="轻子" transform="rotate(90)"/>
    </switch>
    <g id="g76" transform="translate(100 790)">
      <use xlink:href="#tilele" id="use72"/>
      <text id="text72" x="120" y="120" class="psymr">e</text>
      <text id="text73" x="15" y="40" class="pmass">≈0.5110 MeV/c²</text>
      <text id="text74" x="15" y="80" class="pchar">−1</text>
      <text id="text75" x="15" y="120" class="pspin">½</text>
      <switch id="switch76" transform="translate(120 200)">
        <path id="text76" fill="#012" d="M-23.436-16.632h-9.45v5.124h9.45zm4.242 0v5.124h9.66v-5.124zm-4.242-3.696v-5.166h-9.45v5.166zm4.242 0h9.66v-5.166h-9.66zm-17.808-9.03h13.566v-5.964h4.242v5.964H-5.46v21.714h-13.734v3.57q0 1.26.168 1.89.21.63.798.882.63.21 1.848.21h8.064q1.134 0 1.68-.546.588-.546.84-1.974.294-1.428.462-4.032.756.546 1.89 1.05t2.058.714Q-1.68-2.646-2.31-.714q-.63 1.932-1.974 2.772-1.344.84-3.738.84h-8.736q-2.604 0-4.074-.63-1.428-.588-2.016-2.142-.588-1.512-.588-4.284v-3.486h-9.45v2.52h-4.116zm56.112 6.384q2.394-1.092 4.956-2.688 2.562-1.596 4.662-3.234H6.216v-3.906h26.838l.882-.21 3.024 2.31q-1.806 1.764-4.074 3.57-2.268 1.764-4.746 3.36-2.436 1.596-4.872 2.898v3.906H40.11v3.99H23.268v11.55q0 1.806-.546 2.772-.504.966-1.848 1.428-1.302.504-3.444.63-2.1.126-5.082.084-.168-.84-.714-2.058Q11.13.252 10.626-.588q2.436.084 4.536.126 2.1 0 2.772-.042.714-.042.924-.252.252-.21.252-.756v-11.466H2.016v-3.99H19.11Z" aria-label="电子" class="pname" font-size="42" font-weight="600" text-anchor="middle"/>
      </switch>
    </g>
    <g id="g81" transform="translate(100 1040)">
      <use xlink:href="#tilele" id="use76"/>
      <text id="text77" x="120" y="115" class="psymg">ν<tspan id="tspan76" class="sub">e</tspan></text>
      <text id="text78" x="15" y="40" class="pmass">&lt;0.8 eV/c²</text>
      <text id="text79" x="15" y="80" class="pchar">0</text>
      <text id="text80" x="15" y="120" class="pspin">½</text>
      <switch id="switch81" transform="translate(120 200)">
        <path id="text81" fill="#012" d="M-65.436-16.632h-9.45v5.124h9.45zm4.242 0v5.124h9.66v-5.124zm-4.242-3.696v-5.166h-9.45v5.166zm4.242 0h9.66v-5.166h-9.66zm-17.808-9.03h13.566v-5.964h4.242v5.964h13.734v21.714h-13.734v3.57q0 1.26.168 1.89.21.63.798.882.63.21 1.848.21h8.064q1.134 0 1.68-.546.588-.546.84-1.974.294-1.428.462-4.032.756.546 1.89 1.05t2.058.714q-.294 3.234-.924 5.166-.63 1.932-1.974 2.772-1.344.84-3.738.84h-8.736q-2.604 0-4.074-.63-1.428-.588-2.016-2.142-.588-1.512-.588-4.284v-3.486h-9.45v2.52h-4.116zm55.818-6.09h4.158v7.392h15.12v20.37h-4.116v-2.31h-11.004V3.486h-4.158V-9.996h-10.962v2.52h-3.948v-20.58h14.91zm-10.962 21.546h10.962V-24.15h-10.962zm26.124 0V-24.15h-11.004v10.248zM8.064-35.49l3.612 1.344q-1.638 2.646-3.99 5.334-2.31 2.688-4.62 4.578-.336-.588-.966-1.512-.63-.966-1.092-1.512 1.344-1.05 2.688-2.436 1.344-1.428 2.478-2.94 1.176-1.512 1.89-2.856zm5.628 22.008H24.78v7.014l3.024-1.764q.126.672.378 1.512.294.84.504 1.302-2.646 1.722-4.032 2.688-1.386.966-1.974 1.512-.588.504-.924.924-.168-.672-.588-1.68-.42-1.008-.84-1.596.462-.252.84-.882.42-.63.42-1.89v-4.032h-4.536v1.806q0 1.806-.294 3.948-.294 2.1-1.134 4.2-.798 2.058-2.394 3.738-.21-.378-.714-.924-.462-.504-.966-1.008-.504-.462-.84-.714 1.302-1.386 1.932-2.982.63-1.638.84-3.234.21-1.638.21-3.066zm17.64-10.08-.462 1.512q.378 2.814.924 5.502.546 2.646 1.344 5.082.924-2.604 1.512-5.628t.966-6.468zM11.97-18.984h13.902q1.596-3.234 2.52-7.518.924-4.326 1.386-8.904l3.654.546q-.252 2.016-.588 4.032-.294 1.974-.714 3.864h8.358v3.402H39.06q-.546 4.956-1.554 9.114-.966 4.116-2.562 7.518 1.134 2.31 2.604 4.158Q39.06-.966 40.95.21q-.588.546-1.344 1.47-.756.966-1.218 1.68-1.68-1.218-3.024-2.94-1.344-1.68-2.436-3.738-2.646 4.074-6.846 6.972-.294-.588-1.008-1.512-.672-.882-1.176-1.386Q26.334-.756 28.14-2.73q1.806-2.016 3.108-4.452-.756-2.142-1.344-4.536-.588-2.436-1.05-4.998-.294.588-.63 1.176-.294.546-.63 1.092-.252-.378-.672-.924-.42-.546-.882-1.092v.84H11.97Zm.63-13.02h2.646v7.14h2.646v-10.584h2.94v10.584h2.478v-7.14h2.772v10.332H12.6Zm-3.738 5.166 3.486 1.218q-.588 1.26-1.302 2.562-.714 1.26-1.512 2.52V3.486H5.922v-18.774q-.798 1.008-1.554 1.932-.756.882-1.554 1.68-.21-.42-.63-1.092-.378-.672-.84-1.344-.42-.714-.756-1.092 2.31-2.226 4.536-5.334 2.226-3.108 3.738-6.3zm52.248 3.864q2.394-1.092 4.956-2.688 2.562-1.596 4.662-3.234H48.216v-3.906h26.838l.882-.21 3.024 2.31q-1.806 1.764-4.074 3.57-2.268 1.764-4.746 3.36-2.436 1.596-4.872 2.898v3.906H82.11v3.99H65.268v11.55q0 1.806-.546 2.772-.504.966-1.848 1.428-1.302.504-3.444.63-2.1.126-5.082.084-.168-.84-.714-2.058Q53.13.252 52.626-.588q2.436.084 4.536.126 2.1 0 2.772-.042.714-.042.924-.252.252-.21.252-.756v-11.466H44.016v-3.99H61.11Z" aria-label="电中微子" class="pname" font-size="42" font-weight="600" text-anchor="middle"/>
      </switch>
    </g>
    <g id="g86" transform="translate(350 790)">
      <use xlink:href="#tilele" id="use81"/>
      <text id="text82" x="120" y="120" class="psymg">μ</text>
      <text id="text83" x="15" y="40" class="pmass">≈105.66 MeV/c²</text>
      <text id="text84" x="15" y="80" class="pchar">−1</text>
      <text id="text85" x="15" y="120" class="pspin">½</text>
      <switch id="switch86" transform="translate(120 200)">
        <path id="text86" fill="#012" d="M-16.652-3.445Q-18.293.472-22.025.472q-2.564 0-3.61-1.764h-.082V9.065h-4.778V-21h4.758v12.49q0 2.214 1.169 3.63 1.169 1.394 3.096 1.394 2.092 0 3.302-1.641 1.21-1.64 1.21-4.266V-21h4.799l-.02 13.863q0 3.405 2.194 3.405.553 0 .964-.144v3.753q-1.539.349-2.769.349-1.99 0-3.117-.882-1.108-.903-1.62-2.79zm27.354-19.529q2.394-1.092 4.956-2.688 2.562-1.596 4.662-3.234H-2.192v-3.906h26.838l.882-.21 3.024 2.31q-1.806 1.764-4.074 3.57-2.268 1.764-4.746 3.36-2.436 1.596-4.872 2.898v3.906h16.842v3.99H14.86v11.55q0 1.806-.546 2.772-.504.966-1.848 1.428-1.302.504-3.444.63-2.1.126-5.082.084-.168-.84-.714-2.058Q2.722.252 2.218-.588q2.436.084 4.536.126 2.1 0 2.772-.042.714-.042.924-.252.252-.21.252-.756v-11.466H-6.392v-3.99h17.094Z" aria-label="μ子" class="pname" font-size="42" font-weight="600" text-anchor="middle"/>
      </switch>
    </g>
    <g id="g91" transform="translate(350 1040)">
      <use xlink:href="#tilele" id="use86"/>
      <text id="text87" x="120" y="115" class="psymg">ν<tspan id="tspan86" class="sub">μ</tspan></text>
      <text id="text88" x="15" y="40" class="pmass">&lt;0.17 MeV/c²</text>
      <text id="text89" x="15" y="80" class="pchar">0</text>
      <text id="text90" x="15" y="120" class="pspin">½</text>
      <switch id="switch91" transform="translate(120 200)">
        <path id="text91" fill="#012" d="M-58.652-3.445Q-60.293.472-64.025.472q-2.564 0-3.61-1.764h-.082V9.065h-4.778V-21h4.758v12.49q0 2.214 1.169 3.63 1.169 1.394 3.096 1.394 2.092 0 3.302-1.641 1.21-1.64 1.21-4.266V-21h4.799l-.02 13.863q0 3.405 2.194 3.405.553 0 .964-.144v3.753q-1.538.349-2.769.349-1.99 0-3.117-.882-1.108-.903-1.62-2.79zm27.06-32.003h4.158v7.392h15.12v20.37h-4.116v-2.31h-11.004V3.486h-4.158V-9.996h-10.962v2.52h-3.948v-20.58h14.91zm-10.962 21.546h10.962V-24.15h-10.962zm26.124 0V-24.15h-11.004v10.248zM-.344-35.49l3.612 1.344Q1.63-31.5-.722-28.812q-2.31 2.688-4.62 4.578-.336-.588-.966-1.512-.63-.966-1.092-1.512 1.344-1.05 2.688-2.436 1.344-1.428 2.478-2.94 1.176-1.512 1.89-2.856zm5.628 22.008h11.088v7.014l3.024-1.764q.126.672.378 1.512.294.84.504 1.302-2.646 1.722-4.032 2.688-1.386.966-1.974 1.512-.588.504-.924.924-.168-.672-.588-1.68-.42-1.008-.84-1.596.462-.252.84-.882.42-.63.42-1.89v-4.032H8.644v1.806q0 1.806-.294 3.948-.294 2.1-1.134 4.2-.798 2.058-2.394 3.738-.21-.378-.714-.924-.462-.504-.966-1.008-.504-.462-.84-.714Q3.604-.714 4.234-2.31q.63-1.638.84-3.234.21-1.638.21-3.066zm17.64-10.08-.462 1.512q.378 2.814.924 5.502.546 2.646 1.344 5.082.924-2.604 1.512-5.628t.966-6.468zM3.562-18.984h13.902q1.596-3.234 2.52-7.518.924-4.326 1.386-8.904l3.654.546q-.252 2.016-.588 4.032-.294 1.974-.714 3.864h8.358v3.402h-1.428q-.546 4.956-1.554 9.114-.966 4.116-2.562 7.518 1.134 2.31 2.604 4.158Q30.652-.966 32.542.21q-.588.546-1.344 1.47-.756.966-1.218 1.68Q28.3 2.142 26.956.42q-1.344-1.68-2.436-3.738-2.646 4.074-6.846 6.972-.294-.588-1.008-1.512-.672-.882-1.176-1.386 2.436-1.512 4.242-3.486 1.806-2.016 3.108-4.452-.756-2.142-1.344-4.536-.588-2.436-1.05-4.998-.294.588-.63 1.176-.294.546-.63 1.092-.252-.378-.672-.924-.42-.546-.882-1.092v.84H3.562Zm.63-13.02h2.646v7.14h2.646v-10.584h2.94v10.584h2.478v-7.14h2.772v10.332H4.192ZM.454-26.838 3.94-25.62q-.588 1.26-1.302 2.562-.714 1.26-1.512 2.52V3.486h-3.612v-18.774q-.798 1.008-1.554 1.932-.756.882-1.554 1.68-.21-.42-.63-1.092-.378-.672-.84-1.344-.42-.714-.756-1.092 2.31-2.226 4.536-5.334 2.226-3.108 3.738-6.3zm52.248 3.864q2.394-1.092 4.956-2.688 2.562-1.596 4.662-3.234H39.808v-3.906h26.838l.882-.21 3.024 2.31q-1.806 1.764-4.074 3.57-2.268 1.764-4.746 3.36-2.436 1.596-4.872 2.898v3.906h16.842v3.99H56.86v11.55q0 1.806-.546 2.772-.504.966-1.848 1.428-1.302.504-3.444.63-2.1.126-5.082.084-.168-.84-.714-2.058-.504-1.176-1.008-2.016 2.436.084 4.536.126 2.1 0 2.772-.042.714-.042.924-.252.252-.21.252-.756v-11.466H35.608v-3.99h17.094z" aria-label="μ中微子" class="pname" font-size="42" font-weight="600" text-anchor="middle"/>
      </switch>
    </g>
    <g id="g96" transform="translate(600 790)">
      <use xlink:href="#tilele" id="use91"/>
      <text id="text92" x="120" y="120" class="psymg">τ</text>
      <text id="text93" x="15" y="40" class="pmass">≈1776.93 MeV/c²</text>
      <text id="text94" x="15" y="80" class="pchar">−1</text>
      <text id="text95" x="15" y="120" class="pspin">½</text>
      <switch id="switch96" transform="translate(120 200)">
        <path id="text96" fill="#012" d="M-11.002-17.411h-7.732v11.156q0 2.605 2.318 2.605 1.087 0 2.173-.41v3.773q-1.66.595-3.465.595-5.784 0-5.784-6.194V-17.41h-2.543q-2.625 0-5.086 1.948v-3.999Q-29.357-21-25.584-21h14.581zm19.93-5.563q2.394-1.092 4.956-2.688 2.562-1.596 4.662-3.234H-3.966v-3.906h26.838l.882-.21 3.024 2.31q-1.806 1.764-4.074 3.57-2.268 1.764-4.746 3.36-2.436 1.596-4.872 2.898v3.906h16.842v3.99H13.086v11.55q0 1.806-.546 2.772-.504.966-1.848 1.428-1.302.504-3.444.63-2.1.126-5.082.084-.168-.84-.714-2.058Q.948.252.444-.588q2.436.084 4.536.126 2.1 0 2.772-.042.714-.042.924-.252.252-.21.252-.756v-11.466H-8.166v-3.99H8.928z" aria-label="τ子" class="pname" font-size="42" font-weight="600" text-anchor="middle"/>
      </switch>
    </g>
    <g id="g101" transform="translate(600 1040)">
      <use xlink:href="#tilele" id="use96"/>
      <text id="text97" x="120" y="115" class="psymg">ν<tspan id="tspan96" class="sub">τ</tspan></text>
      <text id="text98" x="15" y="40" class="pmass">&lt;18.2 MeV/c²</text>
      <text id="text99" x="15" y="80" class="pchar">0</text>
      <text id="text100" x="15" y="120" class="pspin">½</text>
      <switch id="switch101" transform="translate(120 200)">
        <path id="text101" fill="#012" d="M-53.002-17.411h-7.732v11.156q0 2.605 2.318 2.605 1.086 0 2.173-.41v3.773q-1.66.595-3.465.595-5.784 0-5.784-6.194V-17.41h-2.543q-2.625 0-5.086 1.948v-3.999Q-71.357-21-67.584-21h14.582zm19.636-18.037h4.158v7.392h15.12v20.37h-4.116v-2.31h-11.004V3.486h-4.158V-9.996h-10.962v2.52h-3.948v-20.58h14.91zm-10.962 21.546h10.962V-24.15h-10.962zm26.124 0V-24.15h-11.004v10.248zM-2.118-35.49l3.612 1.344q-1.638 2.646-3.99 5.334-2.31 2.688-4.62 4.578-.336-.588-.966-1.512-.63-.966-1.092-1.512 1.344-1.05 2.688-2.436 1.344-1.428 2.478-2.94 1.176-1.512 1.89-2.856zM3.51-13.482h11.088v7.014l3.024-1.764q.126.672.378 1.512.294.84.504 1.302-2.646 1.722-4.032 2.688-1.386.966-1.974 1.512-.588.504-.924.924-.168-.672-.588-1.68-.42-1.008-.84-1.596.462-.252.84-.882.42-.63.42-1.89v-4.032H6.87v1.806q0 1.806-.294 3.948-.294 2.1-1.134 4.2-.798 2.058-2.394 3.738-.21-.378-.714-.924-.462-.504-.966-1.008Q.864.924.528.672 1.83-.714 2.46-2.31q.63-1.638.84-3.234.21-1.638.21-3.066zm17.64-10.08-.462 1.512q.378 2.814.924 5.502.546 2.646 1.344 5.082.924-2.604 1.512-5.628t.966-6.468zM1.788-18.984H15.69q1.596-3.234 2.52-7.518.924-4.326 1.386-8.904l3.654.546q-.252 2.016-.588 4.032-.294 1.974-.714 3.864h8.358v3.402h-1.428q-.546 4.956-1.554 9.114-.966 4.116-2.562 7.518 1.134 2.31 2.604 4.158Q28.878-.966 30.768.21q-.588.546-1.344 1.47-.756.966-1.218 1.68-1.68-1.218-3.024-2.94-1.344-1.68-2.436-3.738Q20.1.756 15.9 3.654q-.294-.588-1.008-1.512-.672-.882-1.176-1.386 2.436-1.512 4.242-3.486 1.806-2.016 3.108-4.452-.756-2.142-1.344-4.536-.588-2.436-1.05-4.998-.294.588-.63 1.176-.294.546-.63 1.092-.252-.378-.672-.924-.42-.546-.882-1.092v.84H1.788Zm.63-13.02h2.646v7.14H7.71v-10.584h2.94v10.584h2.478v-7.14H15.9v10.332H2.418Zm-3.738 5.166 3.486 1.218q-.588 1.26-1.302 2.562-.714 1.26-1.512 2.52V3.486H-4.26v-18.774q-.798 1.008-1.554 1.932-.756.882-1.554 1.68-.21-.42-.63-1.092-.378-.672-.84-1.344-.42-.714-.756-1.092 2.31-2.226 4.536-5.334 2.226-3.108 3.738-6.3zm52.248 3.864q2.394-1.092 4.956-2.688 2.562-1.596 4.662-3.234H38.034v-3.906h26.838l.882-.21 3.024 2.31q-1.806 1.764-4.074 3.57-2.268 1.764-4.746 3.36-2.436 1.596-4.872 2.898v3.906h16.842v3.99H55.086v11.55q0 1.806-.546 2.772-.504.966-1.848 1.428-1.302.504-3.444.63-2.1.126-5.082.084-.168-.84-.714-2.058-.504-1.176-1.008-2.016 2.436.084 4.536.126 2.1 0 2.772-.042.714-.042.924-.252.252-.21.252-.756v-11.466H33.834v-3.99h17.094z" aria-label="τ中微子" class="pname" font-size="42" font-weight="600" text-anchor="middle"/>
      </switch>
    </g>
  </g>
  <g id="g123">
    <switch id="switch102" fill="#ff6c6c" font-size="54" font-weight="700" transform="rotate(-90 1220 50)">
      <path id="text102" d="M-23.944-288.47H1.112v28.782h-6.426v-23.166h-12.474v23.166h-6.156zm-15.12-1.89h6.156v7.776h6.534v5.994h-6.534v3.456l-.054 3.078h7.236v6.156h-7.614l-.108.972q.81.756 2.052 2.214 1.242 1.404 2.592 2.97 1.35 1.566 2.484 2.916 1.134 1.296 1.62 1.89l-4.428 4.644q-.918-1.566-2.43-3.726-1.512-2.214-3.078-4.212-1.026 4.266-3.078 8.316-1.998 3.996-5.346 7.236-.702-.972-2.106-2.376-1.35-1.35-2.484-2.106 2.754-2.43 4.374-5.508 1.674-3.078 2.538-6.48.918-3.402 1.242-6.75h-7.614v-6.156h7.992l.054-3.078v-3.456h-6.966v-5.994h6.966zm24.57 10.854H-8.5v8.586q0 2.16-.216 4.59-.216 2.43-.81 4.968h2.16v13.284q0 1.026.378 1.404.378.378 1.134.378h2.484q.702 0 1.026-.648.378-.648.54-2.376.216-1.782.324-5.076 1.08.81 2.484 1.458 1.458.594 2.538.864-.27 4.104-.864 6.48-.54 2.322-1.944 3.24-1.35.972-4.05.972h-3.726q-3.186 0-4.59-1.242t-1.404-4.752v-4.86q-1.944 3.402-5.076 6.48-3.078 3.078-7.668 5.508-.378-.648-1.134-1.566-.702-.864-1.512-1.728t-1.458-1.296q5.184-2.7 8.262-5.94 3.078-3.24 4.59-6.696 1.566-3.51 2.052-6.966.486-3.456.486-6.588zM-45.49-186.54q1.836-1.566 4.104-3.726 2.268-2.214 4.698-4.752 2.43-2.538 4.644-5.022l3.564 4.968q-2.862 3.456-6.102 7.074-3.186 3.564-6.372 6.75zm2.214-26.892 3.618-4.212q1.512.756 3.348 1.782 1.836 1.026 3.564 2.052 1.782.972 2.916 1.728l-3.834 4.752q-1.08-.81-2.754-1.836-1.674-1.08-3.51-2.214-1.836-1.134-3.348-2.052zm-3.294 9.828 3.564-4.32q1.512.756 3.348 1.728 1.836.972 3.564 1.944 1.782.972 2.916 1.728l-3.726 4.806q-1.026-.81-2.754-1.836-1.674-1.026-3.51-2.106-1.836-1.08-3.402-1.944zm19.386-12.042h26.082v13.284q0 2.268-.648 3.672-.594 1.35-2.322 2.052-1.782.702-4.158.864-2.322.162-5.454.162-.27-1.404-.972-3.132-.702-1.728-1.458-2.97l2.97.108h4.32q.702 0 .918-.162.27-.216.27-.702v-7.02h-12.798v18.198q0 1.35.27 2.052.27.648 1.08.864.864.216 2.538.216h10.152q1.458 0 2.214-.486.756-.54 1.08-1.944.378-1.404.594-4.158 1.134.756 2.916 1.512 1.836.702 3.24.972-.432 3.888-1.404 6.102-.972 2.214-2.862 3.132-1.89.918-5.238.918h-11.34q-3.834 0-6.048-.81-2.16-.756-3.078-2.754-.864-1.944-.864-5.508zm11.718-16.254h6.75v3.942H2.408v5.994H-8.716v4.374h-6.75v-4.374h-13.176v4.374h-6.642v-4.374h-11.124v-5.994h11.124v-3.942h6.642v3.942h13.176zm-12.798 66.344h11.772v-7.344h6.21v7.344h7.344l.972-.216 4.644.918q-.702 3.132-1.674 6.372-.918 3.186-1.836 5.454l-5.562-1.242q.378-1.08.702-2.43.378-1.404.756-2.916h-5.346v7.56h6.048l1.08-.216 3.996 1.458q-1.188 5.508-3.24 9.882-1.998 4.374-4.806 7.83 2.268 1.674 4.914 2.97 2.7 1.242 5.778 2.052-1.026.972-2.268 2.646-1.242 1.728-1.944 3.078-6.426-2.16-11.07-6.102-2.322 1.998-5.022 3.564t-5.67 2.754q-.54-1.188-1.566-2.754-1.026-1.512-1.944-2.43 5.616-1.89 9.882-5.454-3.834-4.806-6.318-11.07-.324 3.672-1.134 7.56-.756 3.834-2.16 7.398-1.404 3.564-3.726 6.426-.486-.594-1.404-1.404-.864-.81-1.836-1.566-.918-.756-1.62-1.134 1.242-1.566 2.16-3.348.918-1.782 1.566-3.672l-15.768 5.994-1.296-6.102q2.7-.81 6.318-2.052v-12.528h-5.238v-5.94h5.238v-9.558h-5.886v-5.994h17.442v5.994h-5.562v9.558h4.482v5.94h-4.482v10.368l4.482-1.674.81 4.428q1.188-4.05 1.458-8.208.324-4.158.324-7.668zm11.772 5.94h-5.67v7.56h5.67zm9.828 13.23h-10.638q2.052 5.184 5.562 9.18 1.566-2.052 2.862-4.32 1.296-2.268 2.214-4.86zm-17.928 53.492H-34.69v6.48h10.098zm6.318 0v6.48h9.882v-6.48zm-.216-11.07h-12.096q-1.08 1.35-2.214 2.646-1.134 1.242-2.376 2.484h12.15q2.43-2.322 4.536-5.13zm-12.474-10.314 5.832 2.268-1.35 2.322h12.474l1.242-.378 4.212 3.132q-1.404 1.998-3.132 4.104-1.728 2.052-3.564 3.996h13.23v20.358h-6.372v-1.782H-34.69v6.318q0 1.674.486 2.538.486.81 1.944 1.08t4.374.27h18.36q2.646 0 3.942-.54 1.296-.594 1.89-2.322.594-1.728.918-5.076 1.242.702 2.97 1.404 1.782.648 3.132.864-.54 4.482-1.728 7.02-1.188 2.484-3.726 3.51-2.484 1.026-7.074 1.026h-18.576q-5.022 0-7.938-.81-2.862-.81-4.05-2.916-1.188-2.106-1.188-5.994v-19.71l-1.62 1.188q-.756.594-1.566 1.134-.27-.756-.918-1.89-.594-1.188-1.296-2.376-.648-1.188-1.242-1.89 3.24-1.944 6.318-4.59 3.132-2.646 5.778-5.778 2.7-3.132 4.536-6.48zm5.886 75.308q2.592-1.242 5.346-2.916 2.808-1.728 5.184-3.51H-41.17v-6.372h33.804l1.458-.378 4.968 3.834q-3.456 3.348-8.1 6.804-4.644 3.402-9.288 5.94v4.104h21.06v6.534h-21.06v13.068q0 2.7-.756 4.212-.702 1.512-2.646 2.268-1.998.756-4.806.972-2.808.216-6.534.162-.27-1.404-1.134-3.402-.81-1.944-1.62-3.294 1.89.108 3.78.162 1.89.054 3.348.054 1.458-.054 2.052-.054.918-.054 1.242-.27.324-.27.324-.972V-24.93H-46.57v-6.534h21.492z" aria-label="规范玻色子" transform="rotate(90)"/>
    </switch>
    <g id="g107" transform="translate(860 275)">
      <use xlink:href="#tilegb" id="use103"/>
      <text id="text103" x="120" y="120" class="psymr">g</text>
      <text id="text104" x="15" y="40" class="pmass">0</text>
      <text id="text105" x="15" y="80" class="pchar">0</text>
      <text id="text106" x="15" y="120" class="pspin">1</text>
      <switch id="switch107" transform="translate(120 200)">
        <path id="text107" fill="#012" d="m-11.382-23.268 2.772-2.1q1.344 1.302 2.73 2.856 1.428 1.554 2.604 3.108 1.218 1.512 1.89 2.772l-2.982 2.394q-.63-1.26-1.764-2.856-1.134-1.596-2.52-3.192-1.386-1.638-2.73-2.982zm1.638 5.712 3.78.966q-1.764 6.048-5.25 10.542Q-7.14-2.016-1.302-.126q-.672.588-1.47 1.638-.756 1.05-1.218 1.89-5.754-2.184-9.912-6.468-4.242 4.116-10.248 6.678-.336-.588-1.05-1.47-.672-.84-1.26-1.386-.336 1.134-1.218 1.68-.798.462-2.016.588-1.176.126-2.898.126-.084-.756-.42-1.848-.294-1.05-.63-1.722 1.05.042 1.932.042.882 0 1.176-.042.63 0 .63-.63v-9.114h-4.872q-.252 3.696-.924 7.35-.672 3.654-1.974 6.552-.546-.462-1.512-1.008t-1.638-.798q1.344-2.94 1.932-6.468.588-3.57.714-7.182.168-3.612.168-6.678v-15.078h11.718v16.716q1.974-1.596 3.78-3.906 1.848-2.352 2.982-4.452l3.528 1.638q-1.008 1.68-2.31 3.402-1.26 1.722-2.646 3.234l2.562-.63q.84 2.31 1.974 4.494 1.134 2.142 2.562 4.032 2.772-3.78 4.116-8.61zm-24.738-12.348v6.174h4.578v-6.174zm0 9.744v1.722l-.084 4.662h4.662v-6.384zm8.19 3.738V-1.05q0 .84-.126 1.554 5.922-2.436 9.996-6.51-1.638-2.184-2.94-4.704-1.302-2.562-2.31-5.418-.504.546-1.05 1.05-.504.504-1.008.966-.462-.546-1.218-1.176-.714-.672-1.344-1.134zm9.24-18.018 3.654-1.302q.966 1.176 1.806 2.646.84 1.47 1.26 2.562L-13.23-29.4h10.92v3.654h-22.134V-29.4h10.122q-.42-1.092-1.176-2.478-.714-1.428-1.554-2.562zM19.11-22.974q2.394-1.092 4.956-2.688 2.562-1.596 4.662-3.234H6.216v-3.906h26.838l.882-.21 3.024 2.31q-1.806 1.764-4.074 3.57-2.268 1.764-4.746 3.36-2.436 1.596-4.872 2.898v3.906H40.11v3.99H23.268v11.55q0 1.806-.546 2.772-.504.966-1.848 1.428-1.302.504-3.444.63-2.1.126-5.082.084-.168-.84-.714-2.058Q11.13.252 10.626-.588q2.436.084 4.536.126 2.1 0 2.772-.042.714-.042.924-.252.252-.21.252-.756v-11.466H2.016v-3.99H19.11Z" aria-label="胶子" class="pname" font-size="42" font-weight="600" text-anchor="middle"/>
      </switch>
    </g>
    <g id="g112" transform="translate(860 525)">
      <use xlink:href="#tilegb" id="use107"/>
      <text id="text108" x="120" y="120" class="psymg">γ</text>
      <text id="text109" x="15" y="40" class="pmass">0</text>
      <text id="text110" x="15" y="80" class="pchar">0</text>
      <text id="text111" x="15" y="120" class="pspin">1</text>
      <switch id="switch112" transform="translate(120 200)">
        <path id="text112" fill="#012" d="m-36.498-32.172 3.57-1.344q1.05 1.596 2.016 3.444 1.008 1.848 1.764 3.654.798 1.764 1.176 3.192l-3.822 1.512q-.336-1.386-1.092-3.192-.714-1.806-1.68-3.696-.924-1.932-1.932-3.57zm27.426-1.722 4.158 1.428q-.882 1.848-1.89 3.78-1.008 1.932-2.016 3.696-1.008 1.764-1.932 3.108l-3.444-1.302q.882-1.428 1.848-3.276.966-1.89 1.806-3.822.882-1.974 1.47-3.612zm-14.07-1.554h4.032v15.75H-2.1v3.78h-11.634v13.902q0 1.092.294 1.428.336.294 1.47.294h4.83q.756 0 1.134-.462.378-.504.546-1.974.21-1.512.294-4.452.63.504 1.722.966 1.134.462 1.932.672-.21 3.528-.756 5.502-.504 1.932-1.554 2.688-1.05.798-2.982.798h-5.67q-2.1 0-3.234-.504-1.134-.462-1.596-1.68-.42-1.176-.42-3.234v-13.944h-7.014q-.294 3.402-.966 6.384-.672 2.94-2.1 5.418-1.386 2.478-3.948 4.41-2.52 1.932-6.552 3.276-.336-.798-1.092-1.848Q-40.11.714-40.782.126q3.654-1.092 5.88-2.688t3.402-3.612q1.218-2.016 1.722-4.452.546-2.478.798-5.292h-10.836v-3.78h16.674zM19.11-22.974q2.394-1.092 4.956-2.688 2.562-1.596 4.662-3.234H6.216v-3.906h26.838l.882-.21 3.024 2.31q-1.806 1.764-4.074 3.57-2.268 1.764-4.746 3.36-2.436 1.596-4.872 2.898v3.906H40.11v3.99H23.268v11.55q0 1.806-.546 2.772-.504.966-1.848 1.428-1.302.504-3.444.63-2.1.126-5.082.084-.168-.84-.714-2.058Q11.13.252 10.626-.588q2.436.084 4.536.126 2.1 0 2.772-.042.714-.042.924-.252.252-.21.252-.756v-11.466H2.016v-3.99H19.11Z" aria-label="光子" class="pname" font-size="42" font-weight="600" text-anchor="middle"/>
      </switch>
    </g>
    <g id="g117" transform="translate(860 790)">
      <use xlink:href="#tilegb" id="use112"/>
      <text id="text113" x="120" y="120" class="psymr">Z</text>
      <text id="text114" x="15" y="40" class="pmass">≈91.1880 GeV/c²</text>
      <text id="text115" x="15" y="80" class="pchar">0</text>
      <text id="text116" x="15" y="120" class="pspin">1</text>
      <switch id="switch117" transform="translate(120 200)">
        <path id="text117" fill="#012" d="M-51.639-27.275-67.758-4.122h15.914V0h-22.743v-2.235l16.18-23.03h-14.929v-4.143h21.697zm2.308 22.613q1.092-.336 2.436-.798 1.344-.462 2.814-1.008V-17.01h-4.452v-3.654h4.452v-8.442h-4.872v-3.696h13.146v3.696h-4.578v8.442h3.696v3.654h-3.696v9.198l3.948-1.512.63 3.528q-3.276 1.302-6.636 2.604-3.318 1.26-6.048 2.352zm14.994-24.822h9.408v-5.964h3.822v5.964h6.972l.63-.126 2.856.63q-.588 2.31-1.344 4.704-.714 2.394-1.386 4.074L-16.823-21q.336-.924.714-2.184.378-1.26.672-2.604h-5.67v6.678h5.544l.756-.126 2.436.924q-1.008 4.242-2.73 7.644-1.68 3.402-3.99 6.048 3.906 3.066 9.114 4.494-.63.588-1.386 1.638-.756 1.05-1.176 1.848-5.376-1.764-9.366-5.166-1.974 1.722-4.284 3.066-2.31 1.344-4.788 2.31-.336-.714-.966-1.68-.63-.966-1.218-1.512 4.704-1.554 8.61-4.83-1.932-2.226-3.486-4.914-1.512-2.73-2.646-5.838-.126 2.982-.63 6.3-.504 3.318-1.638 6.468-1.092 3.15-3.066 5.67-.42-.546-1.386-1.386-.966-.798-1.596-1.134 1.596-2.058 2.52-4.452.924-2.394 1.386-4.956.462-2.562.588-4.998.168-2.478.168-4.662zm9.408 3.696h-5.67v6.678h5.67zm7.896 10.206H-27.07q.966 2.394 2.226 4.536 1.302 2.1 2.982 3.906 1.554-1.806 2.772-3.906 1.218-2.1 2.058-4.536zm27.846-4.536H1.91v6.342h8.904zm3.906 0v6.342h8.988v-6.342zm1.176-8.316H5.563q-1.932 2.436-4.158 4.662h10.416q1.05-.966 2.1-2.184 1.05-1.26 1.974-2.478zm-10.08-7.224 3.612 1.344q-.294.588-.672 1.176-.336.588-.714 1.176h10.5l.798-.21 2.562 1.89q-1.05 1.596-2.436 3.318-1.386 1.68-2.856 3.192h11.046v15.414h-3.948v-1.638H1.91v6.09q0 1.26.378 1.932.42.672 1.554.924 1.176.21 3.486.21h15.498q2.058 0 3.066-.462 1.05-.504 1.47-1.89.462-1.428.714-4.116.756.462 1.848.882 1.134.378 1.974.546-.42 3.36-1.26 5.25-.798 1.89-2.604 2.646-1.764.798-5.082.798H7.495q-3.57 0-5.628-.588Q-.19 1.68-1.073.21q-.84-1.428-.84-4.116v-16.842q-.798.672-1.596 1.26t-1.596 1.134q-.168-.462-.588-1.176-.378-.714-.798-1.428-.42-.714-.756-1.134 2.562-1.554 4.998-3.654 2.436-2.142 4.536-4.662 2.1-2.52 3.528-5.25zm46.62 12.684q2.394-1.092 4.956-2.688 2.562-1.596 4.662-3.234H39.541v-3.906H66.38l.882-.21 3.024 2.31q-1.806 1.764-4.074 3.57-2.268 1.764-4.746 3.36-2.436 1.596-4.872 2.898v3.906h16.842v3.99H56.593v11.55q0 1.806-.546 2.772-.504.966-1.848 1.428-1.302.504-3.444.63-2.1.126-5.082.084-.168-.84-.714-2.058-.504-1.176-1.008-2.016 2.436.084 4.536.126 2.1 0 2.772-.042.714-.042.924-.252.252-.21.252-.756v-11.466H35.341v-3.99h17.094z" aria-label="Z玻色子" class="pname" font-size="42" font-weight="600" text-anchor="middle"/>
      </switch>
    </g>
    <g id="g122" transform="translate(860 1040)">
      <use xlink:href="#tilegb" id="use117"/>
      <text id="text118" x="120" y="120" class="psymr">W</text>
      <text id="text119" x="15" y="40" class="pmass">≈80.3692 GeV/c²</text>
      <text id="text120" x="15" y="80" class="pchar">±1</text>
      <text id="text121" x="15" y="120" class="pspin">1</text>
      <switch id="switch122" transform="translate(120 200)">
        <path id="text122" fill="#012" d="M-43.169-29.408-51.229 0h-5.516l-5.599-20.57q-.348-1.312-.43-2.87h-.082q-.103 1.456-.493 2.83L-68.968 0h-5.64l-8.223-29.408h5.353l5.331 21.533q.329 1.353.41 2.83h.103q.082-1.046.574-2.83l6.03-21.533h5.024l5.578 21.697q.287 1.107.43 2.625h.083q.062-1.025.472-2.707l5.23-21.615zm1.795 24.746q1.092-.336 2.436-.798 1.344-.462 2.814-1.008V-17.01h-4.452v-3.654h4.452v-8.442h-4.872v-3.696h13.146v3.696h-4.578v8.442h3.696v3.654h-3.696v9.198l3.948-1.512.63 3.528q-3.276 1.302-6.636 2.604-3.318 1.26-6.048 2.352zm14.994-24.822h9.408v-5.964h3.822v5.964h6.972l.63-.126 2.856.63q-.588 2.31-1.344 4.704-.714 2.394-1.386 4.074L-8.866-21q.336-.924.714-2.184.378-1.26.672-2.604h-5.67v6.678h5.544l.756-.126 2.436.924q-1.008 4.242-2.73 7.644-1.68 3.402-3.99 6.048Q-7.228-1.554-2.02-.126q-.63.588-1.386 1.638-.756 1.05-1.176 1.848-5.376-1.764-9.366-5.166-1.974 1.722-4.284 3.066-2.31 1.344-4.788 2.31-.336-.714-.966-1.68-.63-.966-1.218-1.512 4.704-1.554 8.61-4.83-1.932-2.226-3.486-4.914-1.512-2.73-2.646-5.838-.126 2.982-.63 6.3-.504 3.318-1.638 6.468-1.092 3.15-3.066 5.67-.42-.546-1.386-1.386-.966-.798-1.596-1.134 1.596-2.058 2.52-4.452.924-2.394 1.386-4.956.462-2.562.588-4.998.168-2.478.168-4.662zm9.408 3.696h-5.67v6.678h5.67zm7.896 10.206h-10.038q.966 2.394 2.226 4.536 1.302 2.1 2.982 3.906 1.554-1.806 2.772-3.906 1.218-2.1 2.058-4.536zm27.846-4.536H9.866v6.342h8.904zm3.906 0v6.342h8.988v-6.342zm1.176-8.316H13.52q-1.932 2.436-4.158 4.662h10.416q1.05-.966 2.1-2.184 1.05-1.26 1.974-2.478zm-10.08-7.224 3.612 1.344q-.294.588-.672 1.176-.336.588-.714 1.176h10.5l.798-.21 2.562 1.89q-1.05 1.596-2.436 3.318-1.386 1.68-2.856 3.192h11.046v15.414h-3.948v-1.638H9.866v6.09q0 1.26.378 1.932.42.672 1.554.924 1.176.21 3.486.21h15.498q2.058 0 3.066-.462 1.05-.504 1.47-1.89.462-1.428.714-4.116.756.462 1.848.882 1.134.378 1.974.546-.42 3.36-1.26 5.25-.798 1.89-2.604 2.646-1.764.798-5.082.798H15.452q-3.57 0-5.628-.588Q7.766 1.68 6.884.21q-.84-1.428-.84-4.116v-16.842q-.798.672-1.596 1.26t-1.596 1.134q-.168-.462-.588-1.176-.378-.714-.798-1.428-.42-.714-.756-1.134 2.562-1.554 4.998-3.654 2.436-2.142 4.536-4.662 2.1-2.52 3.528-5.25zm46.62 12.684q2.394-1.092 4.956-2.688 2.562-1.596 4.662-3.234H47.498v-3.906h26.838l.882-.21 3.024 2.31q-1.806 1.764-4.074 3.57-2.268 1.764-4.746 3.36-2.436 1.596-4.872 2.898v3.906h16.842v3.99H64.55v11.55q0 1.806-.546 2.772-.504.966-1.848 1.428-1.302.504-3.444.63-2.1.126-5.082.084-.168-.84-.714-2.058-.504-1.176-1.008-2.016 2.436.084 4.536.126 2.1 0 2.772-.042.714-.042.924-.252.252-.21.252-.756v-11.466H43.298v-3.99h17.094z" aria-label="W玻色子" class="pname" font-size="42" font-weight="600" text-anchor="middle"/>
      </switch>
    </g>
  </g>
  <g id="g129">
    <switch id="switch123" fill="#eb3" font-size="54" font-weight="700" transform="rotate(-90 940 -410)">
      <path id="text123" d="M-23.782 7.448H.032v6.048h-23.814zM-7.258 32.99l5.346-1.836q1.242 2.7 2.322 5.778 1.134 3.078 1.998 5.994.864 2.916 1.188 5.184l-5.832 2.106q-.27-2.214-1.026-5.184t-1.782-6.102q-1.026-3.186-2.214-5.94zm-16.632-1.62 5.832 1.35q-.756 3.132-1.89 6.318-1.134 3.186-2.484 5.994-1.296 2.808-2.7 4.914-.54-.486-1.512-1.134-.918-.648-1.89-1.242-.972-.648-1.674-.972 2.052-2.808 3.672-6.912 1.674-4.104 2.646-8.316zm-2.376-11.016H3.056v6.048h-12.15v20.844q0 2.376-.486 3.834-.432 1.458-1.998 2.268-1.512.81-3.564.972-1.998.216-4.752.216-.108-1.404-.648-3.348-.54-1.89-1.188-3.294 1.62.054 3.078.054h2.052q.54 0 .702-.162.216-.162.216-.702V26.402h-10.584ZM-39.658 4.1h6.426v10.692h6.318v5.994h-6.318v1.134q.594.648 1.62 1.89 1.026 1.188 2.16 2.592 1.134 1.35 2.052 2.484.918 1.134 1.296 1.62l-3.456 5.13q-.54-1.242-1.566-2.97-1.026-1.728-2.106-3.456v25.596h-6.426v-22.14q-1.08 3.348-2.43 6.372-1.296 2.97-2.754 5.076-.432-1.35-1.458-3.186-.972-1.89-1.836-3.132 1.566-1.944 2.916-4.752 1.404-2.862 2.484-6.048 1.134-3.186 1.836-6.21h-6.264v-5.994h7.506zm6.21 68.936v1.836h22.464v-1.836zm0-4.968v1.836h22.464v-1.836zm-6.21-3.294H-4.45v13.392h-35.208zm-6.858 15.012H2.678v4.644h-49.194zm11.934 14.796v1.89h9.396v-1.89zm15.66 0v1.89h9.45v-1.89zm-15.66-5.13v1.89h9.396v-1.89zm15.66 0v1.89h9.45v-1.89zm-27.702 18.36h21.438v-1.998h-16.578v-4.104h16.578v-1.782H-40.63V86.05H-3.1v13.878h-15.822v1.782h16.848v4.104h-16.848v1.998H2.786v4.698h-49.41zm18.36 21.632h11.772V122.1h6.21v7.344h7.344l.972-.216 4.644.918q-.702 3.132-1.674 6.372-.918 3.186-1.836 5.454l-5.562-1.242q.378-1.08.702-2.43.378-1.404.756-2.916h-5.346v7.56h6.048l1.08-.216 3.996 1.458q-1.188 5.508-3.24 9.882-1.998 4.374-4.806 7.83 2.268 1.674 4.914 2.97 2.7 1.242 5.778 2.052-1.026.972-2.268 2.646-1.242 1.728-1.944 3.078-6.426-2.16-11.07-6.102-2.322 1.998-5.022 3.564t-5.67 2.754q-.54-1.188-1.566-2.754-1.026-1.512-1.944-2.43 5.616-1.89 9.882-5.454-3.834-4.806-6.318-11.07-.324 3.672-1.134 7.56-.756 3.834-2.16 7.398-1.404 3.564-3.726 6.426-.486-.594-1.404-1.404-.864-.81-1.836-1.566-.918-.756-1.62-1.134 1.242-1.566 2.16-3.348.918-1.782 1.566-3.672l-15.768 5.994-1.296-6.102q2.7-.81 6.318-2.052v-12.528h-5.238v-5.94h5.238v-9.558h-5.886v-5.994h17.442v5.994h-5.562v9.558h4.482v5.94h-4.482v10.368l4.482-1.674.81 4.428q1.188-4.05 1.458-8.208.324-4.158.324-7.668zm11.772 5.94h-5.67v7.56h5.67zm9.828 13.23h-10.638q2.052 5.184 5.562 9.18 1.566-2.052 2.862-4.32 1.296-2.268 2.214-4.86zm-17.928 53.492H-34.69v6.48h10.098zm6.318 0v6.48h9.882v-6.48zm-.216-11.07h-12.096q-1.08 1.35-2.214 2.646-1.134 1.242-2.376 2.484h12.15q2.43-2.322 4.536-5.13zm-12.474-10.314 5.832 2.268-1.35 2.322h12.474l1.242-.378 4.212 3.132q-1.404 1.998-3.132 4.104-1.728 2.052-3.564 3.996h13.23v20.358h-6.372v-1.782H-34.69v6.318q0 1.674.486 2.538.486.81 1.944 1.08t4.374.27h18.36q2.646 0 3.942-.54 1.296-.594 1.89-2.322.594-1.728.918-5.076 1.242.702 2.97 1.404 1.782.648 3.132.864-.54 4.482-1.728 7.02-1.188 2.484-3.726 3.51-2.484 1.026-7.074 1.026h-18.576q-5.022 0-7.938-.81-2.862-.81-4.05-2.916-1.188-2.106-1.188-5.994v-19.71l-1.62 1.188q-.756.594-1.566 1.134-.27-.756-.918-1.89-.594-1.188-1.296-2.376-.648-1.188-1.242-1.89 3.24-1.944 6.318-4.59 3.132-2.646 5.778-5.778 2.7-3.132 4.536-6.48zm5.886 75.308q2.592-1.242 5.346-2.916 2.808-1.728 5.184-3.51H-41.17v-6.372h33.804l1.458-.378 4.968 3.834q-3.456 3.348-8.1 6.804-4.644 3.402-9.288 5.94v4.104h21.06v6.534h-21.06v13.068q0 2.7-.756 4.212-.702 1.512-2.646 2.268-1.998.756-4.806.972-2.808.216-6.534.162-.27-1.404-1.134-3.402-.81-1.944-1.62-3.294 1.89.108 3.78.162 1.89.054 3.348.054 1.458-.054 2.052-.054.918-.054 1.242-.27.324-.27.324-.972V270.07H-46.57v-6.534h21.492z" aria-label="标量玻色子" transform="rotate(90)"/>
    </switch>
    <g id="g128" transform="translate(1120 275)">
      <use xlink:href="#tilesb" id="use124"/>
      <text id="text124" x="120" y="120" class="psymr">H</text>
      <text id="text125" x="15" y="40" class="pmass">≈125.20 GeV/c²</text>
      <text id="text126" x="15" y="80" class="pchar">0</text>
      <text id="text127" x="15" y="120" class="pspin">0</text>
      <switch id="switch128" transform="translate(120 200)">
        <path id="text128" fill="#012" d="m-85.44-26.19 1.95-1.71q2.19.54 4.65 1.26 2.49.72 4.95 1.53 1.95-.72 3.69-1.53 1.74-.84 3.09-1.77l2.37 1.56q-1.2.81-2.61 1.56-1.41.72-2.97 1.41 1.89.66 3.57 1.35 1.68.66 2.97 1.29l-2.16 2.01q-1.47-.75-3.51-1.59-2.04-.87-4.38-1.71l-2.76.9 1.44.39q-.3.69-.63 1.38-.3.69-.63 1.38h14.76v2.49h-16.2q-.57.87-1.2 1.74-.6.84-1.29 1.65h5.01v-2.76h2.76v2.76h8.55v7.38q0 1.02-.27 1.59-.24.54-.99.87-.75.3-1.86.36t-2.76.06q-.09-.6-.36-1.26-.24-.69-.51-1.2 1.14.03 2.1.03h1.26q.33 0 .42-.09.12-.09.12-.39v-4.83h-5.7v9.6h-2.76v-9.6h-5.19v7.95h-2.82v-7.41q-.9.75-1.86 1.44-.96.69-2.01 1.29-.33-.48-.9-1.11-.57-.66-.99-1.05 2.4-1.26 4.41-3.09 2.01-1.83 3.51-3.93h-7.14v-2.49h8.7q.72-1.32 1.26-2.61-1.83.48-3.63.93-1.77.45-3.48.78-.33-.48-.9-1.23-.57-.75-1.02-1.14 2.4-.39 4.86-.93 2.46-.54 4.83-1.2-2.01-.66-3.99-1.23-1.95-.6-3.75-1.08zm42.93 3.51-.3.45q.6 1.02 1.35 2.04.75 1.02 1.71 2.01.93-1.02 1.71-2.13.81-1.14 1.41-2.37zm-11.76-5.64h2.7v6.33h3.66v1.62q1.65-1.59 3.03-3.66 1.38-2.07 2.22-4.32l2.7.72q-.24.66-.54 1.29-.27.63-.6 1.23h5.76l.51-.12 1.77.84q-.78 2.34-2.01 4.32-1.2 1.98-2.73 3.66 1.5 1.17 3.3 2.16 1.8.96 3.9 1.56-.42.39-.93 1.14-.51.72-.81 1.23l-1.02-.39V-.57h-2.73v-1.08h-7.47v1.2h-2.64v-10.02q-.48.21-.99.42t-1.02.39q-.24-.51-.72-1.2-.45-.69-.87-1.08l.15-.06q-.33-.6-.87-1.44-.51-.84-1.05-1.62V-.51h-2.7v-13.05q-.75 2.22-1.68 4.23-.9 2.01-1.92 3.36-.18-.6-.63-1.32-.42-.72-.75-1.23.96-1.23 1.86-3.03.9-1.8 1.65-3.81.75-2.04 1.2-3.99h-3.99v-2.64h4.26zm10.71 24.21h7.47v-5.07h-7.47zm-.45-7.47h8.76q-2.52-1.32-4.44-3.03-2.07 1.8-4.32 3.03zm-.36-8.52q-.63.78-1.29 1.5-.66.69-1.35 1.29-.36-.39-1.05-.99-.66-.6-1.17-.93l.15-.12h-2.49v1.08q.33.33.84.96.54.63 1.11 1.32.6.69 1.08 1.29.48.6.66.87l-1.23 1.65q4.11-1.41 7.5-4.26-1.65-1.83-2.76-3.66zm19.44 12.81 2.67.78q-.75 1.62-1.92 3.21-1.14 1.56-2.31 2.61-.36-.33-1.05-.87-.69-.51-1.2-.78 1.14-.96 2.16-2.25 1.02-1.32 1.65-2.7zm4.2 1.11 2.25-1.05q.78.84 1.56 1.95.78 1.08 1.17 1.89l-2.37 1.2q-.36-.78-1.11-1.92-.75-1.14-1.5-2.07zm2.01-21.81h2.61v3.45h2.01v2.49h-2.01v11.82h2.16v2.49h-15v-2.49h2.76v-11.82h-2.37v-2.49h2.37v-3.45h2.58v3.45h4.89zm-4.89 5.94v2.37h4.89v-2.37zm0 4.56v2.43h4.89v-2.43zm0 4.65v2.61h4.89v-2.61zm10.65-12.3q1.71-.39 3.45-.9 1.77-.54 3.33-1.11 1.59-.6 2.7-1.2l2.28 2.04q-1.89.9-4.32 1.65-2.43.75-4.83 1.32v5.04h9.3v2.61h-2.91V-.48h-2.67v-15.21h-3.72v1.2q0 2.76-.33 5.31-.3 2.55-1.26 4.89-.93 2.31-2.82 4.35-.36-.45-.96-.96-.57-.51-1.05-.87 1.68-1.86 2.49-3.93.81-2.07 1.05-4.29.27-2.25.27-4.53zM.96-6.33q.78-.24 1.74-.57.96-.33 2.01-.72v-7.53H1.53v-2.61h3.18v-6.03H1.23v-2.64h9.39v2.64H7.35v6.03h2.64v2.61H7.35v6.57l2.82-1.08.45 2.52q-2.34.93-4.74 1.86-2.37.9-4.32 1.68zm10.71-17.73h6.72v-4.26h2.73v4.26h4.98l.45-.09 2.04.45q-.42 1.65-.96 3.36-.51 1.71-.99 2.91L24.18-18q.24-.66.51-1.56t.48-1.86h-4.05v4.77h3.96l.54-.09 1.74.66q-.72 3.03-1.95 5.46-1.2 2.43-2.85 4.32 2.79 2.19 6.51 3.21-.45.42-.99 1.17T27.24-.6q-3.84-1.26-6.69-3.69-1.41 1.23-3.06 2.19-1.65.96-3.42 1.65-.24-.51-.69-1.2-.45-.69-.87-1.08 3.36-1.11 6.15-3.45-1.38-1.59-2.49-3.51-1.08-1.95-1.89-4.17-.09 2.13-.45 4.5t-1.17 4.62q-.78 2.25-2.19 4.05-.3-.39-.99-.99-.69-.57-1.14-.81 1.14-1.47 1.8-3.18.66-1.71.99-3.54.33-1.83.42-3.57.12-1.77.12-3.33zm6.72 2.64h-4.05v4.77h4.05zm5.64 7.29h-7.17q.69 1.71 1.59 3.24.93 1.5 2.13 2.79 1.11-1.29 1.98-2.79.87-1.5 1.47-3.24zm19.89-3.24h-6.36v4.53h6.36zm2.79 0v4.53h6.42v-4.53zm.84-5.94h-7.38q-1.38 1.74-2.97 3.33h7.44q.75-.69 1.5-1.56.75-.9 1.41-1.77zm-7.2-5.16 2.58.96q-.21.42-.48.84-.24.42-.51.84h7.5l.57-.15 1.83 1.35q-.75 1.14-1.74 2.37-.99 1.2-2.04 2.28h7.89v11.01h-2.82v-1.17H37.56v4.35q0 .9.27 1.38.3.48 1.11.66.84.15 2.49.15H52.5q1.47 0 2.19-.33.75-.36 1.05-1.35.33-1.02.51-2.94.54.33 1.32.63.81.27 1.41.39-.3 2.4-.9 3.75-.57 1.35-1.86 1.89-1.26.57-3.63.57H41.55q-2.55 0-4.02-.42-1.47-.39-2.1-1.44-.6-1.02-.6-2.94v-12.03q-.57.48-1.14.9-.57.42-1.14.81-.12-.33-.42-.84-.27-.51-.57-1.02-.3-.51-.54-.81 1.83-1.11 3.57-2.61 1.74-1.53 3.24-3.33 1.5-1.8 2.52-3.75zm33.3 9.06q1.71-.78 3.54-1.92t3.33-2.31H64.44v-2.79h19.17l.63-.15 2.16 1.65q-1.29 1.26-2.91 2.55-1.62 1.26-3.39 2.4-1.74 1.14-3.48 2.07v2.79h12.03v2.85H76.62v8.25q0 1.29-.39 1.98-.36.69-1.32 1.02-.93.36-2.46.45-1.5.09-3.63.06-.12-.6-.51-1.47-.36-.84-.72-1.44 1.74.06 3.24.09 1.5 0 1.98-.03.51-.03.66-.18.18-.15.18-.54v-8.19H61.44v-2.85h12.21z" aria-label="希格斯玻色子" class="txcol" font-size="30" font-weight="600" text-anchor="middle"/>
      </switch>
    </g>
  </g>
</svg>
