<svg xmlns="http://www.w3.org/2000/svg" xmlns:xlink="http://www.w3.org/1999/xlink" width="4.2in" height="3.9in" viewBox="696 1047 5045 4660">
  <defs>
    <path id="a" fill="none" stroke="#00f" stroke-linecap="butt" stroke-linejoin="miter" stroke-width="16" d="m3104 1296-218 328"/>
    <path id="b" fill="#00f" stroke="#00f" stroke-width="16" d="m3111 1341 44-122-96 88 52 34z"/>
    <path id="c" fill="none" stroke="#00f" stroke-linecap="butt" stroke-linejoin="miter" stroke-width="16" d="m3300 1427-218 328"/>
    <path id="d" fill="#00f" stroke="#00f" stroke-width="16" d="m3308 1472 44-121-97 87 53 34z"/>
    <path id="e" fill="none" stroke="#00f" stroke-linecap="butt" stroke-linejoin="miter" stroke-width="16" d="m3497 1559-219 327"/>
    <path id="f" fill="#00f" stroke="#00f" stroke-width="16" d="m3504 1604 44-122-97 87 53 35z"/>
    <path id="g" fill="none" stroke="#00f" stroke-linecap="butt" stroke-linejoin="miter" stroke-width="16" d="m3694 1690-218 327"/>
    <path id="h" fill="#00f" stroke="#00f" stroke-width="16" d="m3700 1735 44-122-96 87 52 35z"/>
    <path id="i" fill="none" stroke="#00f" stroke-linecap="butt" stroke-linejoin="miter" stroke-width="16" d="m3890 1821-218 327"/>
    <path id="j" fill="#00f" stroke="#00f" stroke-width="16" d="m3898 1866 44-122-97 88 53 34z"/>
    <path id="k" fill="none" stroke="#00f" stroke-linecap="butt" stroke-linejoin="miter" stroke-width="16" d="m4087 1951-219 328"/>
    <path id="l" fill="#00f" stroke="#00f" stroke-width="16" d="m4094 1996 44-121-97 87 53 34z"/>
    <path id="m" fill="none" stroke="#00f" stroke-linecap="butt" stroke-linejoin="miter" stroke-width="16" d="m4283 2082-218 328"/>
    <path id="n" fill="#00f" stroke="#00f" stroke-width="16" d="m4290 2128 44-122-96 87 52 35z"/>
    <path id="o" fill="none" stroke="#00f" stroke-linecap="butt" stroke-linejoin="miter" stroke-width="16" d="m4479 2214-218 327"/>
    <path id="p" fill="#00f" stroke="#00f" stroke-width="16" d="m4487 2259 44-122-97 87 53 35z"/>
    <path id="q" fill="none" stroke="#00f" stroke-linecap="butt" stroke-linejoin="miter" stroke-width="16" d="m4677 2345-219 327"/>
    <path id="r" fill="#00f" stroke="#00f" stroke-width="16" d="m4683 2390 44-122-97 87 53 35z"/>
    <path id="s" fill="none" stroke="#00f" stroke-linecap="butt" stroke-linejoin="miter" stroke-width="16" d="m4873 2476-218 328"/>
    <path id="t" fill="#00f" stroke="#00f" stroke-width="16" d="m4879 2521 44-122-96 88 52 34z"/>
    <path id="u" fill="none" stroke="#00f" stroke-linecap="butt" stroke-linejoin="miter" stroke-width="16" d="m5069 2607-218 328"/>
    <path id="v" fill="#00f" stroke="#00f" stroke-width="16" d="m5077 2653 44-122-97 87 53 35z"/>
    <path id="w" fill="none" stroke="#00f" stroke-linecap="butt" stroke-linejoin="miter" stroke-width="16" d="m5266 2739-219 326"/>
    <path id="x" fill="#00f" stroke="#00f" stroke-width="16" d="m5273 2784 44-122-97 87 53 35z"/>
    <path id="y" fill="none" stroke="#00f" stroke-linecap="butt" stroke-linejoin="miter" stroke-width="16" d="m5462 2869-218 327"/>
    <path id="z" fill="#00f" stroke="#00f" stroke-width="16" d="m5469 2914 44-122-96 87 52 35z"/>
    <path id="A" fill="none" stroke="#00f" stroke-linecap="butt" stroke-linejoin="miter" stroke-width="16" d="m5659 3000-218 328"/>
    <path id="B" fill="#00f" stroke="#00f" stroke-width="16" d="m5666 3045 44-122-97 88 53 34z"/>
    <path id="C" fill="none" stroke="#00f" stroke-linecap="butt" stroke-linejoin="miter" stroke-width="16" d="m2908 1165-219 327"/>
    <path id="D" fill="#00f" stroke="#00f" stroke-width="16" d="m2915 1210 44-122-97 87 53 35z"/>
  </defs>
  <use xlink:href="#a" stroke-width="16"/>
  <use xlink:href="#b" stroke-width="16"/>
  <use xlink:href="#c" stroke-width="16"/>
  <use xlink:href="#d" stroke-width="16"/>
  <use xlink:href="#e" stroke-width="16"/>
  <use xlink:href="#f" stroke-width="16"/>
  <use xlink:href="#g" stroke-width="16"/>
  <use xlink:href="#h" stroke-width="16"/>
  <use xlink:href="#i" stroke-width="16"/>
  <use xlink:href="#j" stroke-width="16"/>
  <use xlink:href="#k" stroke-width="16"/>
  <use xlink:href="#l" stroke-width="16"/>
  <use xlink:href="#m" stroke-width="16"/>
  <use xlink:href="#n" stroke-width="16"/>
  <use xlink:href="#o" stroke-width="16"/>
  <use xlink:href="#p" stroke-width="16"/>
  <use xlink:href="#q" stroke-width="16"/>
  <use xlink:href="#r" stroke-width="16"/>
  <use xlink:href="#s" stroke-width="16"/>
  <use xlink:href="#t" stroke-width="16"/>
  <use xlink:href="#u" stroke-width="16"/>
  <use xlink:href="#v" stroke-width="16"/>
  <use xlink:href="#w" stroke-width="16"/>
  <use xlink:href="#x" stroke-width="16"/>
  <use xlink:href="#y" stroke-width="16"/>
  <use xlink:href="#z" stroke-width="16"/>
  <use xlink:href="#A" stroke-width="16"/>
  <use xlink:href="#B" stroke-width="16"/>
  <use xlink:href="#C" stroke-width="16"/>
  <use xlink:href="#D" stroke-width="16"/>
  <path fill="none" stroke="#000" stroke-width="16" d="M2267 2645c167.722 25.017 314.47 126.14 397.57 273.96 83.1 147.82 93.225 325.747 27.43 482.04m-1984 0h4725M2551 1511l2882 1890"/>
  <path fill="none" stroke="#000" stroke-width="16" d="M2902 1683 1748 3401" transform="matrix(.97708 0 0 .97422 39.887 87.88)"/>
  <path fill="none" stroke="#000" stroke-width="16" d="M2902 5119 1748 3401" transform="matrix(.98472 0 0 .97938 26.591 69.975)"/>
  <path stroke="#000" stroke-width="32" d="M1511 2267h331"/>
  <path fill="none" stroke="#000" stroke-width="16" d="m2598 5291 2787-1890"/>
  <use xlink:href="#a" stroke-width="16"/>
  <use xlink:href="#b" stroke-width="16"/>
  <use xlink:href="#c" stroke-width="16"/>
  <use xlink:href="#d" stroke-width="16"/>
  <use xlink:href="#e" stroke-width="16"/>
  <use xlink:href="#f" stroke-width="16"/>
  <use xlink:href="#g" stroke-width="16"/>
  <use xlink:href="#h" stroke-width="16"/>
  <use xlink:href="#i" stroke-width="16"/>
  <use xlink:href="#j" stroke-width="16"/>
  <use xlink:href="#k" stroke-width="16"/>
  <use xlink:href="#l" stroke-width="16"/>
  <use xlink:href="#m" stroke-width="16"/>
  <use xlink:href="#n" stroke-width="16"/>
  <use xlink:href="#o" stroke-width="16"/>
  <use xlink:href="#p" stroke-width="16"/>
  <use xlink:href="#q" stroke-width="16"/>
  <use xlink:href="#r" stroke-width="16"/>
  <use xlink:href="#s" stroke-width="16"/>
  <use xlink:href="#t" stroke-width="16"/>
  <use xlink:href="#u" stroke-width="16"/>
  <use xlink:href="#v" stroke-width="16"/>
  <use xlink:href="#w" stroke-width="16"/>
  <use xlink:href="#x" stroke-width="16"/>
  <use xlink:href="#y" stroke-width="16"/>
  <use xlink:href="#z" stroke-width="16"/>
  <use xlink:href="#A" stroke-width="16"/>
  <use xlink:href="#B" stroke-width="16"/>
  <use xlink:href="#C" stroke-width="16"/>
  <use xlink:href="#D" stroke-width="16"/>
  <path fill="none" stroke="#00f" stroke-width="16" d="m3104 5459-218-328"/>
  <path fill="#00f" stroke="#00f" stroke-width="16" d="m3059 5447 96 88-44-122-52 34z"/>
  <path fill="none" stroke="#00f" stroke-width="16" d="m3300 5328-218-328"/>
  <path fill="#00f" stroke="#00f" stroke-width="16" d="m3255 5316 97 88-44-123-53 35z"/>
  <path fill="none" stroke="#00f" stroke-width="16" d="m3497 5196-219-327"/>
  <path fill="#00f" stroke="#00f" stroke-width="16" d="m3451 5185 97 88-44-123-53 35z"/>
  <path fill="none" stroke="#00f" stroke-width="16" d="m3694 5065-218-327"/>
  <path fill="#00f" stroke="#00f" stroke-width="16" d="m3648 5054 96 88-44-123-52 35z"/>
  <path fill="none" stroke="#00f" stroke-width="16" d="m3890 4934-218-327"/>
  <path fill="#00f" stroke="#00f" stroke-width="16" d="m3845 4922 97 89-44-123-53 34z"/>
  <path fill="none" stroke="#00f" stroke-width="16" d="m4087 4804-219-328"/>
  <path fill="#00f" stroke="#00f" stroke-width="16" d="m4041 4792 97 88-44-122-53 34z"/>
  <path fill="none" stroke="#00f" stroke-width="16" d="m4283 4672-218-327"/>
  <path fill="#00f" stroke="#00f" stroke-width="16" d="m4238 4661 96 88-44-123-52 35z"/>
  <path fill="none" stroke="#00f" stroke-width="16" d="m4479 4541-218-327"/>
  <path fill="#00f" stroke="#00f" stroke-width="16" d="m4434 4530 97 88-44-123-53 35z"/>
  <path fill="none" stroke="#00f" stroke-width="16" d="m4677 4410-219-328"/>
  <path fill="#00f" stroke="#00f" stroke-width="16" d="m4630 4398 97 89-44-123-53 34z"/>
  <path fill="none" stroke="#00f" stroke-width="16" d="m4873 4279-218-328"/>
  <path fill="#00f" stroke="#00f" stroke-width="16" d="m4827 4267 96 88-44-122-52 34z"/>
  <path fill="none" stroke="#00f" stroke-width="16" d="m5069 4148-218-328"/>
  <path fill="#00f" stroke="#00f" stroke-width="16" d="m5024 4136 97 88-44-123-53 35z"/>
  <path fill="none" stroke="#00f" stroke-width="16" d="m5266 4016-219-326"/>
  <path fill="#00f" stroke="#00f" stroke-width="16" d="m5220 4005 97 88-44-123-53 35z"/>
  <path fill="none" stroke="#00f" stroke-width="16" d="m5462 3886-218-327"/>
  <path fill="#00f" stroke="#00f" stroke-width="16" d="m5417 3875 96 88-44-123-52 35z"/>
  <path fill="none" stroke="#00f" stroke-width="16" d="m5659 3755-218-328"/>
  <path fill="#00f" stroke="#00f" stroke-width="16" d="m5613 3743 97 89-44-123-53 34z"/>
  <path fill="none" stroke="#00f" stroke-width="16" d="m2908 5590-219-328"/>
  <path fill="#00f" stroke="#00f" stroke-width="16" d="m2862 5579 97 88-44-123-53 35z"/>
  <path fill="red" stroke="red" stroke-width="32" d="M897 3401h425m-68 47 189-47-189-47v94z"/>
  <text x="1606" y="2173" stroke="#000" stroke-width="2.4" font-family="Times" font-size="328" font-weight="400">c</text>
  <text x="1984" y="2362" stroke="#000" stroke-width="2.4" font-family="Times" font-size="328" font-weight="400">t</text>
  <text x="1606" y="2551" stroke="#000" stroke-width="2.4" font-family="Times" font-size="328" font-weight="400">n</text>
  <text x="2976" y="3874" stroke="#000" stroke-width="2.4" font-family="Times" font-size="328" font-weight="400">βct</text>
  <text x="2220" y="3212" stroke="#000" stroke-width="2.4" font-family="Times" font-size="252" font-weight="400">θ</text>
  <path fill="none" stroke="#000" stroke-linecap="round" stroke-linejoin="round" stroke-width="10.852" d="m2872.37 1732.838 318.417 203.668-199.751 312.294-318.418-203.668zm120.917 2844.592 211.933 312.977-306.958 207.857-211.933-312.977z"/>
</svg>
